<svg width="12" height="9" viewBox="0 0 12 9" fill="none" xmlns="http://www.w3.org/2000/svg">
<g clip-path="url(#clip0_378_581)">
<path fill-rule="evenodd" clip-rule="evenodd" d="M0.341568 0.320579C0.57528 0.0955886 0.888635 -0.027556 1.21289 -0.0218435C1.53715 -0.0161309 1.84592 0.118003 2.07157 0.351086L6.77409 6.48918C6.8852 6.60444 6.9725 6.74052 7.03107 6.88956C7.08964 7.0386 7.11828 7.19768 7.11539 7.35781C7.11251 7.51793 7.07817 7.67595 7.01427 7.82278C6.95036 7.96961 6.8582 8.10238 6.74301 8.21357C6.62782 8.32475 6.49191 8.41218 6.34297 8.47079C6.19402 8.5294 6.03498 8.55806 5.87496 8.55517C5.71494 8.55229 5.55711 8.51792 5.41037 8.45398C5.26364 8.39003 5.13081 8.29773 5.0197 8.18247L0.317179 2.04438C0.0949499 1.81104 -0.0268933 1.49983 -0.0223376 1.17753C-0.017782 0.855229 0.112833 0.547535 0.341568 0.320579Z" fill="#131313"/>
<path fill-rule="evenodd" clip-rule="evenodd" d="M11.6227 0.320579C11.3889 0.0955886 11.0756 -0.027556 10.7513 -0.0218435C10.4271 -0.0161309 10.1183 0.118003 9.89265 0.351086L5.19013 6.48918C5.07902 6.60444 4.99172 6.74052 4.93315 6.88956C4.87458 7.0386 4.84595 7.19768 4.84883 7.35781C4.85172 7.51793 4.88606 7.67595 4.94996 7.82278C5.01386 7.96961 5.10602 8.10238 5.22121 8.21357C5.3364 8.32475 5.47232 8.41218 5.62126 8.47079C5.7702 8.5294 5.92925 8.55806 6.08926 8.55517C6.24928 8.55229 6.40712 8.51792 6.55385 8.45398C6.70058 8.39003 6.83341 8.29773 6.94452 8.18247L11.647 2.04438C11.8693 1.81104 11.9911 1.49983 11.9866 1.17753C11.982 0.855229 11.8514 0.547535 11.6227 0.320579Z" fill="#131313"/>
</g>
<defs>
<clipPath id="clip0_378_581">
<rect width="12" height="8.57143" fill="white"/>
</clipPath>
</defs>
</svg>
