<svg aria-hidden="true" style="position: absolute; width: 0; height: 0; overflow: hidden;" version="1.1" xmlns="http://www.w3.org/2000/svg" xmlns:xlink="http://www.w3.org/1999/xlink">
<title>back</title>
	<path d="M2.476 14.143h31.524c0.842 0 1.524 0.682 1.524 1.524v0.667c0 0.842-0.682 1.524-1.524 1.524h-31.524c-0.842 0-1.524-0.682-1.524-1.524v-0.667c0-0.842 0.682-1.524 1.524-1.524z"></path>
	<path d="M0.868 15.3c0.482-0.482 2.787-0.482 3.269 0l14.186 14.186c0.482 0.482-1.042 1.264-1.524 1.746s-1.263 0.482-1.745 0l-14.186-14.186c-0.482-0.482-0.482-1.264 0-1.745z"></path>
	<path d="M0.868 16.709c0.482 0.482 2.787 0.482 3.269 0l14.186-14.186c0.482-0.482-1.042-1.263-1.524-1.746s-1.263-0.482-1.745 0l-14.186 14.186c-0.482 0.482-0.482 1.264 0 1.745z"></path>
</svg>