<svg width="10" height="12" viewBox="0 0 10 12" fill="none" xmlns="http://www.w3.org/2000/svg">
<g clip-path="url(#clip0_2665_2628)">
<path fill-rule="evenodd" clip-rule="evenodd" d="M10 0H1.5C1.10218 0 0.720644 0.155641 0.43934 0.432683C0.158035 0.709726 0 1.08548 0 1.47727V10.3409C0 10.7327 0.158035 11.1085 0.43934 11.3855C0.720644 11.6625 1.10218 11.8182 1.5 11.8182H10V1.9697H8V5.90909L7 4.92424L6 5.90909V1.9697H1.75C1.61739 1.9697 1.49021 1.91782 1.39645 1.82547C1.30268 1.73312 1.25 1.60787 1.25 1.47727C1.25 1.34667 1.30268 1.22142 1.39645 1.12908C1.49021 1.03673 1.61739 0.984848 1.75 0.984848H10V0Z" fill="#131313"/>
</g>
<defs>
<clipPath id="clip0_2665_2628">
<rect width="10" height="11.8182" fill="white"/>
</clipPath>
</defs>
</svg>
