<svg aria-hidden="true" style="position: absolute; width: 0; height: 0; overflow: hidden;" version="1.1" xmlns="http://www.w3.org/2000/svg" xmlns:xlink="http://www.w3.org/1999/xlink">
	<title>burger</title>
	<path d="M2.4 1.050h29.2c1.325 0 2.4 1.074 2.4 2.4v0.65c0 1.325-1.075 2.4-2.4 2.4h-29.2c-1.325 0-2.4-1.075-2.4-2.4v-0.65c0-1.325 1.075-2.4 2.4-2.4zM2.4 25.5h29.2c1.325 0 2.4 1.074 2.4 2.4v0.65c0 1.326-1.075 2.4-2.4 2.4h-29.2c-1.325 0-2.4-1.075-2.4-2.4v-0.65c0-1.325 1.075-2.4 2.4-2.4zM2.4 13.3h29.2c1.325 0 2.4 1.075 2.4 2.4v0.6c0 1.326-1.075 2.4-2.4 2.4h-29.2c-1.325 0-2.4-1.074-2.4-2.4v-0.6c0-1.325 1.075-2.4 2.4-2.4z"></path>
</svg>