<svg width="20" height="18" viewBox="0 0 20 18" fill="none" xmlns="http://www.w3.org/2000/svg">
<g clip-path="url(#clip0_996_1932)">
<path d="M15.4557 0H4.80054C2.69919 0 0.995117 1.67925 0.995117 3.75V14.25C0.995117 16.3207 2.69919 18 4.80054 18H15.4557C17.5579 18 19.2612 16.3207 19.2612 14.25V3.75C19.2612 1.67925 17.5579 0 15.4557 0ZM2.51729 3.75C2.51729 2.5095 3.54171 1.5 4.80054 1.5H9.36706V8.25H2.51729V3.75ZM2.51729 14.25V9.75H9.36706V16.5H4.80054C3.54171 16.5 2.51729 15.4905 2.51729 14.25ZM17.739 14.25C17.739 15.4905 16.7146 16.5 15.4557 16.5H10.8892V9.75H17.739V14.25ZM17.739 8.25H10.8892V1.5H15.4557C16.7146 1.5 17.739 2.5095 17.739 3.75V8.25ZM16.2168 12.75H12.4114V12H16.2168V12.75ZM12.4114 4.5H16.2168V5.25H12.4114V4.5ZM12.4114 14.25V13.5H16.2168V14.25H12.4114ZM7.84489 12.75V13.5H6.32272V15H5.56163V13.5H4.03946V12.75H5.56163V11.25H6.32272V12.75H7.84489ZM6.48026 4.875L7.55644 5.9355L7.01835 6.46575L5.94217 5.40525L4.866 6.46575L4.32715 5.9355L5.40332 4.875L4.32715 3.8145L4.86524 3.28425L5.94217 4.34475L7.01911 3.2835L7.55796 3.8145L6.48026 4.875ZM13.9336 3.375C13.9336 3.168 14.1041 3 14.3141 3C14.5242 3 14.6947 3.168 14.6947 3.375C14.6947 3.582 14.5242 3.75 14.3141 3.75C14.1041 3.75 13.9336 3.582 13.9336 3.375ZM14.6947 6.375C14.6947 6.582 14.5242 6.75 14.3141 6.75C14.1041 6.75 13.9336 6.582 13.9336 6.375C13.9336 6.168 14.1041 6 14.3141 6C14.5242 6 14.6947 6.168 14.6947 6.375Z" fill="black"/>
</g>
<defs>
<clipPath id="clip0_996_1932">
<rect width="18.2661" height="18" fill="white" transform="translate(0.995117)"/>
</clipPath>
</defs>
</svg>
