<svg width="13" height="13" viewBox="0 0 13 13" fill="none" xmlns="http://www.w3.org/2000/svg">
<g clip-path="url(#clip0_243_77)">
<path d="M2.78571 0.8125C2.78571 0.363848 3.20067 0 3.71429 0C4.2279 0 4.64286 0.363848 4.64286 0.8125V1.625H8.35714V0.8125C8.35714 0.363848 8.7721 0 9.28571 0C9.79933 0 10.2143 0.363848 10.2143 0.8125V1.625H11.6071C12.3761 1.625 13 2.17064 13 2.84375V4.0625H0V2.84375C0 2.17064 0.623594 1.625 1.39286 1.625H2.78571V0.8125ZM13 11.7812C13 12.4541 12.3761 13 11.6071 13H1.39286C0.623594 13 0 12.4541 0 11.7812V4.875H13V11.7812Z" fill="#3B3B3B"/>
</g>
<defs>
<clipPath id="clip0_243_77">
<rect width="13" height="13" fill="white"/>
</clipPath>
</defs>
</svg>
