<svg width="19" height="18" viewBox="0 0 19 18" fill="none" xmlns="http://www.w3.org/2000/svg">
<path d="M7.22148 0.595703H11.7785C12.5467 0.595703 13.2258 1.08629 13.467 1.81363L13.8529 2.9707H16.625C17.935 2.9707 19 4.03574 19 5.3457V14.8457C19 16.1557 17.935 17.2207 16.625 17.2207H2.375C1.06318 17.2207 0 16.1557 0 14.8457V5.3457C0 4.03574 1.06318 2.9707 2.375 2.9707H5.14707L5.53301 1.81363C5.77422 1.08629 6.45332 0.595703 7.22148 0.595703ZM9.5 13.6582C11.4668 13.6582 13.0625 12.0625 13.0625 10.0957C13.0625 8.09551 11.4668 6.5332 9.5 6.5332C7.4998 6.5332 5.9375 8.09551 5.9375 10.0957C5.9375 12.0625 7.4998 13.6582 9.5 13.6582Z" fill="black" fill-opacity="0.6"/>
</svg>
