<svg width="8" height="6" viewBox="0 0 8 6" fill="none" xmlns="http://www.w3.org/2000/svg">
<g clip-path="url(#clip0_1055_786)">
<path fill-rule="evenodd" clip-rule="evenodd" d="M1.29232 2.23621C1.37221 2.15198 1.46768 2.08477 1.57318 2.03852C1.67868 1.99228 1.79211 1.96795 1.9069 1.96684C2.0217 1.96572 2.13557 1.98789 2.24191 2.03207C2.34825 2.07626 2.44495 2.14153 2.52641 2.22419L4.67606 4.36188C4.83582 4.52885 4.92515 4.75318 4.92489 4.98668C4.92463 5.22018 4.8348 5.44422 4.67467 5.61082C4.51455 5.77742 4.2969 5.87329 4.06841 5.87778C3.83993 5.88226 3.61883 5.79505 3.45256 5.63486L1.3029 3.49717C1.13785 3.33139 1.04401 3.10541 1.04202 2.86893C1.04004 2.63245 1.13007 2.40486 1.29232 2.23621Z" fill="#131313"/>
<path fill-rule="evenodd" clip-rule="evenodd" d="M7.5835 0.45894C7.5036 0.37471 7.40814 0.307501 7.30264 0.261253C7.19714 0.215005 7.0837 0.19061 6.96891 0.189493C6.85412 0.188376 6.74025 0.210542 6.63391 0.254729C6.52757 0.298916 6.43086 0.364259 6.34941 0.446919L3.61797 4.36196C3.45821 4.52893 3.36888 4.75326 3.36914 4.98676C3.3694 5.22027 3.45923 5.4443 3.61936 5.6109C3.77948 5.7775 3.99714 5.87337 4.22562 5.87786C4.4541 5.88234 4.6752 5.79513 4.84147 5.63494L7.57292 1.7199C7.73797 1.55412 7.83181 1.32813 7.83379 1.09166C7.83578 0.855179 7.74574 0.627591 7.5835 0.45894Z" fill="#131313"/>
</g>
<defs>
<clipPath id="clip0_1055_786">
<rect width="7.38219" height="5.70442" fill="white" transform="translate(0.454102 0.188477)"/>
</clipPath>
</defs>
</svg>
