<svg width="17" height="17" viewBox="0 0 17 17" fill="none" xmlns="http://www.w3.org/2000/svg">

<path fill-rule="evenodd" clip-rule="evenodd" d="M0.52063 0.268936C0.616336 0.172787 0.730072 0.0964938 0.855347 0.0444336C0.980622 -0.00762663 1.11495 -0.0344238 1.25061 -0.0344238C1.38627 -0.0344238 1.5206 -0.00762663 1.64587 0.0444336C1.77115 0.0964938 1.88501 0.172787 1.98071 0.268936L16.3307 14.6159C16.5184 14.8109 16.6222 15.0716 16.6199 15.3422C16.6175 15.6129 16.5092 15.8718 16.3181 16.0634C16.127 16.255 15.8684 16.3641 15.5978 16.3672C15.3272 16.3703 15.0662 16.2672 14.8707 16.0799L0.52063 1.73294C0.32838 1.53781 0.220703 1.27487 0.220703 1.00094C0.220703 0.727008 0.32838 0.464071 0.52063 0.268936Z" fill="white"/>
<path fill-rule="evenodd" clip-rule="evenodd" d="M16.0993 0.268936C16.0036 0.172787 15.8898 0.0964938 15.7646 0.0444336C15.6393 -0.00762663 15.505 -0.0344238 15.3693 -0.0344238C15.2336 -0.0344238 15.0993 -0.00762663 14.974 0.0444336C14.8488 0.0964938 14.7349 0.172787 14.6392 0.268936L0.289224 14.6159C0.101475 14.8109 -0.00231091 15.0716 3.90532e-05 15.3422C0.00238901 15.6129 0.110692 15.8718 0.301797 16.0634C0.492902 16.255 0.751517 16.3641 1.02213 16.3672C1.29275 16.3703 1.55375 16.2672 1.74918 16.0799L16.0993 1.73294C16.2915 1.53781 16.3992 1.27487 16.3992 1.00094C16.3992 0.727008 16.2915 0.464071 16.0993 0.268936Z" fill="white"/>


</svg>
