<svg width="166" height="166" viewBox="0 0 166 166" fill="none" xmlns="http://www.w3.org/2000/svg">
<path d="M82.9999 10.082C37.1554 10.082 0.291683 40.2636 0.291683 77.5195C0.291683 93.5975 7.22348 108.029 18.7624 119.895C14.7097 136.232 1.1541 150.793 0.991995 150.955C0.282929 151.7 0.090343 152.804 0.505667 153.777C0.931042 154.749 1.84307 155.332 2.87635 155.332C24.3753 155.332 40.4857 145.022 48.4615 138.664C59.07 142.655 70.8359 144.957 83.2826 144.957C129.127 144.957 165.991 114.776 165.991 77.8113C165.991 40.8471 128.844 10.082 82.9999 10.082ZM69.7393 109.228C69.1049 109.863 68.2982 110.293 67.4192 110.469L49.4089 114.071C47.8209 114.389 46.4212 112.988 46.7393 111.402L50.3413 93.3946C50.5174 92.5156 50.9492 91.7077 51.5837 91.0745L83.2307 59.4275L101.387 77.587L69.7393 109.228ZM116.654 62.3137L108.717 70.2505L90.5607 52.0911L98.4976 44.1542C102.045 40.6105 107.79 40.6105 111.337 44.1542L116.657 49.4746C120.188 53.041 120.188 58.7797 116.654 62.3137Z" fill="#C4C4C4"/>
</svg>
