<svg aria-hidden="true" style="position: absolute; width: 0; height: 0; overflow: hidden;" version="1.1" xmlns="http://www.w3.org/2000/svg" xmlns:xlink="http://www.w3.org/1999/xlink">
	<title>comment</title>
	<path d="M16 4c7.352 0 13.333 4.789 13.333 10.676 0 6.556-6.86 10.615-13.213 10.615-2.583 0-4.511-0.529-5.859-0.859-1.333 0.817-2.127 1.383-5.696 2.427 0.713-1.831 0.964-3.664 0.803-5.687-1.117-1.333-2.7-3.2-2.7-6.496-0.001-5.887 5.98-10.676 13.332-10.676zM16 1.333c-8.451 0-16 5.635-16 13.343 0 2.733 0.984 5.417 2.729 7.5 0.073 2.44-1.364 5.941-2.657 8.491 3.469-0.627 8.401-2.011 10.637-3.381 1.891 0.46 3.7 0.671 5.412 0.671 9.445 0 15.88-6.449 15.88-13.281-0.001-7.748-7.603-13.341-16.001-13.341zM11.333 14.667c0 1.105-0.895 2-2 2-1.104 0-2-0.895-2-2s0.896-2 2-2c1.105 0 2 0.895 2 2zM16 12.667c-1.104 0-2 0.895-2 2s0.896 2 2 2c1.105 0 2-0.895 2-2s-0.895-2-2-2zM22.667 12.667c-1.104 0-2 0.895-2 2s0.896 2 2 2c1.105 0 2-0.895 2-2s-0.895-2-2-2z"></path>

</svg>