<svg width="58" height="42" viewBox="0 0 58 42" fill="none" xmlns="http://www.w3.org/2000/svg">
<path d="M47.5625 12.75H41.375V6.5625C41.375 4.92147 40.7231 3.34766 39.5627 2.18728C38.4023 1.0269 36.8285 0.375 35.1875 0.375H6.3125C4.67147 0.375 3.09766 1.0269 1.93728 2.18728C0.776896 3.34766 0.125 4.92147 0.125 6.5625V35.4375C0.125 35.9845 0.342298 36.5091 0.729092 36.8959C1.11589 37.2827 1.64049 37.5 2.1875 37.5H8.74625C9.1798 38.6945 9.97061 39.7266 11.0112 40.4559C12.0518 41.1852 13.2918 41.5765 14.5625 41.5765C15.8332 41.5765 17.0732 41.1852 18.1138 40.4559C19.1544 39.7266 19.9452 38.6945 20.3787 37.5H41.7463C42.1798 38.6945 42.9706 39.7266 44.0112 40.4559C45.0518 41.1852 46.2918 41.5765 47.5625 41.5765C48.8332 41.5765 50.0732 41.1852 51.1138 40.4559C52.1544 39.7266 52.9452 38.6945 53.3787 37.5H55.8125C56.3595 37.5 56.8841 37.2827 57.2709 36.8959C57.6577 36.5091 57.875 35.9845 57.875 35.4375V23.0625C57.875 20.3275 56.7885 17.7044 54.8545 15.7705C52.9206 13.8365 50.2975 12.75 47.5625 12.75ZM14.5625 37.5C14.1546 37.5 13.7558 37.379 13.4166 37.1524C13.0775 36.9258 12.8131 36.6037 12.657 36.2268C12.5009 35.8499 12.46 35.4352 12.5396 35.0351C12.6192 34.635 12.8156 34.2675 13.1041 33.9791C13.3925 33.6906 13.76 33.4942 14.1601 33.4146C14.5602 33.335 14.9749 33.3759 15.3518 33.532C15.7287 33.6881 16.0508 33.9525 16.2774 34.2916C16.504 34.6308 16.625 35.0296 16.625 35.4375C16.625 35.9845 16.4077 36.5091 16.0209 36.8959C15.6341 37.2827 15.1095 37.5 14.5625 37.5ZM37.25 33.375H20.3787C19.9452 32.1805 19.1544 31.1484 18.1138 30.4191C17.0732 29.6898 15.8332 29.2985 14.5625 29.2985C13.2918 29.2985 12.0518 29.6898 11.0112 30.4191C9.97061 31.1484 9.1798 32.1805 8.74625 33.375H4.25V27.1875H37.25V33.375ZM37.25 23.0625H4.25V6.5625C4.25 6.01549 4.4673 5.49089 4.85409 5.10409C5.24089 4.7173 5.76549 4.5 6.3125 4.5H35.1875C35.7345 4.5 36.2591 4.7173 36.6459 5.10409C37.0327 5.49089 37.25 6.01549 37.25 6.5625V23.0625ZM47.5625 37.5C47.1546 37.5 46.7558 37.379 46.4166 37.1524C46.0775 36.9258 45.8131 36.6037 45.657 36.2268C45.5009 35.8499 45.46 35.4352 45.5396 35.0351C45.6192 34.635 45.8156 34.2675 46.1041 33.9791C46.3925 33.6906 46.76 33.4942 47.1601 33.4146C47.5602 33.335 47.9749 33.3759 48.3518 33.532C48.7287 33.6881 49.0508 33.9525 49.2774 34.2916C49.504 34.6308 49.625 35.0296 49.625 35.4375C49.625 35.9845 49.4077 36.5091 49.0209 36.8959C48.6341 37.2827 48.1095 37.5 47.5625 37.5ZM53.75 33.375H53.3787C52.9452 32.1805 52.1544 31.1484 51.1138 30.4191C50.0732 29.6898 48.8332 29.2985 47.5625 29.2985C46.2918 29.2985 45.0518 29.6898 44.0112 30.4191C42.9706 31.1484 42.1798 32.1805 41.7463 33.375H41.375V16.875H43.4375V25.125C43.4375 25.672 43.6548 26.1966 44.0416 26.5834C44.4284 26.9702 44.953 27.1875 45.5 27.1875H53.75V33.375ZM47.5625 23.0625V16.875C49.2035 16.875 50.7773 17.5269 51.9377 18.6873C53.0981 19.8477 53.75 21.4215 53.75 23.0625H47.5625Z" fill="white"/>
</svg>
