<svg width="15" height="15" viewBox="0 0 15 15" fill="none" xmlns="http://www.w3.org/2000/svg">
<path d="M2.8125 0.938672H0.9375C0.419824 0.938672 0 1.3582 0 1.8498V8.38594C0 8.90361 0.419824 9.29707 0.9375 9.29707H2.8125C3.33018 9.29707 3.75 8.87725 3.75 8.38594V1.87588C3.75 1.3582 3.33105 0.938672 2.8125 0.938672ZM13.6904 7.03711C13.9189 6.78809 14.0625 6.45703 14.0625 6.09082C14.0625 5.40322 13.5683 4.8334 12.9158 4.71123C13.0459 4.5 13.125 4.25098 13.125 3.95801C13.125 3.3334 12.7148 2.81016 12.1509 2.62705C12.1729 2.55234 12.1875 2.44951 12.1875 2.34316C12.1875 1.5665 11.5576 0.9375 10.7812 0.9375H9.06182C8.04785 0.9375 7.06143 1.26621 6.2502 1.87441L5.25 2.62412C4.89551 2.88955 4.6875 3.30762 4.6875 3.72363L4.69065 8.41113C4.69065 8.41113 4.68996 8.41045 4.69065 8.41113C4.69271 8.821 4.87003 9.22969 5.21535 9.50566L5.69289 9.8874C8.0918 11.833 7.01367 14.0625 8.8623 14.0625C9.76934 14.0625 10.3116 13.3441 10.3116 12.653C10.3116 12.2092 9.96709 10.9503 9.30029 9.83994H13.5938C14.3707 9.83994 15 9.21094 15 8.43428C15 7.69043 14.4199 7.08691 13.6904 7.03711Z" fill="#8C8C8C"/>
</svg>
