<svg width="19" height="19" viewBox="0 0 19 19" fill="none" xmlns="http://www.w3.org/2000/svg">
<path fill-rule="evenodd" clip-rule="evenodd" d="M9.28 0C11.1154 0 12.9096 0.544262 14.4357 1.56396C15.9618 2.58366 17.1512 4.033 17.8536 5.7287C18.556 7.42439 18.7398 9.29029 18.3817 11.0904C18.0236 12.8906 17.1398 14.5441 15.8419 15.8419C14.5441 17.1398 12.8906 18.0236 11.0904 18.3817C9.29029 18.7398 7.42439 18.556 5.7287 17.8536C4.033 17.1512 2.58366 15.9618 1.56396 14.4357C0.544262 12.9096 0 11.1154 0 9.28C0 6.81879 0.977711 4.45838 2.71805 2.71805C4.45838 0.977711 6.81879 0 9.28 0V0ZM12.2682 13.4941H9.64436V10.4952H12.6433V13.119C12.6433 13.2185 12.6037 13.3139 12.5334 13.3842C12.4631 13.4546 12.3676 13.4941 12.2682 13.4941ZM5.89524 13.119V10.4952H8.89414V13.4941H6.27035C6.17086 13.4941 6.07545 13.4546 6.00511 13.3842C5.93476 13.3139 5.89524 13.2185 5.89524 13.119ZM6.27035 6.74607H8.89414V9.74497H5.89524V7.12118C5.89524 7.02169 5.93476 6.92628 6.00511 6.85594C6.07545 6.78559 6.17086 6.74607 6.27035 6.74607ZM6.91116 5.31011C6.75729 5.135 6.67578 4.90792 6.68316 4.67493C6.69054 4.44194 6.78626 4.22047 6.95091 4.05545C7.11555 3.89044 7.3368 3.79421 7.56978 3.78631C7.80275 3.7784 8.03001 3.85939 8.20547 4.01287C8.65873 4.47003 9.08463 5.64322 8.81307 5.91771C8.72932 5.98104 8.62426 6.0094 8.52001 5.99683H8.42233C7.86341 5.9187 7.33879 5.68132 6.91116 5.31304V5.31011ZM10.3301 4.01287C10.413 3.91847 10.5145 3.84211 10.6281 3.7885C10.7418 3.73489 10.8652 3.70518 10.9908 3.7012C11.1164 3.69722 11.2415 3.71906 11.3583 3.76537C11.4751 3.81168 11.5811 3.88147 11.6699 3.97042C11.7586 4.05937 11.8282 4.16559 11.8742 4.28251C11.9203 4.39942 11.9418 4.52454 11.9376 4.65012C11.9333 4.77571 11.9033 4.89908 11.8495 5.0126C11.7956 5.12612 11.719 5.22738 11.6244 5.31011C11.1927 5.68095 10.6627 5.91849 10.0986 5.9939H10.0195C9.91911 6.00342 9.81881 5.97521 9.73814 5.91478C9.44899 5.64419 9.87685 4.47003 10.3301 4.01287ZM12.6433 7.12118V9.74497H9.64436V6.74607H12.2691C12.3684 6.74633 12.4636 6.78596 12.5337 6.85628C12.6039 6.9266 12.6433 7.02186 12.6433 7.12118ZM12.2682 5.99585H11.9751C12.0382 5.9472 12.0982 5.89468 12.1548 5.83858C12.3094 5.68401 12.432 5.50049 12.5157 5.29853C12.5994 5.09656 12.6424 4.8801 12.6424 4.66149C12.6424 4.44288 12.5994 4.22642 12.5157 4.02445C12.432 3.82248 12.3094 3.63897 12.1548 3.48439C12.0003 3.32982 11.8168 3.2072 11.6148 3.12354C11.4128 3.03988 11.1964 2.99683 10.9777 2.99683C10.7591 2.99683 10.5427 3.03988 10.3407 3.12354C10.1387 3.2072 9.95523 3.32982 9.80065 3.48439C9.58483 3.71657 9.40534 3.98004 9.26828 4.26587C9.13121 3.98004 8.95172 3.71657 8.7359 3.48439C8.42371 3.17221 8.0003 2.99683 7.5588 2.99683C7.11731 2.99683 6.69389 3.17221 6.38171 3.48439C6.06952 3.79658 5.89414 4.21999 5.89414 4.66149C5.89414 5.10298 6.06952 5.5264 6.38171 5.83858C6.43832 5.89466 6.49835 5.94719 6.56145 5.99585H6.26839C6.12074 5.99598 5.97456 6.02519 5.8382 6.08181C5.70184 6.13844 5.57796 6.22136 5.47365 6.32586C5.36933 6.43035 5.28662 6.55437 5.23024 6.69083C5.17385 6.8273 5.1449 6.97353 5.14503 7.12118V13.119C5.14503 13.4172 5.26348 13.7032 5.47434 13.914C5.68519 14.1249 5.97118 14.2433 6.26937 14.2433H12.2682C12.5664 14.2433 12.8523 14.1249 13.0632 13.914C13.274 13.7032 13.3925 13.4172 13.3925 13.119V7.12118C13.3926 6.97344 13.3636 6.82713 13.3072 6.69061C13.2507 6.55408 13.168 6.43002 13.0635 6.32551C12.9591 6.221 12.8351 6.1381 12.6987 6.08153C12.5622 6.02497 12.4159 5.99585 12.2682 5.99585Z" fill="#131313"/>
</svg>
