<svg width="27" height="35" viewBox="0 0 27 35" fill="none" xmlns="http://www.w3.org/2000/svg">
<path d="M22.75 9.31231H21.8481C22.043 9.16206 22.2283 8.99987 22.4031 8.82669C22.8799 8.34991 23.2581 7.78389 23.5161 7.16094C23.7742 6.538 23.907 5.87033 23.907 5.19606C23.907 4.52179 23.7742 3.85413 23.5161 3.23118C23.2581 2.60824 22.8799 2.04222 22.4031 1.56544C21.9263 1.08866 21.3603 0.710455 20.7374 0.452423C20.1144 0.194392 19.4468 0.0615845 18.7725 0.0615845C18.0982 0.0615845 17.4306 0.194392 16.8076 0.452423C16.1847 0.710455 15.6187 1.08866 15.1419 1.56544C14.4757 2.28346 13.9222 3.09821 13.5 3.982C13.0778 3.09821 12.5243 2.28346 11.8581 1.56544C10.8952 0.602537 9.58925 0.0615845 8.2275 0.0615845C6.86575 0.0615845 5.55978 0.602537 4.59687 1.56544C3.63397 2.52834 3.09302 3.83432 3.09302 5.19606C3.09302 6.55781 3.63397 7.86379 4.59687 8.82669C4.77166 8.99987 4.95702 9.16206 5.15187 9.31231H4.25C3.33003 9.31231 2.44774 9.67777 1.79722 10.3283C1.14671 10.9788 0.78125 11.8611 0.78125 12.7811V31.2811C0.78125 32.201 1.14671 33.0833 1.79722 33.7338C2.44774 34.3844 3.33003 34.7498 4.25 34.7498H22.75C23.67 34.7498 24.5523 34.3844 25.2028 33.7338C25.8533 33.0833 26.2187 32.201 26.2187 31.2811V12.7811C26.2187 11.8611 25.8533 10.9788 25.2028 10.3283C24.5523 9.67777 23.67 9.31231 22.75 9.31231ZM23.9062 12.7811V20.8748H14.6562V11.6248H22.75C23.0567 11.6248 23.3508 11.7466 23.5676 11.9635C23.7844 12.1803 23.9062 12.4744 23.9062 12.7811ZM16.7722 3.19575C17.0294 2.90984 17.3422 2.67929 17.6914 2.51817C18.0406 2.35705 18.419 2.26873 18.8034 2.25858C19.1879 2.24843 19.5704 2.31668 19.9276 2.45916C20.2848 2.60163 20.6093 2.81536 20.8813 3.08731C21.1532 3.35925 21.3669 3.68373 21.5094 4.04096C21.6519 4.39819 21.7201 4.78068 21.71 5.16514C21.6998 5.5496 21.6115 5.92797 21.4504 6.27718C21.2893 6.6264 21.0587 6.93915 20.7728 7.19638C19.4423 8.34266 17.8074 9.07775 16.0669 9.31231H15.8125C15.5033 9.34205 15.1941 9.25548 14.9453 9.0695C14.055 8.22544 15.3731 4.60638 16.7722 3.19575ZM6.22719 7.19638C5.74199 6.65707 5.48219 5.95217 5.50133 5.22698C5.52047 4.50179 5.81709 3.81158 6.33005 3.29862C6.84302 2.78565 7.53323 2.48903 8.25842 2.46989C8.98361 2.45075 9.6885 2.71056 10.2278 3.19575C11.6269 4.60638 12.945 8.22544 12.1009 9.0695C11.84 9.26699 11.512 9.35418 11.1875 9.31231H10.8869C9.16266 9.06917 7.54496 8.33458 6.22719 7.19638ZM4.25 11.6248H12.3437V20.8748H3.09375V12.7811C3.09375 12.4744 3.21557 12.1803 3.43241 11.9635C3.64925 11.7466 3.94334 11.6248 4.25 11.6248ZM3.09375 31.2811V23.1873H12.3437V32.4373H4.25C3.94334 32.4373 3.64925 32.3155 3.43241 32.0987C3.21557 31.8818 3.09375 31.5877 3.09375 31.2811ZM22.75 32.4373H14.6562V23.1873H23.9062V31.2811C23.9062 31.5877 23.7844 31.8818 23.5676 32.0987C23.3508 32.3155 23.0567 32.4373 22.75 32.4373Z" fill="white"/>
</svg>
