<svg width="25" height="25" viewBox="0 0 25 25" fill="none" xmlns="http://www.w3.org/2000/svg">
<path d="M21.6 5.33332H21.0811C21.2406 4.90655 21.3261 4.45561 21.3339 3.99998C21.306 2.91543 20.851 1.88601 20.0682 1.13655C19.2854 0.387091 18.2385 -0.021512 17.1561 -1.68744e-05C16.0924 0.0230036 15.0545 0.332188 14.1509 0.895164C13.2474 1.45814 12.5115 2.2542 12.0204 3.19998C11.5292 2.2542 10.7933 1.45814 9.88979 0.895164C8.98626 0.332188 7.94831 0.0230036 6.88462 -1.68744e-05C5.80222 -0.021512 4.75531 0.387091 3.97254 1.13655C3.18976 1.88601 2.73473 2.91543 2.70683 3.99998C2.71469 4.45561 2.80018 4.90655 2.95962 5.33332H2.44073C2.09061 5.36663 1.75056 5.46916 1.44023 5.63499C1.1299 5.80081 0.855455 6.02664 0.632753 6.29941C0.41005 6.57218 0.243512 6.88648 0.142768 7.22415C0.0420228 7.56181 0.00906969 7.91614 0.0458133 8.26665V13.0667C-0.016342 13.7123 0.1493 14.3594 0.513932 14.8953C0.878564 15.4312 1.41911 15.8221 2.04157 16V21.8267C2.08265 22.4314 2.35696 22.9964 2.80645 23.4021C3.25594 23.8077 3.84531 24.0222 4.44979 24H19.591C20.2041 24.0217 20.8011 23.8 21.2521 23.383C21.703 22.9661 21.9715 22.3876 21.9992 21.7733V16C22.6216 15.8221 23.1622 15.4312 23.5268 14.8953C23.8914 14.3594 24.0571 13.7123 23.9949 13.0667V8.26665C24.0317 7.91614 23.9987 7.56181 23.898 7.22415C23.7972 6.88648 23.6307 6.57218 23.408 6.29941C23.1853 6.02664 22.9108 5.80081 22.6005 5.63499C22.2902 5.46916 21.9501 5.36663 21.6 5.33332ZM21.3339 8.26665V13.0667C21.3499 13.1548 21.3499 13.2451 21.3339 13.3333H13.3509V7.99998H21.3339C21.3499 8.08815 21.3499 8.17848 21.3339 8.26665ZM17.1561 2.66665C17.533 2.64464 17.9035 2.77217 18.1873 3.02168C18.4711 3.27118 18.6456 3.62261 18.6729 3.99998C18.6456 4.37735 18.4711 4.72878 18.1873 4.97829C17.9035 5.2278 17.533 5.35533 17.1561 5.33332H13.8831C14.1159 4.62101 14.5482 3.99086 15.1286 3.51803C15.7089 3.04519 16.4128 2.74965 17.1561 2.66665ZM5.36784 3.99998C5.39517 3.62261 5.56961 3.27118 5.85344 3.02168C6.13727 2.77217 6.5077 2.64464 6.88462 2.66665C7.62559 2.75207 8.32656 3.04871 8.90436 3.52138C9.48215 3.99405 9.9125 4.6229 10.1444 5.33332H6.88462C6.5077 5.35533 6.13727 5.2278 5.85344 4.97829C5.56961 4.72878 5.39517 4.37735 5.36784 3.99998ZM2.70683 8.26665C2.69086 8.17848 2.69086 8.08815 2.70683 7.99998H10.6899V13.3333H2.70683C2.69086 13.2451 2.69086 13.1548 2.70683 13.0667V8.26665ZM4.70259 16H10.6899V21.3333H4.70259V16ZM13.3509 21.3333V16H19.3382V21.3333H13.3509Z" fill="white"/>
</svg>
