<svg width="19" height="19" viewBox="0 0 19 19" fill="none" xmlns="http://www.w3.org/2000/svg">
<path d="M9.28082 0.371185C4.35964 0.371185 0.371094 4.35973 0.371094 9.27999C0.370972 10.4501 0.601346 11.6087 1.04906 12.6897C1.49677 13.7708 2.15305 14.753 2.98042 15.5804C3.80779 16.4078 4.79004 17.064 5.87107 17.5117C6.9521 17.9595 8.11074 18.1898 9.28082 18.1897C14.2001 18.1897 18.1896 14.2012 18.1896 9.27999C18.1896 4.35973 14.2001 0.371185 9.28082 0.371185ZM10.1123 3.58763C10.9809 3.58763 11.2361 4.09154 11.2361 4.66783C11.2361 5.38703 10.6608 6.0524 9.67801 6.0524C8.8558 6.0524 8.46418 5.63944 8.48831 4.95551C8.48831 4.37922 8.96994 3.58763 10.1123 3.58763ZM7.88697 14.616C7.29305 14.616 6.85967 14.255 7.27449 12.6728L7.95471 9.86555C8.07257 9.4164 8.09205 9.23637 7.95471 9.23637C7.77746 9.23637 7.00629 9.54632 6.55157 9.85256L6.25554 9.36722C7.69858 8.16175 9.35785 7.45461 10.0678 7.45461C10.6617 7.45461 10.7601 8.15618 10.464 9.23637L9.6845 12.1874C9.54623 12.7089 9.60562 12.889 9.74389 12.889C9.92207 12.889 10.5049 12.6737 11.0784 12.2217L11.4143 12.6728C10.0102 14.0759 8.47996 14.616 7.88697 14.616Z" fill="black"/>
</svg>
