<svg aria-hidden="true" style="position: absolute; width: 0; height: 0; overflow: hidden;" version="1.1" xmlns="http://www.w3.org/2000/svg" xmlns:xlink="http://www.w3.org/1999/xlink">
<title>instagram</title>
	<path  d="M26.997 8.598c0 0.635-0.515 1.151-1.152 1.151h-2.711c-0.637 0-1.151-0.516-1.151-1.151v-2.712c0-0.636 0.514-1.151 1.151-1.151h2.711c0.637 0 1.152 0.515 1.152 1.151zM26.997 26.034c0 0.635-0.515 1.15-1.152 1.15h-20.145c-0.637 0-1.152-0.514-1.152-1.15v-12.569h2.366c-0.11 0.393-0.191 0.798-0.25 1.211-0.062 0.42-0.101 0.846-0.101 1.282 0 5.087 4.123 9.21 9.209 9.21s9.209-4.123 9.209-9.21c0-0.436-0.039-0.863-0.101-1.282-0.059-0.413-0.14-0.818-0.25-1.211h2.366zM15.772 10.204c3.179 0 5.757 2.576 5.757 5.755s-2.578 5.756-5.757 5.756-5.756-2.578-5.756-5.756c0-3.179 2.577-5.755 5.756-5.755zM27.285 0.994h-23.026c-1.906 0-3.453 1.546-3.453 3.453v23.023c0 1.908 1.547 3.455 3.453 3.455h23.026c1.907 0 3.453-1.547 3.453-3.455v-23.023c0-1.907-1.545-3.453-3.453-3.453z"></path>
</svg>