<svg width="15" height="15" viewBox="0 0 15 15" fill="none" xmlns="http://www.w3.org/2000/svg">
<path d="M3.75 13.0986V6.53613C3.75 6.01846 3.33018 5.625 2.8125 5.625H0.9375C0.419824 5.625 0 6.04482 0 6.53613V13.0723C0 13.5899 0.419824 13.9834 0.9375 13.9834H2.8125C3.33105 14.0361 3.75 13.6406 3.75 13.0986ZM15 6.56543C15 5.78906 14.3707 5.15977 13.5938 5.15977H9.30176C9.96885 4.04912 10.3131 2.79023 10.3131 2.34668C10.3125 1.65586 9.77051 0.9375 8.8623 0.9375C7.01279 0.9375 8.09004 3.16846 5.69238 5.08594L5.21484 5.4668C4.86914 5.74512 4.69336 6.15234 4.69043 6.5625C4.68974 6.56319 4.69043 6.5625 4.69043 6.5625L4.6875 11.25C4.6875 11.6924 4.89589 12.1093 5.25 12.3747L6.2502 13.1244C7.06055 13.7344 8.04785 14.0625 9.06152 14.0625H10.7812C11.5582 14.0625 12.1875 13.4335 12.1875 12.6568C12.1875 12.5503 12.1734 12.4476 12.151 12.3478C12.7148 12.1641 13.125 11.6426 13.125 11.0156C13.125 10.7476 13.046 10.4997 12.9158 10.2867C13.5674 10.166 14.0625 9.59473 14.0625 8.90918C14.0625 8.54297 13.9192 8.2125 13.6898 7.9623C14.4199 7.91309 15 7.30957 15 6.56543Z" fill="#8C8C8C"/>
</svg>
