<svg aria-hidden="true" style="position: absolute; width: 0; height: 0; overflow: hidden;" version="1.1" xmlns="http://www.w3.org/2000/svg" xmlns:xlink="http://www.w3.org/1999/xlink">
	<title>list-table</title>
	<path d="M29.76 8.907h-4.96c-0.913 0-1.653-0.74-1.653-1.653v0c0-0.914 0.74-3.307 1.653-3.307h4.96c0.914 0 1.653 2.393 1.653 3.307s-0.74 1.653-1.653 1.653v0zM18.187 27.84h-4.96c-0.913 0-1.653-0.74-1.653-1.653v0c0-0.914 0.74-3.307 1.653-3.307h4.96c0.914 0 1.653 2.393 1.653 3.307s-0.74 1.653-1.653 1.653v0zM18.187 18.951h-4.96c-0.913 0-1.653-0.74-1.653-1.653v0c0-0.914 0.74-3.307 1.653-3.307h4.96c0.914 0 1.653 2.393 1.653 3.307s-0.74 1.653-1.653 1.653v0zM18.187 8.907h-4.96c-0.913 0-1.653-0.74-1.653-1.653v0c0-0.914 0.74-3.307 1.653-3.307h4.96c0.914 0 1.653 2.393 1.653 3.307s-0.74 1.653-1.653 1.653v0zM6.613 27.84h-4.96c-0.913 0-1.653-0.74-1.653-1.653v0c0-0.914 0.74-3.307 1.653-3.307h4.96c0.914 0 1.653 2.393 1.653 3.307s-0.74 1.653-1.653 1.653v0zM6.613 18.951h-4.96c-0.913 0-1.653-0.74-1.653-1.653v0c0-0.914 0.74-3.307 1.653-3.307h4.96c0.914 0 1.653 2.393 1.653 3.307s-0.74 1.653-1.653 1.653v0zM6.613 8.907h-4.96c-0.913 0-1.653-0.74-1.653-1.653v0c0-0.914 0.74-3.307 1.653-3.307h4.96c0.914 0 1.653 2.393 1.653 3.307s-0.74 1.653-1.653 1.653v0zM24.8 13.991h4.96c0.914 0 1.653 2.393 1.653 3.307s-0.74 1.653-1.653 1.653v0h-4.96c-0.913 0-1.653-0.74-1.653-1.653v0c0-0.914 0.74-3.307 1.653-3.307z"></path>

</svg>