<svg width="16" height="12" viewBox="0 0 16 12" fill="none" xmlns="http://www.w3.org/2000/svg">
<g clip-path="url(#clip0_76_338)">
<path fill-rule="evenodd" clip-rule="evenodd" d="M0.813 4.99902H14.25C14.4606 5.00641 14.66 5.09525 14.8064 5.24681C14.9527 5.39838 15.0345 5.60084 15.0345 5.81152C15.0345 6.02221 14.9527 6.22467 14.8064 6.37623C14.66 6.5278 14.4606 6.61664 14.25 6.62402H0.813C0.602444 6.61664 0.402979 6.5278 0.256638 6.37623C0.110296 6.22467 0.0285091 6.02221 0.0285091 5.81152C0.0285091 5.60084 0.110296 5.39838 0.256638 5.24681C0.402979 5.09525 0.602444 5.00641 0.813 4.99902ZM0.829 -0.000976562H14.234C14.3427 -0.000976569 14.4504 0.0204409 14.5509 0.0620518C14.6513 0.103663 14.7426 0.164652 14.8195 0.241539C14.8964 0.318426 14.9574 0.409703 14.999 0.51016C15.0406 0.610618 15.062 0.718288 15.062 0.827023C15.062 0.935757 15.0406 1.04343 14.999 1.14388C14.9574 1.24434 14.8964 1.33562 14.8195 1.41251C14.7426 1.48939 14.6513 1.55038 14.5509 1.592C14.4504 1.63361 14.3427 1.65502 14.234 1.65502H0.827999C0.719265 1.65502 0.611597 1.63361 0.511139 1.592C0.410681 1.55038 0.319402 1.48939 0.242516 1.41251C0.165629 1.33562 0.104639 1.24434 0.0630283 1.14388C0.0214174 1.04343 0 0.935757 0 0.827023C0 0.718288 0.0214174 0.610618 0.0630283 0.51016C0.104639 0.409703 0.165629 0.318426 0.242516 0.241539C0.319402 0.164652 0.410681 0.103663 0.511139 0.0620518C0.611597 0.0204409 0.719265 -0.000976569 0.827999 -0.000976562H0.829ZM0.829 9.96802H14.234C14.4536 9.96802 14.6642 10.0553 14.8195 10.2105C14.9748 10.3658 15.062 10.5764 15.062 10.796C15.062 11.0156 14.9748 11.2262 14.8195 11.3815C14.6642 11.5368 14.4536 11.624 14.234 11.624H0.827999C0.6084 11.624 0.397796 11.5368 0.242516 11.3815C0.0872354 11.2262 0 11.0156 0 10.796C0 10.5764 0.0872354 10.3658 0.242516 10.2105C0.397796 10.0553 0.6084 9.96802 0.827999 9.96802H0.829Z" fill="#131313"/>
</g>
<defs>
<clipPath id="clip0_76_338">
<rect width="15.063" height="11.625" fill="white"/>
</clipPath>
</defs>
</svg>
