<svg aria-hidden="true" style="position: absolute; width: 0; height: 0; overflow: hidden;" version="1.1" xmlns="http://www.w3.org/2000/svg" xmlns:xlink="http://www.w3.org/1999/xlink">
	<title>monoad6</title>
	<path d="M31.961 12.339c-0.058-0.18-0.269-0.596-0.959-0.596h-10.801l-3.337-10.273c-0.214-0.657-0.676-0.728-0.865-0.728s-0.652 0.071-0.863 0.728l-3.339 10.273h-10.8c-0.711 0-0.913 0.457-0.957 0.592-0.047 0.14-0.156 0.63 0.422 1.051l8.739 6.349-3.339 10.276c-0.144 0.454-0.027 0.75 0.096 0.915 0.275 0.38 0.856 0.426 1.303 0.098l8.739-6.348 8.737 6.348c0.216 0.157 0.427 0.236 0.646 0.236 0.266 0 0.506-0.121 0.661-0.332 0.122-0.169 0.238-0.467 0.093-0.918l-3.339-10.273 8.742-6.35c0.554-0.405 0.479-0.866 0.422-1.046zM21.535 18.88c-0.25 0.182-0.357 0.501-0.262 0.802l2.999 9.23-7.855-5.707c-0.243-0.173-0.59-0.175-0.84 0.002l-7.851 5.705 2.999-9.232c0.096-0.295-0.009-0.616-0.26-0.8l-7.852-5.704h9.705c0.313 0 0.587-0.199 0.681-0.496l2.999-9.229 2.999 9.231c0.098 0.296 0.372 0.494 0.682 0.494h9.704l-7.849 5.704z"></path>
</svg>