<svg aria-hidden="true" style="position: absolute; width: 0; height: 0; overflow: hidden;" version="1.1" xmlns="http://www.w3.org/2000/svg" xmlns:xlink="http://www.w3.org/1999/xlink">
	<title>monoad5</title>
	<path d="M8.5 27h-0.569c0.356-0.538 0.569-1.198 0.569-1.908v-1.258c0-0.001 0-0.001 0-0.002 0-0.29-0.050-0.569-0.141-0.828l0.005 0.017-1.546-4.497c-0.138-0.504-0.52-0.896-1.007-1.047l-0.011-0.003 0.942-3.521c0.034-0.118 0.054-0.254 0.054-0.395 0-0.507-0.255-0.955-0.644-1.223l-0.005-0.003c-0.128-0.093-0.278-0.167-0.44-0.212l-0.010-0.002c-0.118-0.035-0.253-0.056-0.392-0.056-0.003 0-0.005 0-0.008 0h0c-0.004-0-0.009-0-0.014-0-0.678 0-1.25 0.455-1.427 1.077l-0.003 0.010-2.668 8.2c-0.077 0.231-0.121 0.497-0.121 0.774 0 0.183 0.019 0.361 0.056 0.533l-0.003-0.017 0.771 2.996c0.070 0.261 0.11 0.561 0.111 0.87v0.494h-0.5c-0.276 0-0.5 0.224-0.5 0.5v0 3c0 0.276 0.224 0.5 0.5 0.5v0h7c0.276 0 0.5-0.224 0.5-0.5v0-3c0-0.276-0.224-0.5-0.5-0.5v0zM2.858 25.385l-0.765-2.97c-0.019-0.088-0.029-0.19-0.029-0.294 0-0.166 0.027-0.326 0.077-0.475l-0.003 0.011 2.677-8.227c0.059-0.212 0.25-0.365 0.477-0.365 0.048 0 0.093 0.007 0.137 0.019l-0.003-0.001c0.058 0.015 0.11 0.040 0.154 0.074l-0.001-0.001c0.132 0.089 0.218 0.239 0.218 0.408 0 0.047-0.006 0.092-0.019 0.135l0.001-0.003-1.032 3.855c-0.52 0.239-0.875 0.755-0.875 1.355 0 0.002 0 0.004 0 0.006v-0c-0 0.006-0 0.013-0 0.020 0 0.131 0.018 0.258 0.053 0.378l-0.002-0.010 0.905 3.381c0.059 0.215 0.253 0.371 0.483 0.371 0.276 0 0.5-0.224 0.5-0.5 0-0.046-0.006-0.091-0.018-0.133l0.001 0.003-0.907-3.392c-0.009-0.033-0.015-0.071-0.015-0.11 0-0.003 0-0.006 0-0.009v0c0-0.001-0-0.003-0-0.005 0-0.213 0.137-0.394 0.328-0.459l0.003-0.001c0.011-0.004 0.059-0.020 0.066-0.021 0.029-0.006 0.063-0.010 0.098-0.010 0.243 0 0.447 0.172 0.495 0.4l0.001 0.003 1.556 4.529c0.052 0.145 0.082 0.312 0.082 0.486 0 0 0 0.001 0 0.001v-0 1.258c0 0.001 0 0.001 0 0.002 0 0.516-0.157 0.996-0.426 1.394l0.006-0.009-0.348 0.521h-3.732v-0.494c-0-0.399-0.052-0.785-0.149-1.153l0.007 0.031zM8 30h-6v-2h6z"></path>
	<path d="M23 27.5v3c0 0.276 0.224 0.5 0.5 0.5v0h7c0.276 0 0.5-0.224 0.5-0.5v0-3c0-0.276-0.224-0.5-0.5-0.5v0h-0.5v-0.494c0-0 0-0 0-0.001 0-0.31 0.040-0.61 0.116-0.896l-0.005 0.024 0.771-2.996c0.034-0.155 0.053-0.334 0.053-0.517 0-0.276-0.044-0.543-0.127-0.791l0.005 0.018-2.668-8.197c-0.18-0.631-0.751-1.085-1.429-1.085-0.004 0-0.008 0-0.013 0h0.001c-0.002 0-0.005-0-0.008-0-0.14 0-0.275 0.020-0.402 0.058l0.010-0.003c-0.172 0.047-0.322 0.121-0.454 0.217l0.004-0.003c-0.394 0.271-0.649 0.719-0.649 1.226 0 0.141 0.020 0.277 0.056 0.405l-0.003-0.010 0.94 3.522c-0.498 0.154-0.88 0.546-1.016 1.039l-0.002 0.011-1.547 4.497c-0.086 0.242-0.136 0.52-0.136 0.81 0 0 0 0 0 0v0 1.258c0 0.71 0.213 1.37 0.577 1.921l-0.008-0.013h-0.569c-0.276 0-0.5 0.224-0.5 0.5v0zM29 26.506v0.494h-3.733l-0.348-0.521c-0.263-0.389-0.42-0.869-0.42-1.385 0-0.001 0-0.001 0-0.002v0-1.258c0-0 0-0.001 0-0.001 0-0.174 0.030-0.341 0.085-0.497l-0.003 0.010 1.556-4.529c0.049-0.232 0.253-0.404 0.496-0.404 0.035 0 0.069 0.003 0.101 0.010l-0.003-0.001c0.008 0 0.055 0.017 0.067 0.021 0.194 0.066 0.332 0.247 0.332 0.46 0 0.002 0 0.003-0 0.005v-0c0 0.003 0 0.006 0 0.008 0 0.039-0.005 0.077-0.015 0.112l0.001-0.003-0.909 3.392c-0.011 0.039-0.017 0.083-0.017 0.13 0 0.276 0.224 0.5 0.5 0.5 0.23 0 0.424-0.155 0.482-0.367l0.001-0.003 0.905-3.381c0.032-0.11 0.050-0.237 0.050-0.368 0-0.007-0-0.014-0-0.021v0.001c0-0.002 0-0.004 0-0.006 0-0.599-0.354-1.114-0.864-1.35l-0.009-0.004-1.032-3.855c-0.011-0.039-0.018-0.085-0.018-0.131 0-0.169 0.086-0.319 0.216-0.407l0.002-0.001c0.043-0.033 0.095-0.058 0.15-0.072l0.003-0.001c0.040-0.012 0.086-0.018 0.134-0.018 0.227 0 0.418 0.153 0.476 0.362l0.001 0.003 2.677 8.227c0.047 0.139 0.074 0.298 0.074 0.464 0 0.104-0.011 0.206-0.031 0.304l0.002-0.010-0.765 2.97c-0.090 0.337-0.142 0.723-0.142 1.122v0zM24 28h6v2h-6z"></path>
	<path d="M24.2 4.542l-8-3.5c-0.059-0.026-0.128-0.042-0.2-0.042s-0.141 0.015-0.203 0.043l0.003-0.001-8 3.5c-0.178 0.079-0.3 0.254-0.3 0.458v0 10c0 0.193 0.11 0.361 0.27 0.444l0.003 0.001 8 4.070c0.066 0.034 0.144 0.055 0.227 0.055v0c0.082-0 0.159-0.020 0.227-0.054l-0.003 0.001 8-4.020c0.165-0.084 0.276-0.252 0.276-0.447 0-0 0-0 0-0v0-10.050c-0-0.204-0.122-0.379-0.297-0.457l-0.003-0.001zM16 2.046l6.753 2.954-6.753 2.954-1.755-0.768 2.671-1.168c0.178-0.079 0.299-0.254 0.299-0.458s-0.122-0.379-0.296-0.457l-0.003-0.001-2.146-0.936c-0.059-0.026-0.128-0.042-0.2-0.042s-0.141 0.015-0.203 0.043l0.003-0.001-3.515 1.537-1.604-0.703zM11.5 7.077l1 0.438v2.176l-1-0.5zM12.1 6.249l2.468-1.079 0.895 0.391-2.463 1.079zM8.5 5.764l2 0.875v2.861c0 0 0 0 0 0 0 0.195 0.111 0.363 0.274 0.446l0.003 0.001 2 1c0.065 0.033 0.142 0.053 0.223 0.053 0.276 0 0.5-0.224 0.5-0.5 0-0 0-0 0-0v0-2.55l2 0.875v9.43l-7-3.561zM16.5 18.259v-9.432l7-3.063v8.977z"></path>
	<path d="M19.279 14.617l-2.003 1.007c-0.165 0.084-0.275 0.253-0.275 0.447 0 0.276 0.224 0.5 0.5 0.5 0.082 0 0.16-0.020 0.228-0.055l-0.003 0.001 2.003-1.007c0.165-0.084 0.275-0.253 0.275-0.447 0-0.276-0.224-0.5-0.5-0.5-0.082 0-0.16 0.020-0.228 0.055l0.003-0.001z"></path>
	<path d="M17.5 14.57c0.082 0 0.159-0.020 0.227-0.054l-0.003 0.001 1.975-0.992c0.165-0.084 0.275-0.253 0.275-0.447 0-0.276-0.224-0.5-0.5-0.5-0.082 0-0.16 0.020-0.228 0.055l0.003-0.001-1.974 0.992c-0.164 0.084-0.275 0.252-0.275 0.447 0 0.276 0.224 0.5 0.5 0.5 0 0 0 0 0 0h-0z"></path>

</svg>