<svg aria-hidden="true" style="position: absolute; width: 0; height: 0; overflow: hidden;" version="1.1" xmlns="http://www.w3.org/2000/svg" xmlns:xlink="http://www.w3.org/1999/xlink">
	<title>monoad3</title>
	<path d="M29.774 21.463c-0.727-0.454-1.654-0.5-2.424-0.124l-5.46 2.65v-0.288c0-1.384-1.060-2.475-2.445-2.475h-5.289c-1.079 0-2.182-0.18-3.213-0.498l-3.445-1.074v-1.389c0-0.444-0.293-0.817-0.737-0.817h-4.824c-0.444 0-0.871 0.373-0.871 0.817v12.784c0 0.444 0.427 0.791 0.871 0.791h4.824c0.444 0 0.737-0.347 0.737-0.791v-1.287l0.575 0.428c1.457 1.172 3.323 1.81 5.193 1.81h4.647c1.663 0 3.268-0.488 4.641-1.426l7.304-4.982c0.674-0.46 1.077-1.221 1.077-2.037 0-0.857-0.434-1.638-1.161-2.092zM5.889 30.231h-3.216v-11.176h3.216v11.176zM28.951 24.268l-7.304 4.978c-1.105 0.754-2.396 1.146-3.734 1.146h-4.647c-1.505 0-3.013-0.512-4.185-1.455l-1.583-1.239v-6.361l2.97 0.927c1.185 0.367 2.448 0.57 3.689 0.57h5.289c0.498 0 0.837 0.369 0.837 0.867v0.972c-0.965 0.264-3.223 0.73-5.508 0.363-0.438-0.070-0.835 0.228-0.905 0.666s0.236 0.851 0.674 0.922c0.699 0.113 1.394 0.158 2.052 0.158 2.587 0 4.676-0.697 4.812-0.743 0-0 0.001-0 0.002-0s0.003-0.001 0.003-0.001c0.030-0.010 0.059-0.022 0.086-0.036 0.002-0.001 0.004-0.002 0.006-0.003l6.584-3.215c0.273-0.133 0.576-0.117 0.834 0.043s0.405 0.427 0.405 0.73c0 0.285-0.14 0.55-0.375 0.711z"></path>
	<path d="M2.293 10.564c0.727 0.454 1.6 0.501 2.37 0.125l5.407-2.65v0.288c0 1.384 1.168 2.528 2.552 2.528h5.289c1.079 0 2.129 0.153 3.16 0.472l3.392 1.047v1.389c0 0.444 0.4 0.79 0.844 0.79h4.824c0.444 0 0.764-0.345 0.764-0.79v-12.784c-0-0.444-0.32-0.819-0.764-0.819h-4.824c-0.444 0-0.844 0.374-0.844 0.819v1.287l-0.522-0.442c-1.457-1.172-3.269-1.824-5.139-1.824h-4.647c-1.663 0-3.268 0.502-4.641 1.44l-7.304 4.989c-0.674 0.46-1.077 1.224-1.077 2.041-0 0.857 0.434 1.641 1.161 2.095zM26.070 1.769h3.216v11.176h-3.216v-11.176zM3.116 7.76l7.304-4.992c1.105-0.754 2.397-1.16 3.734-1.16h4.647c1.505 0 2.959 0.526 4.132 1.469l1.529 1.253v6.361l-2.916-0.9c-1.185-0.367-2.395-0.544-3.635-0.544h-5.289c-0.498 0-0.944-0.422-0.944-0.92v-0.972c1.045-0.264 3.276-0.73 5.562-0.363 0.438 0.070 0.861-0.228 0.932-0.666s-0.223-0.851-0.661-0.922c-3.442-0.554-6.678 0.525-6.855 0.585-0 0 0.001 0 0 0s-0.001 0.001-0.002 0.001c-0.017 0.006-0.031 0.012-0.045 0.019-0.015 0.006-0.031 0.012-0.046 0.019l-6.584 3.215c-0.273 0.133-0.576 0.117-0.833-0.043s-0.405-0.427-0.405-0.73c0-0.285 0.14-0.55 0.376-0.711z"></path>
	<path d="M16.357 13.3c-0.382-0.222-0.819-0.342-1.268-0.342-1.391 0-2.522 1.131-2.522 2.522 0 0.825 0.57 1.767 1.744 2.879 0.778 0.738 1.547 1.288 1.58 1.311 0.14 0.099 0.303 0.149 0.466 0.149s0.327-0.050 0.466-0.149c0.032-0.023 0.801-0.573 1.58-1.311 1.173-1.112 1.744-2.054 1.744-2.879 0-1.391-1.131-2.522-2.522-2.522-0.448 0-0.886 0.121-1.267 0.342zM18.539 15.48c0 0.512-1.073 1.653-2.182 2.529-1.108-0.875-2.181-2.016-2.181-2.529 0-0.504 0.41-0.914 0.914-0.914 0.259 0 0.499 0.106 0.675 0.297 0.152 0.166 0.367 0.261 0.593 0.261s0.441-0.095 0.593-0.261c0.175-0.192 0.415-0.297 0.674-0.297 0.504 0 0.914 0.41 0.914 0.914z"></path>

</svg>