<svg aria-hidden="true" style="position: absolute; width: 0; height: 0; overflow: hidden;" version="1.1" xmlns="http://www.w3.org/2000/svg" xmlns:xlink="http://www.w3.org/1999/xlink">
	<title>monoad1</title>
	<path d="M25.475 14.269c0.081 0.081 0.194 0.125 0.3 0.125s0.219-0.044 0.3-0.125c0.169-0.169 0.169-0.438 0-0.606l-0.606-0.606c-0.169-0.169-0.438-0.169-0.606 0s-0.169 0.438 0 0.606l0.613 0.606z"></path>
	<path d="M23.369 12.156c0.081 0.081 0.194 0.125 0.3 0.125s0.219-0.044 0.3-0.125c0.169-0.169 0.169-0.438 0-0.606l-0.606-0.606c-0.169-0.169-0.438-0.169-0.606 0s-0.169 0.438 0 0.606l0.613 0.606z"></path>
	<path d="M25.175 12.281c0.106 0 0.219-0.044 0.3-0.125l0.606-0.606c0.169-0.169 0.169-0.438 0-0.606s-0.438-0.169-0.606 0l-0.606 0.606c-0.169 0.169-0.169 0.438 0 0.606 0.087 0.088 0.2 0.125 0.306 0.125z"></path>
	<path d="M23.063 14.394c0.106 0 0.219-0.044 0.3-0.125l0.606-0.606c0.169-0.169 0.169-0.438 0-0.606s-0.438-0.169-0.606 0l-0.606 0.606c-0.169 0.169-0.169 0.438 0 0.606 0.087 0.088 0.2 0.125 0.306 0.125z"></path>
	<path d="M19.656 14.831c0.244 0 0.438-0.194 0.438-0.438s-0.194-0.438-0.438-0.438c-0.244 0-0.438 0.194-0.438 0.438s0.2 0.438 0.438 0.438z"></path>
	<path d="M26.819 18.344c0.706 0 1.281-0.575 1.281-1.281s-0.575-1.281-1.281-1.281-1.281 0.575-1.281 1.281c0 0.706 0.575 1.281 1.281 1.281v0zM26.819 16.637c0.238 0 0.425 0.194 0.425 0.425 0 0.238-0.194 0.425-0.425 0.425-0.238 0-0.425-0.194-0.425-0.425 0-0.238 0.188-0.425 0.425-0.425z"></path>
	<path d="M30.925 22.688c-0.206-0.244-0.475-0.413-0.762-0.5-0.825-1.994-2.394-2.55-3.631-2.381-0.925 0.125-1.7 0.15-2.363 0.094-0.006 0-0.012 0-0.012 0-2.063-0.169-3.075-1.106-4.363-2.294-0.825-0.762-1.769-1.631-3.119-2.412-0.663-0.381-1.519-0.7-2.256-0.338-0.563 0.275-0.925 0.85-1.35 1.275-0.412 0.431-0.988 0.962-1.675 1.387-0.256 0.156-0.338 0.494-0.181 0.756 0.156 0.256 0.494 0.337 0.756 0.181 0.625-0.381 1.162-0.85 1.588-1.262 2.362 1.275 3.487 2.319 4.4 3.163 0.394 0.363 0.75 0.694 1.144 0.994-1.85-0.050-3.844 0.181-5.137 2.094-0.012 0-0.031-0.006-0.050-0.006-3.325-0.419-5.637-0.606-9.031-0.5-0.125 0.006-0.244 0.019-0.362 0.050-0.106-1.188-0.106-3.231 0.319-4.738 0.094-0.325 0.175-0.425 0.2-0.45v0c0.169 0 0.694 0.337 0.919 0.488 0.15 0.094 0.325 0.206 0.513 0.313 0.263 0.15 0.6 0.056 0.744-0.206 0.15-0.262 0.056-0.6-0.206-0.744-0.169-0.094-0.325-0.194-0.463-0.281-0.656-0.425-1.281-0.831-1.906-0.594-0.537 0.2-0.75 0.769-0.869 1.175-0.538 1.906-0.469 4.625-0.275 5.794-0.156 0.262-0.231 0.556-0.225 0.869v2.262c0 0.3 0.244 0.55 0.55 0.55h9.75c0.3 0 0.55-0.244 0.55-0.55v-0.106c2.7 0.337 5.425 0.656 7.956 0.656 3.387 0 6.438-0.569 8.644-2.425 0.337-0.281 0.544-0.681 0.575-1.119 0.050-0.431-0.087-0.856-0.369-1.194zM14.325 16.363c0.175-0.2 0.381-0.481 0.656-0.556 0.381-0.106 0.819 0.15 1.137 0.331 1.25 0.719 2.1 1.506 2.925 2.269 1.225 1.131 2.331 2.156 4.325 2.494-0.281 0.413-0.806 0.55-1.681 0.556-1.438-0.462-2.094-1.075-3-1.913-0.919-0.85-2.050-1.9-4.363-3.181zM30.212 23.794c-0.012 0.144-0.081 0.275-0.194 0.369-3.619 3.038-10.106 2.231-16.375 1.444-0.156-0.019-0.313 0.031-0.431 0.131-0.119 0.106-0.188 0.256-0.188 0.413v0.175h-8.644v-1.731c0-0.006 0-0.012 0-0.012-0.006-0.144 0.050-0.281 0.15-0.387s0.237-0.169 0.388-0.169c2.281-0.069 4.556 0.019 6.831 0.256 2.406 0.256 4.8 0.613 7.206 0.813 1.363 0.113 2.738 0.175 4.106 0.125 0.3-0.012 0.538-0.262 0.525-0.569-0.012-0.3-0.262-0.538-0.569-0.525-2.369 0.087-5.088-0.194-7.787-0.525 1.25-1.331 3.144-1.212 4.981-1.1 0.481 0.031 0.95 0.056 1.394 0.056 0.006 0 0.012 0 0.012 0 0.006 0 0.006 0 0.012 0 0.462 0 0.894-0.038 1.288-0.137 0.806-0.206 1.35-0.681 1.613-1.406 0.106 0.006 0.212 0.006 0.325 0.006 0.55 0 1.15-0.044 1.819-0.131 0.481-0.063 1.587-0.031 2.313 1.369-0.137 0.063-0.262 0.144-0.381 0.244-0.294 0.244-0.625 0.462-1 0.656-0.269 0.137-0.375 0.469-0.238 0.738s0.469 0.375 0.738 0.238c0.444-0.225 0.85-0.494 1.206-0.794 0.119-0.1 0.262-0.137 0.4-0.125 0 0 0 0 0 0 0.137 0.012 0.275 0.075 0.375 0.194 0.094 0.106 0.137 0.244 0.125 0.387z"></path>
	<path d="M25.381 23.875v0c-0.294 0.063-0.481 0.356-0.419 0.65 0.056 0.256 0.281 0.431 0.538 0.431 0.038 0 0.075-0.006 0.113-0.012 0.294-0.063 0.481-0.356 0.419-0.65s-0.35-0.481-0.65-0.419z"></path>
	<path d="M9.25 19.294c0.012 0 0.025 0 0.037 0 0.3-0.019 0.531-0.281 0.506-0.587-0.019-0.3-0.281-0.531-0.588-0.506v0c-0.3 0.019-0.531 0.281-0.506 0.587 0.025 0.288 0.262 0.506 0.55 0.506z"></path>

</svg>