<svg aria-hidden="true" style="position: absolute; width: 0; height: 0; overflow: hidden;" version="1.1" xmlns="http://www.w3.org/2000/svg" xmlns:xlink="http://www.w3.org/1999/xlink">
	<title>monoad2</title>
	<path d="M31.676 6.921l-12.463-6.843c-0.187-0.103-0.414-0.103-0.602 0l-4.697 2.579c-0.099 0.026-0.192 0.076-0.268 0.147l-7.497 4.117c-0.2 0.11-0.324 0.32-0.324 0.548v8.277c-1.265 0.395-2.424 1.093-3.387 2.057-2.512 2.511-3.152 6.342-1.593 9.532 0.151 0.31 0.526 0.439 0.836 0.287s0.439-0.526 0.287-0.836c-1.324-2.71-0.78-5.965 1.354-8.099 1.335-1.335 3.109-2.070 4.997-2.070s3.662 0.735 4.997 2.070c1.334 1.334 2.070 3.109 2.070 4.996s-0.735 3.662-2.070 4.997c-2.134 2.134-5.389 2.678-8.099 1.354-0.31-0.152-0.684-0.023-0.836 0.287s-0.023 0.685 0.287 0.836c1.162 0.568 2.408 0.844 3.646 0.844 2.159-0 4.289-0.841 5.886-2.437 0.732-0.732 1.311-1.577 1.72-2.495l2.693 1.479c0.094 0.052 0.197 0.077 0.301 0.077s0.207-0.026 0.301-0.077l12.463-6.843c0.2-0.11 0.324-0.32 0.324-0.548v-4.343c0-0.345-0.28-0.625-0.625-0.625s-0.625 0.28-0.625 0.625v3.974l-11.211 6.156v-12.261l3.7-2.032v3.221c0 0.221 0.117 0.426 0.307 0.538 0.098 0.058 0.208 0.087 0.318 0.087 0.104 0 0.207-0.026 0.301-0.077l2.671-1.47c0.2-0.11 0.323-0.32 0.323-0.547v-3.904l3.591-1.971v3.287c0 0.345 0.28 0.625 0.625 0.625s0.625-0.28 0.625-0.625v-4.343c0-0.228-0.124-0.438-0.324-0.548zM18.912 1.338l11.164 6.131-3.522 1.934-11.164-6.131zM18.912 13.599l-11.164-6.13 3.651-2.005 11.165 6.13zM23.862 10.881l-11.164-6.13 1.395-0.766 11.165 6.13zM14.198 17.802c-1.571-1.571-3.659-2.436-5.88-2.436-0.42 0-0.835 0.031-1.243 0.092v-6.934l11.215 6.158v12.261l-1.947-1.069c0.192-0.706 0.291-1.441 0.291-2.192 0-2.221-0.865-4.31-2.436-5.88zM25.91 14.031l-1.421 0.782v-2.85l1.421-0.78z"></path>
	<path d="M31.375 13.684c-0.164 0-0.326 0.067-0.442 0.183s-0.183 0.277-0.183 0.442c0 0.164 0.067 0.325 0.183 0.442s0.278 0.183 0.442 0.183 0.326-0.067 0.442-0.183c0.116-0.116 0.183-0.277 0.183-0.442s-0.067-0.326-0.183-0.442-0.278-0.183-0.442-0.183z"></path>
	<path d="M6.216 24.307c0.16 0 0.32-0.061 0.442-0.183 0.244-0.244 0.244-0.64 0-0.884l-0.433-0.433h3.694c0.896 0 1.625 0.729 1.625 1.625s-0.729 1.625-1.625 1.625h-2.189c-0.345 0-0.625 0.28-0.625 0.625s0.28 0.625 0.625 0.625h2.189c1.585 0 2.875-1.29 2.875-2.875s-1.29-2.875-2.875-2.875h-3.694l0.433-0.433c0.244-0.244 0.244-0.64 0-0.884s-0.64-0.244-0.884 0l-1.5 1.5c-0.244 0.244-0.244 0.64 0 0.884l1.5 1.5c0.122 0.122 0.282 0.183 0.442 0.183z"></path>
	<path d="M2.88 29.747c-0.178 0-0.354-0.076-0.478-0.222l-0.001-0.001c-0.222-0.264-0.188-0.658 0.076-0.88s0.658-0.188 0.881 0.076c0.222 0.264 0.188 0.659-0.076 0.881-0.117 0.099-0.26 0.147-0.402 0.147z"></path>

</svg>