<svg aria-hidden="true" style="position: absolute; width: 0; height: 0; overflow: hidden;" version="1.1" xmlns="http://www.w3.org/2000/svg" xmlns:xlink="http://www.w3.org/1999/xlink">
	<title>more</title>
	<path d="M16.625 21.275l4.831-6.644c0.175-0.244 0.206-0.569 0.069-0.838s-0.413-0.438-0.712-0.438h-9.662c-0.3 0-0.581 0.169-0.713 0.438-0.056 0.113-0.088 0.238-0.088 0.363 0 0.162 0.050 0.331 0.156 0.469l4.825 6.644c0.156 0.212 0.394 0.331 0.644 0.331 0.262 0.012 0.5-0.113 0.65-0.325z"></path>
	<path d="M32 16c0-8.838-7.163-16-16-16s-16 7.162-16 16 7.162 16 16 16 16-7.163 16-16zM2.669 16c0-7.363 5.963-13.325 13.325-13.325 7.356 0 13.331 5.969 13.331 13.325s-5.969 13.325-13.331 13.325c-7.356 0-13.325-5.963-13.325-13.325z"></path>

</svg>