<svg width="52" height="60" viewBox="0 0 52 60" fill="none" xmlns="http://www.w3.org/2000/svg">
<g clip-path="url(#clip0_1063_3206)">
<path fill-rule="evenodd" clip-rule="evenodd" d="M49.3996 24.6212C49.3996 41.856 25.9996 56.6288 25.9996 56.6288C25.9996 56.6288 2.59961 41.856 2.59961 24.6212C2.59961 18.7442 5.06496 13.108 9.45331 8.95234C13.8417 4.79671 19.7935 2.4621 25.9996 2.4621C32.2057 2.4621 38.1576 4.79671 42.5459 8.95234C46.9343 13.108 49.3996 18.7442 49.3996 24.6212V24.6212Z" stroke="white" stroke-width="5" stroke-linecap="round" stroke-linejoin="round"/>
<path d="M25.9992 32.0075C30.307 32.0075 33.7992 28.7005 33.7992 24.6212C33.7992 20.5418 30.307 17.2348 25.9992 17.2348C21.6914 17.2348 18.1992 20.5418 18.1992 24.6212C18.1992 28.7005 21.6914 32.0075 25.9992 32.0075Z" stroke="white" stroke-width="5" stroke-linecap="round" stroke-linejoin="round"/>
</g>
<defs>
<clipPath id="clip0_1063_3206">
<rect width="52" height="59.0909" fill="white"/>
</clipPath>
</defs>
</svg>
