<svg aria-hidden="true" style="position: absolute; width: 0; height: 0; overflow: hidden;" version="1.1" xmlns="http://www.w3.org/2000/svg" xmlns:xlink="http://www.w3.org/1999/xlink">
	<title>play</title>
	<path d="M21.278 15.374l-6.645-4.83c-0.13-0.096-0.294-0.154-0.472-0.154-0.442 0-0.8 0.358-0.801 0.8v9.657c0 0.001 0 0.002 0 0.002 0 0.441 0.358 0.799 0.799 0.799 0.178 0 0.343-0.058 0.476-0.157l-0.002 0.002 6.645-4.826c0.202-0.146 0.332-0.381 0.332-0.646s-0.13-0.5-0.329-0.645l-0.002-0.002z"></path>
	<path d="M16.001 0.002c-8.838 0-16.001 7.162-16.001 16.001 0 8.835 7.162 15.995 16.001 15.995 8.836 0 15.999-7.161 15.999-15.995 0.001-8.838-7.163-16.001-15.999-16.001zM16.001 29.328c-7.36 0-13.328-5.964-13.328-13.326 0-7.358 5.967-13.33 13.328-13.33 7.359 0 13.326 5.971 13.326 13.33 0.001 7.361-5.966 13.326-13.326 13.326z"></path>

</svg>