<svg width="29" height="51" viewBox="0 0 29 51" fill="none" xmlns="http://www.w3.org/2000/svg">
<path d="M28.2559 14.9538C28.2558 11.717 27.1876 8.5706 25.2171 6.00267C23.2466 3.43474 20.4839 1.58875 17.3573 0.751016C14.2307 -0.0867231 10.9151 0.130598 7.92464 1.36927C4.93418 2.60795 2.436 4.79876 0.817531 7.60193C0.261112 8.56702 0.110721 9.71357 0.39942 10.7895C0.68812 11.8655 1.39228 12.7827 2.35709 13.3396C3.32189 13.8965 4.46837 14.0475 5.54446 13.7594C6.62055 13.4712 7.53817 12.7675 8.09558 11.803C8.64945 10.8459 9.44501 10.0511 10.4026 9.49817C11.3602 8.9452 12.4463 8.65348 13.5521 8.6522C15.2234 8.6522 16.8262 9.31612 18.008 10.4979C19.1898 11.6797 19.8537 13.2825 19.8537 14.9538C19.8537 16.6251 19.1898 18.228 18.008 19.4097C16.8262 20.5915 15.2234 21.2555 13.5521 21.2555H13.5418C13.2719 21.2825 13.0055 21.337 12.7467 21.418C12.4636 21.4474 12.1841 21.5046 11.9123 21.5888C11.681 21.7145 11.4622 21.862 11.2589 22.0293C11.0177 22.1605 10.7897 22.315 10.5784 22.4904C10.3895 22.7158 10.2246 22.9604 10.0866 23.2201C9.93352 23.4095 9.7976 23.6122 9.68043 23.8258C9.58914 24.1153 9.52879 24.4137 9.50042 24.716C9.42726 24.9576 9.37723 25.2055 9.35098 25.4565V29.6576L9.36073 29.7053L9.36535 31.7684C9.36825 32.8808 9.81211 33.9466 10.5996 34.7322C11.3872 35.5178 12.4541 35.9591 13.5664 35.9592H13.5767C14.6909 35.9565 15.7583 35.5112 16.5442 34.7215C17.3301 33.9317 17.7702 32.8621 17.7675 31.7479L17.7611 28.9694C20.784 28.0708 23.4371 26.2224 25.3273 23.698C27.2176 21.1736 28.2445 18.1075 28.2559 14.9538ZM10.6002 43.4792C10.0104 44.0642 9.60721 44.811 9.44171 45.6251C9.27621 46.4392 9.3558 47.2841 9.67042 48.053C9.98504 48.8219 10.5206 49.4802 11.2093 49.9448C11.898 50.4094 12.709 50.6593 13.5398 50.663C14.6539 50.6539 15.7222 50.2179 16.5244 49.4447C17.3042 48.6478 17.7408 47.5771 17.7408 46.4621C17.7408 45.3471 17.3042 44.2765 16.5244 43.4795C15.7202 42.73 14.6617 42.3132 13.5624 42.3132C12.463 42.3131 11.4045 42.7298 10.6002 43.4792V43.4792Z" fill="white"/>
</svg>
