<svg width="18" height="18" viewBox="0 0 18 18" fill="none" xmlns="http://www.w3.org/2000/svg">
<path d="M15.591 11.925H11.816C11.595 11.925 11.383 12.0128 11.2268 12.1691C11.0705 12.3254 10.9827 12.5373 10.9827 12.7584C10.9827 12.9794 11.0705 13.1913 11.2268 13.3476C11.383 13.5039 11.595 13.5917 11.816 13.5917H13.816C12.8968 14.5523 11.7114 15.2161 10.412 15.4978C9.11262 15.7796 7.75869 15.6664 6.52416 15.1727C5.28964 14.6791 4.23091 13.8276 3.48401 12.7277C2.73711 11.6277 2.33616 10.3296 2.33268 9.00002C2.33268 8.77901 2.24489 8.56705 2.0886 8.41077C1.93232 8.25449 1.72036 8.16669 1.49935 8.16669C1.27834 8.16669 1.06637 8.25449 0.910093 8.41077C0.753813 8.56705 0.666016 8.77901 0.666016 9.00002C0.670421 10.6274 1.1512 12.2178 2.04902 13.575C2.94684 14.9323 4.2224 15.997 5.7183 16.6377C7.2142 17.2784 8.86496 17.4671 10.4669 17.1806C12.0688 16.894 13.5517 16.1446 14.7327 15.025V16.5C14.7327 16.721 14.8205 16.933 14.9768 17.0893C15.133 17.2456 15.345 17.3334 15.566 17.3334C15.787 17.3334 15.999 17.2456 16.1553 17.0893C16.3116 16.933 16.3993 16.721 16.3993 16.5V12.75C16.3973 12.5347 16.312 12.3286 16.1613 12.1748C16.0106 12.021 15.8062 11.9315 15.591 11.925ZM8.99935 0.666687C6.863 0.672781 4.81059 1.49912 3.26602 2.97502V1.50002C3.26602 1.27901 3.17822 1.06704 3.02194 0.910765C2.86566 0.754484 2.6537 0.666687 2.43268 0.666687C2.21167 0.666687 1.99971 0.754484 1.84343 0.910765C1.68715 1.06704 1.59935 1.27901 1.59935 1.50002V5.25002C1.59935 5.47103 1.68715 5.683 1.84343 5.83928C1.99971 5.99556 2.21167 6.08335 2.43268 6.08335H6.18268C6.4037 6.08335 6.61566 5.99556 6.77194 5.83928C6.92822 5.683 7.01602 5.47103 7.01602 5.25002C7.01602 5.02901 6.92822 4.81705 6.77194 4.66076C6.61566 4.50448 6.4037 4.41669 6.18268 4.41669H4.18268C5.1014 3.45658 6.28609 2.79294 7.58468 2.51094C8.88327 2.22895 10.2365 2.34147 11.4707 2.83407C12.7049 3.32667 13.7637 4.17686 14.5112 5.27552C15.2587 6.37418 15.6609 7.67118 15.666 9.00002C15.666 9.22103 15.7538 9.433 15.9101 9.58928C16.0664 9.74556 16.2783 9.83335 16.4993 9.83335C16.7204 9.83335 16.9323 9.74556 17.0886 9.58928C17.2449 9.433 17.3327 9.22103 17.3327 9.00002C17.3327 7.90567 17.1171 6.82204 16.6983 5.81099C16.2796 4.79994 15.6657 3.88129 14.8919 3.10746C14.1181 2.33364 13.1994 1.71981 12.1884 1.30102C11.1773 0.882235 10.0937 0.666687 8.99935 0.666687Z"  />
</svg>
