<svg width="18" height="18" viewBox="0 0 18 18" fill="none" xmlns="http://www.w3.org/2000/svg">
<g clip-path="url(#clip0_996_1930)">
<path fill-rule="evenodd" clip-rule="evenodd" d="M17.9999 5.9485V17.89H8.34141C4.95495 17.89 2.01164 17.8124 0.614579 15.8705C-0.320543 14.5709 0.0877496 10.4504 0.0877496 8.23143V3.05094C1.06572 -0.421391 7.53984 -0.777878 10.4487 1.20704C11.2755 1.77119 12.5612 2.89553 11.9414 4.54362C11.7264 5.11541 11.2055 5.47989 10.8877 5.9485H17.9999ZM4.5658 8.93387H6.05848V16.3973H7.55116V11.9192H9.04385V16.3973H10.5365V8.93387H12.0292V16.3973H13.5219V11.9192H15.0146V16.3973H16.5073V7.44119H8.51702C7.21944 7.44119 5.46747 7.5037 4.47799 7.35338C3.13546 7.14941 2.46085 6.65832 1.58043 6.21192V14.5534H1.66824C1.97037 15.6536 3.39922 16.0724 4.5658 16.3095V8.93387ZM6.01458 1.29572C8.56039 1.29572 10.6243 2.35676 10.6243 3.66558C10.6243 4.9744 8.56092 6.03543 6.01458 6.03543C3.46824 6.03543 1.40482 4.9744 1.40482 3.66558C1.40482 2.35676 3.46876 1.29572 6.01458 1.29572ZM6.01458 2.52411C7.68761 2.52411 9.04385 3.05481 9.04385 3.70948C9.04385 4.36415 7.68761 4.89484 6.01458 4.89484C4.34154 4.89484 2.98531 4.36415 2.98531 3.70948C2.98531 3.05481 4.34154 2.52411 6.01458 2.52411Z" fill="black"/>
</g>
<defs>
<clipPath id="clip0_996_1930">
<rect width="18" height="17.8902" fill="white"/>
</clipPath>
</defs>
</svg>
