<svg aria-hidden="true" style="position: absolute; width: 0; height: 0; overflow: hidden;" version="1.1" xmlns="http://www.w3.org/2000/svg" xmlns:xlink="http://www.w3.org/1999/xlink">
<title>search</title>
	<path d="M31.137 28.498l-2.767 2.767-7.776-7.776v-1.475l-0.553-0.553c-2.029 1.845-4.796 2.952-7.748 2.952-6.641 0-11.99-5.35-11.99-11.991s5.35-11.99 11.99-11.99c6.641 0 11.99 5.35 11.99 11.99 0 2.952-1.107 5.719-2.951 7.748l0.553 0.553h1.476zM20.796 12.419c0-4.724-3.779-8.503-8.503-8.503s-8.503 3.779-8.503 8.503c0 4.724 3.779 8.503 8.503 8.503s8.503-3.779 8.503-8.503z"></path>
</svg>