<svg aria-hidden="true" style="position: absolute; width: 0; height: 0; overflow: hidden;" version="1.1" xmlns="http://www.w3.org/2000/svg" xmlns:xlink="http://www.w3.org/1999/xlink">
	<title>share</title>
	<path d="M24.897 12.022c-1.215 0-2.279 0.455-3.039 1.215l-10.787-6.228c0.153-0.304 0.153-0.761 0.153-1.065 0-2.582-1.975-4.557-4.557-4.557-2.583 0-4.559 1.975-4.559 4.557 0 2.583 1.975 4.559 4.559 4.559 1.215 0 2.278-0.455 3.037-1.216l10.787 6.23c-0.151 0.304-0.151 0.759-0.151 1.063s0 0.761 0.151 1.065l-10.787 6.381c-0.759-0.761-1.823-1.216-3.037-1.216-2.433 0.002-4.405 1.973-4.407 4.406v0c0.002 2.433 1.974 4.406 4.407 4.407h0c2.433-0.002 4.404-1.974 4.404-4.407v0c0-0.304 0-0.607-0.151-1.063l10.787-6.381c0.759 0.759 1.823 1.216 3.039 1.216 2.582 0 4.557-1.975 4.557-4.559s-1.823-4.406-4.406-4.406z"></path>
</svg>