<svg aria-hidden="true" style="position: absolute; width: 0; height: 0; overflow: hidden;" version="1.1" xmlns="http://www.w3.org/2000/svg" xmlns:xlink="http://www.w3.org/1999/xlink">
	<title>shopping-cart</title>
	<path d="M23.624 26.864c-1.418 0-2.568 1.149-2.568 2.567s1.15 2.568 2.568 2.568c1.418 0 2.568-1.149 2.568-2.568s-1.15-2.567-2.568-2.567zM15.064 26.864c-1.418 0-2.568 1.149-2.568 2.567s1.15 2.568 2.568 2.568 2.568-1.149 2.568-2.568c0-1.418-1.15-2.567-2.568-2.567zM34.417 1.184l-5.875 20.544h-17.853l-5.028-11.984h19.467l0.966-3.424h-25.583l7.901 18.832h22.666l5.947-20.544h3.302l1.272-3.424z"></path>

</svg>