<svg width="19" height="19" viewBox="0 0 19 19" fill="none" xmlns="http://www.w3.org/2000/svg">
<path d="M9.28003 2.15152e-05C7.43981 -0.00393594 5.63979 0.538134 4.10779 1.55762C2.57578 2.57711 1.38066 4.02819 0.6737 5.72719C-0.0332627 7.42619 -0.22029 9.29673 0.136291 11.1021C0.492872 12.9074 1.37703 14.5664 2.67686 15.869C3.97669 17.1716 5.63375 18.0594 7.43832 18.4198C9.24288 18.7803 11.1138 18.5973 12.8143 17.894C14.5149 17.1907 15.9685 15.9987 16.9913 14.4689C18.0141 12.9391 18.56 11.1402 18.56 9.30002C18.5627 8.07967 18.3246 6.87079 17.8594 5.74258C17.3942 4.61437 16.711 3.58898 15.8491 2.72514C14.9871 1.86129 13.9632 1.17594 12.836 0.708328C11.7087 0.240714 10.5004 1.8681e-05 9.28003 2.15152e-05ZM15.59 9.65002C15.5936 9.73938 15.5765 9.82837 15.54 9.91002C15.5088 9.98916 15.4611 10.0607 15.4 10.12L13.12 13.06C12.9937 13.1816 12.8253 13.2496 12.65 13.25C12.4778 13.2491 12.3127 13.181 12.19 13.06C12.0685 12.9337 12.0004 12.7653 12 12.59C12.0009 12.4178 12.0691 12.2527 12.19 12.13L13.68 10.21H4.90003L6.38003 12.12C6.4442 12.1787 6.49531 12.2503 6.53003 12.33C6.54503 12.4127 6.54503 12.4974 6.53003 12.58C6.5442 12.6628 6.5442 12.7473 6.53003 12.83C6.49785 12.9087 6.45032 12.9801 6.39023 13.0402C6.33014 13.1003 6.25868 13.1478 6.18003 13.18C6.10021 13.211 6.01562 13.2279 5.93003 13.23C5.84387 13.2339 5.75805 13.2168 5.68003 13.18C5.59575 13.1348 5.52104 13.0737 5.46003 13L3.17003 10.1C3.05894 9.97268 2.99845 9.809 3.00003 9.64002V9.58002C3.00041 9.40472 3.06848 9.23634 3.19003 9.11002L5.48003 6.18002C5.60153 6.06092 5.76489 5.99421 5.93503 5.99421C6.10517 5.99421 6.26852 6.06092 6.39003 6.18002C6.50912 6.30153 6.57583 6.46488 6.57583 6.63502C6.57583 6.80516 6.50912 6.96852 6.39003 7.09002L4.76003 9.21002H13.81L12.19 7.12002C12.129 7.06074 12.0813 6.98916 12.05 6.91002C12.0181 6.82701 12.0011 6.73897 12 6.65002C12.0021 6.56442 12.019 6.47983 12.05 6.40002C12.0813 6.32089 12.129 6.2493 12.19 6.19002C12.253 6.12875 12.3279 6.0811 12.41 6.05002C12.4927 6.03502 12.5774 6.03502 12.66 6.05002C12.7428 6.03584 12.8273 6.03584 12.91 6.05002C12.9892 6.08127 13.0607 6.12899 13.12 6.19002L15.4 9.13002C15.4611 9.19144 15.5117 9.26237 15.55 9.34002C15.5642 9.42275 15.5642 9.50729 15.55 9.59002V9.65002H15.59Z" fill="#131313"/>
</svg>
