<svg width="81" height="60" viewBox="0 0 81 60" fill="none" xmlns="http://www.w3.org/2000/svg">
<g clip-path="url(#clip0_74_2156)">
<path fill-rule="evenodd" clip-rule="evenodd" d="M65.2457 30.9168C64.5339 31.4075 63.8221 31.8983 63.1103 32.389L62.9191 31.9644C63.1038 31.0068 62.5671 29.2425 62.2354 28.1862C61.6359 28.1433 61.6027 28.0528 60.7752 28.333L60.9664 28.7576C60.7043 30.1206 62.2135 32.5255 61.398 33.6708C61.1162 34.1297 60.2402 34.6304 59.6857 34.9526L59.5901 34.7403L59.3786 34.8355C59.2886 33.4137 58.944 31.6477 58.1966 30.5156L57.1391 30.9918L57.2347 31.2041L57.0232 31.2993L57.9937 35.7145L56.7247 36.2859C54.6637 36.0392 51.0782 38.7613 49.0555 38.4623C48.6855 38.2333 48.4469 37.6932 48.1748 37.0713C48.3315 36.3459 47.9932 35.5117 47.5461 34.5452C47.1497 34.5695 46.7602 34.6587 46.393 34.8091L46.4886 35.0214L46.2771 35.1166C46.6243 36.1138 47.1609 37.9941 46.9608 38.8948C46.7125 39.2982 46.0263 39.5878 45.3643 39.869C44.7426 38.4798 44.794 37.7618 44.3532 36.4936C43.8038 36.4548 43.8287 36.3636 43.1045 36.5452C43.039 37.7239 43.3867 39.3039 43.6723 40.6309L41.7688 41.488C41.3919 40.3042 41.3306 39.459 40.7577 38.1127C40.3264 38.1457 40.5339 38.1642 40.2391 38.0908C39.9284 38.3918 40.0521 38.2243 39.9117 38.4936C39.4701 39.3733 39.9136 41.0051 40.2883 42.1547C38.066 43.175 36.2143 44.4343 34.1547 44.9166C32.8642 43.9625 31.5225 42.2433 30.5911 40.3921L31.0141 40.2017C32.338 38.1511 35.6705 37.4997 37.9387 35.8067C45.6002 30.0881 56.3547 29.9736 61.1896 23.0388C62.4709 21.2011 64.1762 19.0601 63.3163 16.4629C63.336 15.7875 62.4676 15.1578 61.9372 14.5301C60.3622 14.4221 58.6725 13.9658 56.9626 14.2163C49.9744 15.2398 45.9917 21.5027 42.9366 24.8734C40.614 27.4359 37.7328 29.0272 34.9893 31.5165C32.9935 33.3274 30.76 35.5053 28.0241 36.9512L27.9285 36.7389L27.717 36.8341C26.9436 35.2747 26.1284 34.3919 25.2862 32.5657C26.742 30.742 28.3733 29.0665 30.1567 27.5635C30.8505 28.3936 32.0406 29.1453 33.1119 29.042C33.1529 28.441 33.2431 28.408 32.9612 27.5775C32.2613 27.3299 31.6345 26.9095 31.1389 26.3551L32.7556 24.861C33.5243 25.7989 34.8586 26.8366 36.2294 26.3613C36.1856 25.8881 36.0632 25.4253 35.8672 24.9921C35.0417 24.7657 34.3008 24.2996 33.7378 23.6526L33.9493 23.5573C34.1558 23.0557 34.6354 22.6411 34.8359 22.1366L35.0474 22.0414L35.143 22.2537C36.3395 22.7043 37.4662 23.6794 38.5965 24.2739C38.9072 23.9729 38.7834 24.1405 38.9239 23.8711C39.3173 23.3206 39.1905 23.4306 38.8689 22.619C38.2669 22.4189 36.0718 21.1659 36.2411 20.7377C37.0837 18.7081 39.8256 16.2239 41.3636 14.6005C41.8473 14.09 42.8927 13.2848 43.0759 13.3187C44.2757 13.8569 44.9257 15.3332 46.5497 14.819L46.4744 14.0868C46.2461 13.3624 44.9932 12.864 44.2696 12.0151L45.1156 11.6341C45.372 11.1867 46.3231 10.7329 46.5005 10.7552C47.6336 11.2496 48.636 12.8216 49.954 12.7754L50.0497 12.9877C50.3579 13.1017 50.1644 12.6845 50.1655 12.6801C50.7042 12.125 50.6079 12.3852 50.4176 11.5451C49.5412 11.157 48.8047 10.5077 48.3084 9.6857C48.7449 9.27208 49.517 8.87615 50.3279 8.52101C51.2034 9.59366 53.1724 11.4028 54.7027 10.8925C54.6589 10.4193 54.5365 9.95647 54.3406 9.52329C53.5322 9.22333 52.8074 8.56467 52.1155 7.97144L53.8075 7.20955C54.1653 7.27242 54.4148 7.16442 54.9606 6.94569C55.8854 8.15654 58.4082 10.3203 60.0453 9.76368C60.0199 9.36625 59.9299 8.97548 59.7788 8.60681C59.0869 8.35425 57.3207 7.14991 57.3625 6.6303L57.2669 6.41798L57.4784 6.32274C58.7733 6.61154 60.2342 5.99353 61.6476 5.97768L65.8921 6.36483C65.6352 7.82074 64.4425 8.85144 64.9997 10.5973C65.396 10.573 65.7855 10.4839 66.1528 10.3335C66.3254 9.23094 67.0424 7.78953 67.6392 6.85505C68.3214 7.60794 69.8687 8.43812 70.7856 8.75817L71.168 9.60748L67.9752 11.5559C67.938 12.1067 67.8468 12.0816 68.0302 12.808C68.6659 12.8538 68.8015 12.9204 69.702 12.566C70.1258 11.9012 71.4865 11.1736 72.1647 10.691L72.3559 11.1156C73.4939 11.818 73.5296 14.4505 73.5379 15.4355C72.0243 15.4072 70.8231 14.9919 69.0616 15.6635C69.087 16.0609 69.1771 16.4517 69.3282 16.8204C70.4833 16.7911 72.6667 16.5299 73.4568 17.5151C72.8244 18.5269 72.942 19.7899 72.3934 20.8031C71.5682 22.3239 70.8265 23.8461 69.8293 25.2776L68.8732 23.1543C68.9531 22.6867 68.6302 22.0124 68.3198 21.3605C67.9235 21.3848 67.534 21.4739 67.1667 21.6243L67.242 22.3565C67.0644 23.7977 68.632 25.7761 68.4038 27.1963C68.0976 27.9491 67.275 28.7351 66.5553 29.3056L66.1728 28.4563C66.3746 27.492 65.9256 26.2074 65.3732 24.9857C64.9769 25.01 64.5874 25.0991 64.2201 25.2495L64.2954 25.9817C64.088 27.2458 64.8338 29.5817 65.2457 30.9168ZM32.3295 35.7787C39.8958 31.2705 44.2488 24.448 50.1133 19.3435C53.0277 16.8066 58.577 14.8329 61.1462 16.1632C61.6415 16.4269 61.8548 16.6917 61.8358 17.1296C62.3787 20.75 58.9125 23.6579 55.8817 25.9396L52.9207 27.2729C51.3655 28.3624 48.31 28.9177 46.3843 29.7054C41.4051 31.7419 37.019 34.3632 33.019 36.7451C32.7383 36.4626 32.5054 36.1362 32.3295 35.7787ZM60.2393 18.1038C59.5952 17.7924 59.8091 17.5291 59.3383 17.2326C58.8004 16.9799 58.8745 17.0155 58.0896 17.2841C57.7898 18.0629 57.3028 17.6701 56.8003 18.3755C56.7439 18.7022 56.7975 18.806 56.9712 19.32C57.6614 19.6778 57.4265 19.6109 57.7563 20.4987C58.3058 20.5376 58.281 20.6289 59.0051 20.4472C59.3482 19.2319 60.5954 19.7607 60.2393 18.1038ZM57.484 22.1536C57.1747 21.9622 57.059 21.715 56.7944 21.1872C56.3981 21.2116 56.0086 21.3007 55.6413 21.4511C55.3878 22.2351 55.1741 22.0519 54.2564 22.3301C54.257 22.6117 54.211 22.8913 54.1202 23.1575C54.4267 23.541 55.1635 24.5142 55.6152 24.7828C55.9412 24.8402 56.0446 24.7868 56.5568 24.6141C56.8156 23.5851 57.1778 24.143 57.7505 23.3105C57.8122 22.952 57.7037 22.7016 57.484 22.1536ZM55.5312 18.9469C54.6878 18.6285 55.094 17.6968 53.593 18.032C53.3395 18.816 53.1258 18.6328 52.208 18.911C52.167 19.512 52.0768 19.5449 52.3587 20.3754C53.2021 20.6938 52.7958 21.6253 54.297 21.2903C54.5709 20.222 55.0599 20.817 55.7022 19.8914C55.7586 19.5649 55.7049 19.4609 55.5312 18.9469ZM52.8715 23.2091C51.9781 22.8692 52.4093 21.8325 50.7217 22.3894C50.4575 23.1259 50.4634 22.8694 49.5483 23.1732C49.5111 23.7239 49.4201 23.6987 49.6033 24.4253C50.5759 24.8301 50.0332 25.9121 51.6372 25.5525C51.9803 24.3371 53.2276 24.866 52.8715 23.2091ZM49.0238 25.9631C48.3572 25.6437 48.4186 25.3873 47.9316 24.6673C47.5003 24.7004 47.7077 24.7188 47.4129 24.6454C47.0302 24.9519 45.8705 25.7654 45.5847 26.2348C45.5283 26.5615 45.582 26.6653 45.7557 27.1793C46.4319 27.4433 46.0618 27.792 46.7523 28.2628C47.0784 28.3203 47.1818 28.2668 47.6939 28.0942C47.9302 27.346 48.5551 27.2355 49.1947 26.9076L49.0238 25.9631ZM9.76228 52.3248C9.07971 50.9148 8.57929 49.4237 8.27314 47.8878C8.49292 47.6542 8.74574 47.4544 9.02354 47.2945C10.2426 47.6103 12.2985 47.4622 13.7114 46.9713C13.6675 46.4981 13.5451 46.0353 13.3492 45.6021L8.87291 45.8301L8.7773 45.6177L8.9888 45.5225C9.56848 42.031 16.918 36.2572 22.0731 35.034C24.3592 39.4015 29.8085 43.7122 31.0169 48.1171C29.6906 48.9789 28.9109 50.3048 27.879 51.3177C24.7733 54.3669 20.9354 56.1137 16.6491 56.8851L16.5535 56.6728L16.765 56.5775C17.0345 55.0118 18.2641 53.8827 17.7733 52.0375C17.5532 52.0087 17.3428 51.9284 17.1591 51.8033C16.8484 52.1043 16.9722 51.9367 16.8317 52.2061C15.5199 53.4786 16.11 55.4094 14.7861 56.7024L14.6905 56.4901C13.7143 56.3288 10.7713 54.6712 10.8545 53.6206C11.5527 52.5158 13.7286 51.3596 14.8181 50.559C14.8075 50.2376 14.7499 49.9194 14.6471 49.6144C14.0114 49.5687 13.8759 49.5021 12.9754 49.8564C12.4675 50.7187 10.7194 51.7472 9.76228 52.3248ZM24.8805 42.9635C23.7595 42.5428 24.1704 41.6085 22.5192 42.2391C22.423 42.9819 21.8366 43.0287 21.2299 43.3304C21.2641 43.763 21.2819 43.555 21.2096 43.8503C21.8084 44.6022 22.5348 45.6013 23.6462 45.3069C23.836 44.5319 24.7436 44.251 24.8602 43.4834C24.9318 43.1904 24.9091 43.3914 24.8805 42.9635ZM25.3121 47.8767C25.0301 47.7024 24.9879 47.5934 24.7182 47.1226C24.1687 47.0838 24.1936 46.9926 23.4694 47.1742C23.1992 47.9581 22.5528 47.8282 22.1801 48.2655C21.9432 48.7726 21.9694 48.5856 22.1395 49.3053C22.7096 49.4978 22.9242 50.1755 23.4433 50.5058C23.7694 50.5633 23.8727 50.5099 24.3849 50.3372C24.5219 49.3986 24.8775 49.5268 25.7901 48.9384L25.3121 47.8767ZM19.987 40.5702C19.0193 40.2339 19.2979 39.5398 17.9328 39.9629C17.674 40.9919 17.3118 40.434 16.7391 41.2665C16.6774 41.625 16.7859 41.8755 17.0056 42.4234C17.6489 42.504 17.6094 42.8982 18.1182 43.1993C18.4443 43.2568 18.5476 43.2034 19.0598 43.0307C19.227 42.2659 19.7552 42.1797 20.1579 41.5147C20.2144 41.1882 20.1607 41.0842 19.987 40.5702ZM20.1868 46.0985C19.3205 45.7914 19.7719 44.8522 18.1326 45.4912C17.9427 46.0632 17.267 46.2753 16.9389 46.7948C16.8825 47.0943 16.9025 47.0528 17.0143 47.5271C17.9579 47.8606 17.5044 48.1874 18.318 48.7276C18.6441 48.7851 18.7475 48.7317 19.2597 48.559C19.454 47.6349 19.8188 47.6642 20.6649 47.1601L20.1868 46.0985Z" fill="#333333"/>
</g>
<defs>
<clipPath id="clip0_74_2156">
<rect width="31.2395" height="74.4942" fill="white" transform="translate(67.9668 0.450195) rotate(65.7587)"/>
</clipPath>
</defs>
</svg>
