<svg width="20" height="35" viewBox="0 0 20 35" fill="none" xmlns="http://www.w3.org/2000/svg">
<g clip-path="url(#clip0_9_107)">
<path fill-rule="evenodd" clip-rule="evenodd" d="M0.379016 16.38C0.941812 16.114 1.55655 15.9762 2.17902 15.9762C2.80149 15.9762 3.41622 16.114 3.97901 16.38L19.619 32.02C20.151 32.55 18.47 33.41 17.939 33.94C17.6835 34.1946 17.3376 34.3375 16.977 34.3375C16.6164 34.3375 16.2705 34.1946 16.015 33.94L0.375018 18.3C0.248895 18.1739 0.14892 18.024 0.0808364 17.8591C0.0127528 17.6942 -0.0220972 17.5176 -0.0217256 17.3392C-0.0213539 17.1608 0.0142331 16.9843 0.0830031 16.8197C0.151773 16.6551 0.252369 16.5056 0.379016 16.38Z" fill="#131313"/>
<path fill-rule="evenodd" clip-rule="evenodd" d="M0.379016 17.93C0.943141 18.1912 1.55736 18.3265 2.17902 18.3265C2.80068 18.3265 3.41489 18.1912 3.97901 17.93L19.619 2.29001C20.151 1.76001 18.47 0.899965 17.939 0.369965C17.8137 0.241759 17.6641 0.139956 17.4989 0.0704041C17.3337 0.000852033 17.1563 -0.0350647 16.977 -0.0350647C16.7978 -0.0350647 16.6203 0.000852033 16.4551 0.0704041C16.2899 0.139956 16.1403 0.241759 16.015 0.369965L0.375018 16.01C0.248895 16.1361 0.14892 16.286 0.0808364 16.4509C0.0127528 16.6158 -0.0220972 16.7924 -0.0217256 16.9708C-0.0213539 17.1492 0.0142331 17.3257 0.0830031 17.4903C0.151773 17.6549 0.252369 17.8044 0.379016 17.93Z" fill="#131313"/>
</g>
<defs>
<clipPath id="clip0_9_107">
<rect width="19.719" height="34.35" fill="white"/>
</clipPath>
</defs>
</svg>
