<svg width="19" height="18" viewBox="0 0 19 18" fill="none" xmlns="http://www.w3.org/2000/svg">
<g clip-path="url(#clip0_996_1926)">
<path d="M15.1071 0H4.45191C2.34979 0 0.646484 1.67925 0.646484 3.75V14.25C0.646484 16.3207 2.34979 18 4.45191 18H15.1071C17.2092 18 18.9125 16.3207 18.9125 14.25V3.75C18.9125 1.67925 17.2092 0 15.1071 0ZM17.3904 14.25C17.3904 15.2265 16.7518 16.0508 15.8682 16.362V14.25H15.1071V16.5H13.5849V14.25H12.8239V16.5H11.3017V14.25H10.5406V16.5H9.01843V14.25H8.25734V16.5H6.73517V14.25H5.97408V16.5H4.45191V14.25H3.69083V16.3612C2.80721 16.0508 2.16866 15.2265 2.16866 14.25V3.75C2.16866 2.7735 2.80721 1.94925 3.69083 1.638V3.75H4.45191V1.5H5.97408V6H6.73517V1.5H8.25734V3.75H9.01843V1.5H10.5406V3.75H11.3017V1.5H12.8239V6H13.5849V1.5H15.1071V3.75H15.8682V1.638C16.7518 1.94925 17.3904 2.7735 17.3904 3.75V14.25ZM6.62786 7.5H7.49625V12H6.46574V9.08325H5.33325V8.33325C6.0129 8.3025 6.62786 8.1825 6.62786 7.5ZM12.9563 11.0002H14.346V11.9797H11.361V11.2613C12.5247 10.143 13.1717 9.57825 13.1793 8.99775C13.1793 8.65125 12.9753 8.46 12.6054 8.46C12.2607 8.46 11.9844 8.64375 11.7165 8.853L11.3938 7.992C11.8086 7.653 12.3002 7.5 12.7888 7.5C13.6862 7.5 14.2661 8.055 14.2661 8.91375C14.2669 9.78 13.5819 10.446 12.9563 11.0002Z" fill="black"/>
</g>
<defs>
<clipPath id="clip0_996_1926">
<rect width="18.2661" height="18" fill="white" transform="translate(0.646484)"/>
</clipPath>
</defs>
</svg>
