<svg aria-hidden="true" style="position: absolute; width: 0; height: 0; overflow: hidden;" version="1.1" xmlns="http://www.w3.org/2000/svg" xmlns:xlink="http://www.w3.org/1999/xlink">
	<title>telegram</title>
	<path  d="M20.714 25.522c0 0-2.925 2.761-4.816 4.548-0.336 0.317-0.814 0.439-1.263 0.322s-0.791-0.46-0.939-0.896c-1.178-3.47-3.437-10.294-3.437-10.294s-4.835-1.533-8.519-2.635c-0.533-0.159-0.904-0.637-0.922-1.188s0.321-1.051 0.843-1.244c8.214-3.040 28.308-10.579 34.833-12.994 0.423-0.156 0.898-0.073 1.24 0.218s0.497 0.743 0.404 1.18c-1.23 5.78-4.511 21.866-5.864 28.22-0.127 0.597-0.551 1.089-1.127 1.308s-1.221 0.13-1.722-0.226c-3.153-2.245-8.712-6.32-8.712-6.32zM12.293 18.34l2.613 8.618 0.581-5.458c0 0 10.094-9.104 15.848-14.294 0.168-0.152 0.191-0.407 0.052-0.586s-0.394-0.222-0.586-0.1c-6.668 4.259-18.509 11.82-18.509 11.82z"></path>

</svg>