<svg width="15" height="17" viewBox="0 0 15 17" fill="none" xmlns="http://www.w3.org/2000/svg">
<path d="M12.686 3.93988C12.5784 3.88428 12.4737 3.82334 12.3722 3.75727C12.0772 3.56218 11.8066 3.33232 11.5664 3.07262C10.9654 2.38498 10.741 1.68738 10.6583 1.19896H10.6616C10.5926 0.793555 10.6211 0.53125 10.6254 0.53125H7.88817V11.1157C7.88817 11.2579 7.88817 11.3983 7.88219 11.5371C7.88219 11.5544 7.88053 11.5703 7.87953 11.5889C7.87953 11.5965 7.87953 11.6045 7.87787 11.6125C7.87787 11.6145 7.87787 11.6164 7.87787 11.6184C7.84902 11.9982 7.72728 12.3651 7.52337 12.6867C7.31945 13.0084 7.03961 13.2751 6.70846 13.4632C6.36333 13.6596 5.97298 13.7625 5.5759 13.762C4.30057 13.762 3.26696 12.7221 3.26696 11.4378C3.26696 10.1535 4.30057 9.11359 5.5759 9.11359C5.81732 9.11337 6.05724 9.15136 6.28678 9.22615L6.2901 6.43908C5.59329 6.34907 4.88538 6.40445 4.21104 6.60172C3.53671 6.799 2.91057 7.13388 2.37213 7.58525C1.90034 7.99518 1.5037 8.48429 1.20006 9.03059C1.08451 9.2298 0.648558 10.0303 0.595765 11.3296C0.562562 12.067 0.784026 12.831 0.889612 13.1468V13.1534C0.956019 13.3394 1.21334 13.9739 1.6327 14.5088C1.97085 14.9378 2.37037 15.3148 2.81838 15.6274V15.6207L2.82502 15.6274C4.15016 16.5279 5.6194 16.4687 5.6194 16.4687C5.87373 16.4585 6.72573 16.4687 7.69326 16.0102C8.76639 15.5019 9.37733 14.7445 9.37733 14.7445C9.76763 14.292 10.078 13.7763 10.2951 13.2195C10.5428 12.5684 10.6254 11.7874 10.6254 11.4753V5.86002C10.6586 5.87994 11.1009 6.17246 11.1009 6.17246C11.1009 6.17246 11.7381 6.58086 12.7322 6.84682C13.4454 7.03607 14.4063 7.07592 14.4063 7.07592V4.35857C14.0696 4.3951 13.3859 4.28885 12.686 3.93988Z" fill="#717171"/>
</svg>
