<svg aria-hidden="true" style="position: absolute; width: 0; height: 0; overflow: hidden;" version="1.1" xmlns="http://www.w3.org/2000/svg" xmlns:xlink="http://www.w3.org/1999/xlink">
	<title>user</title>
	<path d="M16.842 3.643c2.829 0 4.952 2.228 4.952 5.199s-2.122 5.199-4.952 5.199-4.952-2.228-4.952-5.199c0-2.971 2.122-5.199 4.952-5.199s0 0 0 0zM16.842 22.41c10.246 0 14.526 8.368 14.526 9.695h2.316c0-5.968-5.965-12.211-16.842-12.211-10.456 0-16.842 6.242-16.842 12.211h2.316c0-1.326 4.842-9.695 14.526-9.695 6.316 0 0 0 0 0zM8.421 8.842c0 4.863 3.789 8.842 8.421 8.842s8.421-3.979 8.421-8.842c0-4.863-3.79-8.842-8.421-8.842s-8.421 3.979-8.421 8.842z"></path>

</svg>