<svg aria-hidden="true" style="position: absolute; width: 0; height: 0; overflow: hidden;" version="1.1" xmlns="http://www.w3.org/2000/svg" xmlns:xlink="http://www.w3.org/1999/xlink">
	<title>viber</title>
	<path d="M17.205 18.358c-4.214-1.075-5.34-5.34-5.34-5.34s-0.051-0.577 0.334-0.887l0.761-0.605c0.378-0.291 0.618-0.997 0.234-1.687-0.654-1.16-1.585-2.392-2.081-2.904-0.377-0.447-0.93-0.55-1.514-0.246-0.003 0-0.009 0.003-0.012 0.003-0.552 0.313-1.069 0.731-1.551 1.26-0.003 0.006-0.006 0.006-0.009 0.011-0.494 0.592-0.784 1.276-0.546 2.010l0.020 0.014c0.647 2.291 2.981 6.566 6.266 9.157 2.008 1.602 5.158 3.208 6.471 3.579l0.014 0.020c0.731 0.237 1.415-0.050 2.010-0.546 0.006-0.003 0.006-0.006 0.011-0.009 0.529-0.482 0.947-0.999 1.259-1.551 0-0.003 0.003-0.009 0.003-0.012 0.304-0.584 0.201-1.138-0.246-1.515-0.809-0.755-1.99-1.565-2.903-2.081-0.69-0.384-1.396-0.144-1.687 0.234l-0.605 0.761c-0.31 0.384-0.887 0.334-0.887 0.334zM23.834 14.822c0.001 0 0.002 0 0.003 0 0.227-0.002 0.409-0.187 0.407-0.413-0.021-2.7-0.847-4.865-2.455-6.435-1.606-1.565-3.627-2.367-6.008-2.384-0.001 0-0.002 0-0.003 0-0.225 0-0.409 0.182-0.41 0.407s0.181 0.411 0.407 0.413c2.161 0.015 3.992 0.739 5.441 2.151 1.446 1.412 2.189 3.381 2.208 5.854 0.002 0.225 0.185 0.407 0.41 0.407zM21.68 13.98c0.222 0 0.405-0.178 0.41-0.401 0.036-1.601-0.448-2.961-1.439-4.042-0.985-1.078-2.371-1.689-4.119-1.817-0.226-0.016-0.422 0.153-0.439 0.379s0.153 0.422 0.379 0.439c1.554 0.114 2.723 0.622 3.574 1.553 0.855 0.933 1.256 2.068 1.224 3.47-0.005 0.226 0.174 0.414 0.401 0.419 0.003 0 0.006 0 0.009 0zM19.575 13.274c0.007 0 0.014 0 0.021-0 0.226-0.011 0.4-0.204 0.389-0.43-0.091-1.818-1.072-2.829-2.839-2.924-0.227-0.012-0.42 0.161-0.432 0.388s0.161 0.419 0.387 0.432c1.339 0.072 1.994 0.754 2.064 2.145 0.011 0.219 0.192 0.39 0.409 0.39zM22.259 25.252c-0.378 0.121-3.893 0.996-8.312 0.707 0 0-3.293 3.973-4.321 5.006-0.161 0.162-0.35 0.227-0.476 0.196-0.177-0.043-0.226-0.253-0.224-0.559 0.003-0.438 0.028-5.426 0.028-5.426-0.004-0.001-0.004-0.001-0.003-0.001-6.432-1.788-6.057-8.505-5.985-12.022s0.734-6.399 2.697-8.337c3.527-3.194 10.791-2.717 10.791-2.717 6.135 0.027 9.075 1.874 9.757 2.493 2.263 1.938 3.417 6.575 2.573 13.369-0.818 6.589-5.637 7.005-6.526 7.291zM8.952 25.175c0 0 0.001 0 0.001 0s-0.001-0-0.001-0zM16.589-0.19c0 0-8.553-0.516-12.723 3.309-2.321 2.321-3.137 5.716-3.223 9.929s-0.198 12.103 7.41 14.244c0.002 0.001 0.005 0.001 0.007 0.002l-0.005 3.265c0 0-0.048 1.322 0.822 1.592 1.053 0.327 1.671-0.678 2.676-1.761 0.552-0.594 1.313-1.468 1.888-2.136 5.203 0.436 9.205-0.563 9.659-0.711 1.051-0.342 6.995-1.102 7.962-8.994 0.997-8.136-0.484-13.281-3.159-15.602-0.806-0.741-4.062-3.105-11.315-3.137z"></path>

</svg>