<svg aria-hidden="true" style="position: absolute; width: 0; height: 0; overflow: hidden;" version="1.1" xmlns="http://www.w3.org/2000/svg" xmlns:xlink="http://www.w3.org/1999/xlink">
	<title>vk</title>
	<path  d="M48.98 21.848c-3.727-3.46-3.901-3.541-0.692-7.705 3.984-5.168 9.191-11.791 4.584-11.791-0.902 0-0.259 0-8.8 0-1.707 0-1.83 0.961-2.437 2.393-2.198 5.187-6.378 11.906-7.967 10.879-1.661-1.073-0.9-5.317-0.772-11.627 0.033-1.666 0.024-2.81-2.522-3.402-1.39-0.323-2.742-0.454-3.997-0.454-5.025 0-8.488 2.107-6.52 2.474 3.472 0.647 3.139 8.16 2.329 11.405-1.409 5.648-6.709-4.474-8.918-9.514-0.532-1.213-0.694-2.154-2.596-2.154-1.042 0-5.647 0-7.194 0-1.086 0-1.738 0.354-1.738 1.14 0 1.33 6.543 14.852 12.787 21.592 6.092 6.575 12.113 5.985 16.302 5.985 1.346 0 1.897-0.898 1.88-2.022-0.069-4.237 1.579-6.517 4.551-3.544 3.289 3.289 3.97 5.566 7.962 5.566 1.519 0 5.599 0 7.073 0 1.786 0 2.489-0.575 2.489-1.477 0-1.907-3.141-5.274-5.803-7.744z"></path>

</svg>