<svg aria-hidden="true" style="position: absolute; width: 0; height: 0; overflow: hidden;" version="1.1" xmlns="http://www.w3.org/2000/svg" xmlns:xlink="http://www.w3.org/1999/xlink">
	<title>wall-clock2</title>
	<path d="M16.008 27.384c-6.284-0.004-11.377-5.099-11.377-11.384 0-6.287 5.097-11.383 11.384-11.383s11.383 5.097 11.383 11.383v0c-0.019 6.281-5.108 11.368-11.388 11.383h-0.001zM16.008 0.006c-8.83 0-15.987 7.158-15.987 15.987s7.158 15.987 15.987 15.987c8.83 0 15.987-7.158 15.987-15.987v0c-0.025-8.82-7.168-15.963-15.985-15.987h-0.002zM17.074 8.7h-2.675v10.658l6.917 3.358 1.421-2.299-5.664-2.47v-9.241z"></path>

</svg>