<svg aria-hidden="true" style="position: absolute; width: 0; height: 0; overflow: hidden;" version="1.1" xmlns="http://www.w3.org/2000/svg" xmlns:xlink="http://www.w3.org/1999/xlink">
	<title>wall-clock</title>
	<path d="M16 0c-8.822 0-16 7.178-16 16s7.178 16 16 16c8.823 0 16-7.178 16-16s-7.177-16-16-16zM16 29.364c-7.369 0-13.364-5.995-13.364-13.364s5.995-13.364 13.364-13.364 13.363 5.995 13.363 13.364c0 7.369-5.995 13.364-13.363 13.364z"></path>
	<path d="M17.318 15.476v-9.061c0-0.728-0.59-1.318-1.318-1.318s-1.318 0.59-1.318 1.318v9.585c0 0.409 0.19 0.77 0.482 1.012 0.012 0.015 0.021 0.032 0.034 0.046l4.943 5.613c0.261 0.295 0.624 0.447 0.99 0.447 0.309 0 0.62-0.108 0.87-0.329 0.546-0.481 0.599-1.314 0.118-1.861l-4.801-5.451z"></path>

</svg>