<svg width="21" height="21" viewBox="0 0 21 21" fill="none" xmlns="http://www.w3.org/2000/svg">
<path d="M17.2757 3.72454L15.9197 5.08058C17.3093 6.46538 18.167 8.38204 18.167 10.5C18.167 14.7358 14.7362 18.1666 10.5003 18.1666C6.26449 18.1666 2.83366 14.7358 2.83366 10.5C2.83366 6.58996 5.76137 3.36996 9.54199 2.90038V4.83621C6.82512 5.29142 4.75033 7.65371 4.75033 10.5C4.75033 13.6768 7.32345 16.25 10.5003 16.25C13.6772 16.25 16.2503 13.6768 16.2503 10.5C16.2503 8.91392 15.6082 7.47642 14.5685 6.43183L13.2124 7.78788C13.9024 8.48267 14.3337 9.441 14.3337 10.5C14.3337 12.6179 12.6182 14.3333 10.5003 14.3333C8.38241 14.3333 6.66699 12.6179 6.66699 10.5C6.66699 8.71746 7.89366 7.22725 9.54199 6.80079V8.84683C8.97178 9.17746 8.58366 9.79079 8.58366 10.5C8.58366 11.5589 9.44137 12.4166 10.5003 12.4166C11.5593 12.4166 12.417 11.5589 12.417 10.5C12.417 9.79079 12.0289 9.18225 11.4587 8.84683V0.916626H10.5003C5.20553 0.916626 0.916992 5.20517 0.916992 10.5C0.916992 15.79 5.20553 20.0833 10.5003 20.0833C15.7903 20.0833 20.0837 15.79 20.0837 10.5C20.0837 7.85496 19.0103 5.45913 17.2757 3.72454Z" fill="#231F20"/>
</svg>
