<svg aria-hidden="true" style="position: absolute; width: 0; height: 0; overflow: hidden;" version="1.1" xmlns="http://www.w3.org/2000/svg" xmlns:xlink="http://www.w3.org/1999/xlink">
<title>whatsapp</title>
	<path d="M24.396 19.231c-0.098-0.163-0.359-0.261-0.75-0.457s-2.317-1.143-2.675-1.274c-0.359-0.131-0.62-0.196-0.881 0.196s-1.011 1.274-1.24 1.535c-0.228 0.261-0.457 0.294-0.848 0.098s-1.653-0.609-3.149-1.943c-1.164-1.038-1.95-2.32-2.178-2.712s-0.024-0.604 0.172-0.799c0.176-0.176 0.392-0.457 0.587-0.686s0.261-0.392 0.392-0.653 0.065-0.49-0.033-0.686c-0.098-0.196-0.881-2.123-1.207-2.908-0.318-0.763-0.64-0.66-0.881-0.672-0.228-0.011-0.489-0.014-0.751-0.014s-0.685 0.098-1.044 0.49-1.37 1.339-1.37 3.267c0 1.927 1.403 3.789 1.599 4.050s2.761 4.216 6.689 5.912c0.934 0.403 1.663 0.644 2.232 0.825 0.938 0.298 1.791 0.256 2.466 0.155 0.752-0.112 2.317-0.947 2.643-1.862s0.326-1.699 0.228-1.862zM4.461 27.724l1.316-4.806c-1.443-2.297-2.302-4.493-2.301-7.424 0.003-7.181 5.846-13.024 13.030-13.024 7.202 0.002 13.022 5.837 13.019 13.034-0.003 7.182-5.851 13.025-13.030 13.025-2.788-0.001-4.896-0.787-7.105-2.098zM9.006 29.268c2.289 1.248 4.872 1.906 7.495 1.907 8.636 0 15.667-7.030 15.67-15.67 0.002-4.187-1.627-8.124-4.585-11.086s-6.893-4.594-11.085-4.596c-8.637 0-15.667 7.029-15.67 15.669-0.001 2.762 0.72 5.458 2.092 7.834l-2.223 8.12z"></path>
</svg>