<svg width="27" height="27" viewBox="0 0 27 27" fill="none" xmlns="http://www.w3.org/2000/svg">
<g clip-path="url(#clip0_1_18902)">
<path fill-rule="evenodd" clip-rule="evenodd" d="M20.1698 17.7769H18.8859L18.3997 17.2919C20.067 15.427 20.986 13.0113 20.98 10.5095C20.98 8.43324 20.3645 6.4036 19.2112 4.67725C18.0579 2.9509 16.4186 1.60537 14.5008 0.810818C12.5829 0.016266 10.4725 -0.191623 8.43652 0.213436C6.40053 0.618495 4.53037 1.61831 3.0625 3.08646C1.59463 4.5546 0.594912 6.42512 0.189928 8.46149C-0.215057 10.4979 -0.00707712 12.6086 0.787328 14.5268C1.58173 16.4451 2.9269 18.0846 4.65293 19.2381C6.37897 20.3916 8.40833 21.0073 10.4842 21.0073C12.9867 21.0161 15.4032 20.095 17.2653 18.4227L17.7515 18.9065V20.1981L24.5575 27.0067L26.9759 24.5843L20.1698 17.7769ZM10.4842 17.9515C9.012 17.9517 7.57271 17.5153 6.34851 16.6974C5.12431 15.8795 4.17015 14.7168 3.60665 13.3565C3.04314 11.9961 2.89571 10.4992 3.18287 9.05498C3.47002 7.61078 4.17889 6.28419 5.2199 5.24299C6.26091 4.20179 7.58725 3.49275 9.03118 3.20555C10.4751 2.91834 11.9717 3.06587 13.3318 3.62948C14.6919 4.19308 15.8544 5.14745 16.6722 6.37188C17.4899 7.5963 17.9262 9.03578 17.926 10.5083C17.9305 11.487 17.741 12.4569 17.3686 13.3619C16.9962 14.267 16.4482 15.0893 15.7563 15.7813C15.0643 16.4734 14.2422 17.0215 13.3373 17.394C12.4324 17.7664 11.4627 17.9559 10.4842 17.9515Z" fill="white"/>
<rect x="9" y="5.72656" width="3.27273" height="9.81818" fill="white"/>
<rect x="5.72656" y="12.2734" width="3.27273" height="9.81818" transform="rotate(-90 5.72656 12.2734)" fill="white"/>
</g>
<defs>
<clipPath id="clip0_1_18902">
<rect width="27" height="27" fill="white"/>
</clipPath>
</defs>
</svg>
