<svg width="7" height="12" viewBox="0 0 7 12" fill="none" xmlns="http://www.w3.org/2000/svg">
<g clip-path="url(#clip0_192_168)">
<path fill-rule="evenodd" clip-rule="evenodd" d="M0.134447 5.7231C0.334232 5.63019 0.552457 5.58203 0.773426 5.58203C0.994394 5.58203 1.21262 5.63019 1.4124 5.7231L6.96441 11.1869C7.15326 11.372 6.55653 11.6725 6.36803 11.8576C6.27734 11.9465 6.15455 11.9965 6.02653 11.9965C5.89852 11.9965 5.77572 11.9465 5.68503 11.8576L0.133028 6.39386C0.0882557 6.34979 0.0527656 6.29743 0.0285968 6.23983C0.00442792 6.18222 -0.00794338 6.12052 -0.00781146 6.0582C-0.00767953 5.99588 0.00495342 5.93421 0.0293659 5.87671C0.0537785 5.8192 0.0894886 5.76699 0.134447 5.7231Z" fill="#131313" fill-opacity="0.4"/>
<path fill-rule="evenodd" clip-rule="evenodd" d="M0.134447 6.26429C0.334704 6.35554 0.552743 6.4028 0.773426 6.4028C0.994108 6.4028 1.21214 6.35554 1.4124 6.26429L6.96441 0.800534C7.15326 0.615381 6.55653 0.314929 6.36803 0.129776C6.32356 0.0849883 6.27044 0.0494239 6.2118 0.0251262C6.15315 0.000828579 6.09016 -0.0117188 6.02653 -0.0117188C5.9629 -0.0117188 5.89991 0.000828579 5.84127 0.0251262C5.78262 0.0494239 5.7295 0.0849883 5.68503 0.129776L0.133028 5.59354C0.0882557 5.63761 0.0527656 5.68997 0.0285968 5.74757C0.00442792 5.80517 -0.00794338 5.86687 -0.00781146 5.92919C-0.00767953 5.99151 0.00495342 6.05319 0.0293659 6.11069C0.0537785 6.16819 0.0894886 6.22041 0.134447 6.26429Z" fill="#131313" fill-opacity="0.4"/>
</g>
<defs>
<clipPath id="clip0_192_168">
<rect width="7" height="12" fill="white"/>
</clipPath>
</defs>
</svg>
