<svg width="7" height="12" viewBox="0 0 7 12" fill="none" xmlns="http://www.w3.org/2000/svg">
<g clip-path="url(#clip0_192_171)">
<path fill-rule="evenodd" clip-rule="evenodd" d="M6.86555 5.7231C6.66577 5.63019 6.44754 5.58203 6.22657 5.58203C6.00561 5.58203 5.78738 5.63019 5.5876 5.7231L0.0355916 11.1869C-0.153262 11.372 0.443473 11.6725 0.631971 11.8576C0.722658 11.9465 0.845454 11.9965 0.973468 11.9965C1.10148 11.9965 1.22428 11.9465 1.31497 11.8576L6.86697 6.39386C6.91174 6.34979 6.94723 6.29743 6.9714 6.23983C6.99557 6.18222 7.00794 6.12052 7.00781 6.0582C7.00768 5.99588 6.99505 5.93421 6.97063 5.87671C6.94622 5.8192 6.91051 5.76699 6.86555 5.7231Z" fill="#131313" fill-opacity="0.4"/>
<path fill-rule="evenodd" clip-rule="evenodd" d="M6.86555 6.26429C6.6653 6.35554 6.44726 6.4028 6.22657 6.4028C6.00589 6.4028 5.78786 6.35554 5.5876 6.26429L0.0355916 0.800534C-0.153262 0.615381 0.443473 0.314929 0.631971 0.129776C0.676441 0.0849883 0.729559 0.0494239 0.788204 0.0251262C0.846849 0.000828579 0.909838 -0.0117188 0.973468 -0.0117188C1.0371 -0.0117188 1.10009 0.000828579 1.15873 0.0251262C1.21738 0.0494239 1.2705 0.0849883 1.31497 0.129776L6.86697 5.59354C6.91174 5.63761 6.94723 5.68997 6.9714 5.74757C6.99557 5.80517 7.00794 5.86687 7.00781 5.92919C7.00768 5.99151 6.99505 6.05319 6.97063 6.11069C6.94622 6.16819 6.91051 6.22041 6.86555 6.26429Z" fill="#131313" fill-opacity="0.4"/>
</g>
<defs>
<clipPath id="clip0_192_171">
<rect width="7" height="12" fill="white" transform="matrix(-1 0 0 1 7 0)"/>
</clipPath>
</defs>
</svg>
