<?xml version="1.0" encoding="UTF-8"?>
<svg id="SVGDoc" width="24" height="21" xmlns="http://www.w3.org/2000/svg" version="1.1" xmlns:xlink="http://www.w3.org/1999/xlink" xmlns:avocode="https://avocode.com/" viewBox="0 0 24 21"><defs></defs><desc>Generated with Avocode.</desc><g><g><title>ico_arrow</title><g><title>Rounded Rectangle 4</title><path d="M1.62496,9.28117h20.68748c0.55229,0 0.99998,0.44776 0.99998,1.00001v0.43751c0,0.55225 -0.44769,1.00001 -0.99998,1.00001h-20.68748c-0.55229,0 -0.99998,-0.44776 -0.99998,-1.00001v-0.43751c0,-0.55225 0.44769,-1.00001 0.99998,-1.00001z" fill="#131313" fill-opacity="1"></path></g><g><title>Rounded Rectangle 5</title><path d="M0.5697,10.04034c0.31631,-0.31643 1.82922,-0.31643 2.14554,0l9.30954,9.30946c0.31643,0.31643 -0.68367,0.8292 -0.99998,1.14552c-0.31631,0.31632 -0.82912,0.31632 -1.14544,0l-9.30965,-9.30957c-0.31631,-0.31632 -0.31631,-0.8292 0,-1.14541z" fill="#131313" fill-opacity="1"></path></g><g><title>Rounded Rectangle 5 copy</title><path d="M0.5697,10.96531c0.31631,0.31643 1.82922,0.31643 2.14554,0l9.30954,-9.30957c0.31643,-0.31632 -0.68367,-0.82909 -0.99998,-1.14552c-0.31631,-0.31632 -0.82912,-0.31632 -1.14544,0l-9.30965,9.30968c-0.31631,0.31621 -0.31631,0.8292 0,1.14541z" fill="#131313" fill-opacity="1"></path></g></g></g></svg>