<?xml version="1.0" encoding="UTF-8"?>
<svg id="SVGDoc" width="22" height="20" xmlns="http://www.w3.org/2000/svg" version="1.1" xmlns:xlink="http://www.w3.org/1999/xlink" xmlns:avocode="https://avocode.com/" viewBox="0 0 22 20"><defs></defs><desc>Generated with Avocode.</desc><g><g><title>Rounded Rectangle 10 copy 3</title><path d="M1.5,0.65623h18.25c0.82842,0 1.5,0.67152 1.5,1.49995v0.40626c0,0.82844 -0.67158,1.50003 -1.5,1.50003h-18.25c-0.82844,0 -1.5,-0.6716 -1.5,-1.50003v-0.40626c0,-0.82844 0.67156,-1.49995 1.5,-1.49995zM1.5,15.93748h18.25c0.82842,0 1.5,0.67152 1.5,1.49995v0.40626c0,0.82844 -0.67158,1.50003 -1.5,1.50003h-18.25c-0.82844,0 -1.5,-0.6716 -1.5,-1.50003v-0.40626c0,-0.82844 0.67156,-1.49995 1.5,-1.49995zM1.5,8.31246h18.25c0.82842,0 1.5,0.6716 1.5,1.50003v0.37499c0,0.82844 -0.67158,1.49995 -1.5,1.49995h-18.25c-0.82844,0 -1.5,-0.67152 -1.5,-1.49995v-0.37499c0,-0.82844 0.67156,-1.50003 1.5,-1.50003z" fill="#131313" fill-opacity="1"></path></g></g></svg>