<svg width="13" height="10" viewBox="0 0 13 10" fill="none" xmlns="http://www.w3.org/2000/svg">
<g clip-path="url(#clip0_104_411)">
<path fill-rule="evenodd" clip-rule="evenodd" d="M1.42597 3.40992C1.56192 3.26964 1.72438 3.15772 1.9039 3.08069C2.08343 3.00367 2.27645 2.96317 2.47179 2.96131C2.66713 2.95945 2.8609 2.99636 3.04186 3.06995C3.22281 3.14354 3.38737 3.25224 3.52597 3.3899L7.18397 6.94996C7.45582 7.22803 7.60783 7.60161 7.60739 7.99048C7.60694 8.37936 7.45408 8.75246 7.1816 9.02991C6.90913 9.30736 6.53875 9.46702 6.14995 9.47449C5.76115 9.48197 5.38491 9.33672 5.10197 9.06995L1.44397 5.50989C1.16311 5.2338 1.00343 4.85745 1.00005 4.46363C0.996679 4.0698 1.14988 3.69079 1.42597 3.40992Z" fill="white"/>
<path fill-rule="evenodd" clip-rule="evenodd" d="M12.1321 0.449957C11.9962 0.309682 11.8337 0.197755 11.6542 0.120733C11.4747 0.0437124 11.2816 0.00308702 11.0863 0.00122664C10.8909 -0.000633741 10.6972 0.0362813 10.5162 0.109869C10.3353 0.183457 10.1707 0.292277 10.0321 0.429938L5.38411 6.94996C5.11226 7.22802 4.96025 7.60161 4.96069 7.99048C4.96114 8.37936 5.114 8.75246 5.38648 9.02991C5.65895 9.30736 6.02933 9.46702 6.41813 9.47449C6.80693 9.48197 7.18317 9.33672 7.46611 9.06995L12.1141 2.54993C12.395 2.27384 12.5547 1.89749 12.558 1.50367C12.5614 1.10984 12.4082 0.730824 12.1321 0.449957Z" fill="white"/>
</g>
<defs>
<clipPath id="clip0_104_411">
<rect width="12.562" height="9.5" fill="white"/>
</clipPath>
</defs>
</svg>
