<svg width="195" height="155" viewBox="0 0 195 155" fill="none" xmlns="http://www.w3.org/2000/svg">
<path d="M56.875 78.7406V60.1425C66.3812 56.7544 72.3694 55.8119 75.4 48.5156C78.4306 41.2031 74.8313 36.2306 70.525 27.1875L83.6712 14.0331C92.6494 18.2988 97.6706 21.9469 105.007 18.9081C112.32 15.8694 113.271 9.8325 116.634 0.375H135.241C138.588 9.78375 139.547 15.8694 146.868 18.9H146.876C154.188 21.9388 159.144 18.3312 168.204 14.025L181.342 27.1794C177.06 36.1981 173.436 41.1869 176.467 48.5075C179.514 55.8281 185.591 56.7869 195 60.1344V78.7325C185.616 82.08 179.506 83.0469 176.475 90.3594C173.42 97.7369 177.133 102.823 181.35 111.688L168.204 124.842C159.209 120.576 154.196 116.928 146.876 119.967H146.868C139.555 122.997 138.596 129.051 135.241 138.492H116.643C113.295 129.083 112.336 123.014 104.967 119.951H104.959C97.695 116.928 92.7631 120.527 83.6794 124.842L70.5331 111.688C74.7988 102.693 78.4469 97.6881 75.4162 90.3594C72.3775 83.055 66.2675 82.08 56.875 78.7406ZM125.938 92.4637C138.645 92.4637 148.956 82.1531 148.956 69.4375C148.956 56.7219 138.645 46.4113 125.938 46.4113C113.23 46.4113 102.919 56.7219 102.919 69.4375C102.919 82.1531 113.23 92.4637 125.938 92.4637ZM0 126.629V117.879C4.46875 116.286 7.28812 115.839 8.71812 112.411C10.1481 108.966 8.45 106.634 6.42688 102.368L12.6181 96.1769C16.8431 98.1919 19.2075 99.8981 22.6525 98.4762C26.0975 97.0544 26.5444 94.2106 28.1288 89.7581H36.8712C38.4475 94.1863 38.9025 97.0462 42.3475 98.4762C45.7925 99.9062 48.1244 98.2081 52.3819 96.1769L58.5731 102.368C56.5581 106.618 54.8519 108.966 56.2819 112.411C57.7119 115.856 60.5719 116.302 65 117.879V126.629C60.58 128.197 57.7119 128.661 56.2819 132.098C54.8438 135.567 56.5906 137.964 58.5731 142.14L52.3819 148.331C48.1488 146.316 45.7844 144.61 42.3475 146.032C38.9025 147.454 38.4556 150.306 36.8712 154.75H28.1288C26.5525 150.322 26.0975 147.462 22.6362 146.024H22.6281C19.2075 144.602 16.8919 146.3 12.6181 148.331L6.42688 142.14C8.43375 137.907 10.1481 135.542 8.71812 132.106C7.28812 128.669 4.42 128.197 0 126.629ZM32.5 133.081C38.48 133.081 43.3306 128.23 43.3306 122.25C43.3306 116.27 38.48 111.419 32.5 111.419C26.52 111.419 21.6694 116.27 21.6694 122.25C21.6694 128.23 26.52 133.081 32.5 133.081Z" fill="#CDCDCD"/>
<path d="M1.65474e-05 126.629V117.879C4.46877 116.286 7.28814 115.839 8.71814 112.411C10.1481 108.966 8.45001 106.634 6.42688 102.368L12.6181 96.1769C16.8431 98.1919 19.2075 99.8981 22.6525 98.4762C26.0975 97.0544 26.5444 94.2106 28.1288 89.7581H36.8713C38.4475 94.1862 38.9025 97.0462 42.3475 98.4762C45.7925 99.9062 48.1244 98.2081 52.3819 96.1769L58.5731 102.368C56.5581 106.617 54.8519 108.966 56.2819 112.411C57.7119 115.856 60.5719 116.302 65 117.879V126.629C60.58 128.197 57.7119 128.661 56.2819 132.098C54.8438 135.567 56.5906 137.964 58.5731 142.14L52.3819 148.331C48.1488 146.316 45.7844 144.61 42.3475 146.032C38.9025 147.454 38.4556 150.306 36.8713 154.75H28.1288C26.5525 150.322 26.0975 147.462 22.6362 146.024H22.6281C19.2075 144.602 16.8919 146.3 12.6181 148.331L6.42688 142.14C8.43376 137.907 10.1481 135.543 8.71814 132.106C7.28814 128.669 4.42002 128.197 1.65474e-05 126.629ZM32.5 133.081C38.48 133.081 43.3306 128.23 43.3306 122.25C43.3306 116.27 38.48 111.419 32.5 111.419C26.52 111.419 21.6694 116.27 21.6694 122.25C21.6694 128.23 26.52 133.081 32.5 133.081Z" fill="#FBC644"/>
</svg>
