<svg width="18" height="18" viewBox="0 0 18 18" fill="none" xmlns="http://www.w3.org/2000/svg">
<circle cx="9" cy="9" r="8" fill="#131313"/>
<path d="M9.00028 0.360352C4.22758 0.360352 0.359375 4.22855 0.359375 9.00035C0.359257 10.1351 0.58268 11.2588 1.01688 12.3072C1.45109 13.3556 2.08757 14.3082 2.88997 15.1107C3.69238 15.9131 4.64499 16.5495 5.69341 16.9837C6.74182 17.4179 7.8655 17.6414 9.00028 17.6413C13.7712 17.6413 17.6403 13.7731 17.6403 9.00035C17.6403 4.22855 13.7712 0.360352 9.00028 0.360352ZM9.80667 3.47975C10.6491 3.47975 10.8966 3.96845 10.8966 4.52735C10.8966 5.22485 10.3386 5.87015 9.38548 5.87015C8.58808 5.87015 8.20827 5.46965 8.23168 4.80635C8.23168 4.24745 8.69878 3.47975 9.80667 3.47975ZM7.64848 14.1754C7.07248 14.1754 6.65217 13.8253 7.05447 12.2908L7.71418 9.56825C7.82848 9.13265 7.84738 8.95805 7.71418 8.95805C7.54228 8.95805 6.79437 9.25865 6.35337 9.55565L6.06627 9.08495C7.46578 7.91585 9.07498 7.23005 9.76347 7.23005C10.3395 7.23005 10.4349 7.91045 10.1478 8.95805L9.39178 11.8201C9.25768 12.3259 9.31528 12.5005 9.44938 12.5005C9.62218 12.5005 10.1874 12.2917 10.7436 11.8534L11.0694 12.2908C9.70767 13.6516 8.22358 14.1754 7.64848 14.1754Z" fill="#FBC644"/>
</svg>
