<?xml version="1.0" encoding="UTF-8"?>
<svg id="SVGDoc" width="15" height="15" xmlns="http://www.w3.org/2000/svg" version="1.1" xmlns:xlink="http://www.w3.org/1999/xlink" xmlns:avocode="https://avocode.com/" viewBox="0 0 15 15"><defs></defs><desc>Generated with Avocode.</desc><g><g><title>instagram-6</title><path d="M12.65464,4.03048c0,0.29767 -0.24158,0.53971 -0.54005,0.53971h-1.27087c-0.29858,0 -0.53947,-0.24204 -0.53947,-0.53971v-1.2714c0,-0.298 0.2409,-0.53949 0.53947,-0.53949h1.27087c0.29846,0 0.54005,0.2415 0.54005,0.53949zM12.65464,12.20348c0,0.29778 -0.24158,0.53895 -0.54005,0.53895h-9.44275c-0.29858,0 -0.54005,-0.24117 -0.54005,-0.53895v-5.89177h1.10928c-0.05138,0.18445 -0.08961,0.37424 -0.11707,0.56785c-0.02907,0.19666 -0.04726,0.39671 -0.04726,0.60112c0,2.38463 1.93245,4.31714 4.31648,4.31714c2.38415,0 4.3166,-1.93251 4.3166,-4.31714c0,-0.20441 -0.01831,-0.40446 -0.04738,-0.60112c-0.02747,-0.19361 -0.06569,-0.3834 -0.11707,-0.56785h1.10928zM7.39322,4.78289c1.49002,0 2.69863,1.20748 2.69863,2.69779c0,1.49009 -1.20861,2.69833 -2.69863,2.69833c-1.49002,0 -2.69806,-1.20824 -2.69806,-2.69833c0,-1.49031 1.20804,-2.69779 2.69806,-2.69779zM12.78991,0.46575h-10.79338c-0.89344,0 -1.61854,0.7247 -1.61854,1.6188v10.79203c0,0.89454 0.7251,1.61957 1.61854,1.61957h10.79338c0.89413,0 1.61854,-0.72503 1.61854,-1.61957v-10.79203c0,-0.8941 -0.72441,-1.6188 -1.61854,-1.6188z" fill="#ffffff" fill-opacity="1"></path></g></g></svg>