<svg width="283" height="35" viewBox="0 0 283 35" fill="none" xmlns="http://www.w3.org/2000/svg">
<g clip-path="url(#clip0_185_17)">
<path d="M39.5808 0H11.4279C5.10087 0 0 4.85563 0 11.1336V23.101C0 29.4281 5.10087 34.7742 11.4279 34.7742H39.5808C45.9078 34.7742 51.0087 29.379 51.0087 23.101V11.1336C51.0087 4.85563 45.9078 0 39.5808 0ZM44.6326 22.3163C44.6605 22.7763 44.5295 23.2319 44.2617 23.6069C43.9939 23.9818 43.6053 24.2535 43.1612 24.3763V27.5153C43.1612 27.7104 43.0837 27.8975 42.9457 28.0355C42.8077 28.1734 42.6206 28.251 42.4255 28.251C42.2304 28.251 42.0432 28.1734 41.9053 28.0355C41.7673 27.8975 41.6898 27.7104 41.6898 27.5153V24.3763C41.2489 24.2479 40.864 23.9749 40.5971 23.6013C40.3302 23.2276 40.1968 22.775 40.2184 22.3163V13.1445L26.9267 27.5643C26.575 27.9598 26.0879 28.2093 25.5615 28.2638C25.035 28.3182 24.5072 28.1737 24.082 27.8586C24.0329 27.8586 24.0329 27.8095 23.9839 27.8095C23.9348 27.8095 23.7877 27.6624 23.7877 27.6133C23.5653 27.4074 23.3891 27.1567 23.2708 26.8777C23.1524 26.5987 23.0946 26.2978 23.101 25.9948V13.1445L9.80936 27.5153C9.44751 27.9114 8.95243 28.1604 8.41864 28.2147C7.88486 28.269 7.34978 28.1247 6.9156 27.8095C6.86655 27.8095 6.86655 27.7605 6.8175 27.7605C6.76846 27.7605 6.62132 27.6133 6.62132 27.5643C6.39894 27.3584 6.22275 27.1077 6.10439 26.8287C5.98603 26.5497 5.92818 26.2488 5.93466 25.9458V11.0846C5.90676 10.6246 6.03769 10.169 6.30554 9.794C6.57339 9.41902 6.9619 9.1474 7.40607 9.02461V5.88562C7.40607 5.6905 7.48358 5.50337 7.62155 5.3654C7.75952 5.22742 7.94665 5.14991 8.14177 5.14991C8.33689 5.14991 8.52402 5.22742 8.66199 5.3654C8.79996 5.50337 8.87747 5.6905 8.87747 5.88562V9.02461C9.31838 9.15294 9.70327 9.42592 9.97017 9.79959C10.2371 10.1733 10.3705 10.6259 10.3489 11.0846V20.3544C10.3489 20.3544 23.6406 5.88561 23.7386 5.83657C24.16 5.42954 24.7223 5.20109 25.3081 5.19896C25.5983 5.19766 25.8859 5.25386 26.1543 5.36432C26.4227 5.47478 26.6665 5.6373 26.8717 5.84251C27.0769 6.04772 27.2394 6.29154 27.3499 6.55991C27.4603 6.82827 27.5165 7.11586 27.5152 7.40607V20.4035L40.7088 6.0818C40.9117 5.8048 41.1777 5.5802 41.4848 5.42665C41.7919 5.27311 42.1312 5.19505 42.4745 5.19896C42.7647 5.19766 43.0523 5.25386 43.3207 5.36432C43.589 5.47478 43.8329 5.6373 44.0381 5.84251C44.2433 6.04772 44.4058 6.29154 44.5163 6.55991C44.6267 6.82827 44.6829 7.11586 44.6816 7.40607V22.3163H44.6326Z" fill="#FBC644"/>
<path d="M66.1133 5.54297H70.6746L80.533 22.8074L90.4405 5.54297H94.9528V28.4478H91.2743V10.6929L80.8764 28.4478H80.2388L69.7918 10.791V28.4478H66.1133V5.54297Z" fill="white"/>
<path d="M105.008 16.9694C105.008 9.75949 110.55 5.00195 119.428 5.00195C128.403 5.00195 133.896 9.75949 133.896 16.9694C133.896 24.1792 128.354 28.9368 119.428 28.9368C110.501 28.9368 105.008 24.1792 105.008 16.9694ZM130.267 16.9694C130.267 11.4271 125.902 8.04285 119.428 8.04285C112.953 8.04285 108.637 11.4271 108.637 16.9694C108.637 22.5117 113.002 25.8959 119.428 25.8959C125.853 25.8959 130.267 22.4626 130.267 16.9694Z" fill="white"/>
<path d="M145.03 5.54297H148.757L167.002 23.9846V5.54297H170.681V28.4478H166.904L148.659 10.0553V28.4478H144.98V5.54297H145.03Z" fill="white"/>
<path d="M181.766 16.9694C181.766 9.75949 187.308 5.00195 196.185 5.00195C205.161 5.00195 210.654 9.75949 210.654 16.9694C210.654 24.1792 205.112 28.9368 196.185 28.9368C187.259 28.9368 181.766 24.1792 181.766 16.9694ZM207.025 16.9694C207.025 11.4271 202.66 8.04285 196.185 8.04285C189.711 8.04285 185.395 11.4271 185.395 16.9694C185.395 22.5117 189.76 25.8959 196.185 25.8959C202.611 25.8959 207.025 22.4626 207.025 16.9694Z" fill="white"/>
<path d="M231.01 5.54297H235.866L249.893 28.3988H245.774L242.585 23.0527H224.144L221.005 28.3988H216.836L231.01 5.54297ZM240.869 20.0608L233.463 7.45579L226.057 20.0608H240.869Z" fill="white"/>
<path d="M259.016 5.54297H269.659C277.948 5.54297 283 9.51576 283 16.9709C283 24.5731 277.899 28.3988 269.659 28.3988H259.016V5.54297ZM269.659 25.4069C275.642 25.4069 279.713 22.2189 279.713 17.0199C279.713 11.821 275.642 8.63292 269.659 8.63292H262.645V25.4069H269.659Z" fill="white"/>
</g>
<defs>
<clipPath id="clip0_185_17">
<rect width="283" height="34.7742" fill="white"/>
</clipPath>
</defs>
</svg>
