<?xml version="1.0" encoding="utf-8"?>
<!-- Generator: Adobe Illustrator 22.1.0, SVG Export Plug-In . SVG Version: 6.00 Build 0)  -->
<svg version="1.1" id="Слой_1" xmlns="http://www.w3.org/2000/svg" xmlns:xlink="http://www.w3.org/1999/xlink" x="0px" y="0px"
	 viewBox="0 0 237 145.7" style="enable-background:new 0 0 237 145.7;" xml:space="preserve">
<style type="text/css">
	.st0{fill:#FBC644;}
	.st1{fill:#FFFFFF;}
</style>
<g>
	<path class="st0" d="M166,4.6c-1.7,0-3.1,0.8-4.3,2c-0.1,0.1-35.4,38.3-35.4,38.3V10.5c0-3.3-2.7-5.8-6-5.8c-1.6,0-3,0.7-4.2,1.7
		c-0.1,0.3-35.4,38.6-35.4,38.6V20.4c0-2.6-1.3-4.7-3.9-5.5V6.6c0-1-0.8-2-1.9-2s-1.9,0.9-1.9,2v8.3c-2.6,0.8-3.9,3-3.9,5.5v39.4
		c0,1.7,0.7,3.3,1.8,4.3c0,0,0.4,0.4,0.5,0.5c0.1,0,0.1,0.1,0.3,0.1c2.3,1.6,5.7,1.3,7.7-0.8l35.2-38.4v34.1c0,1.7,0.7,3.3,1.8,4.3
		c0,0,0.4,0.4,0.5,0.5c0.1,0,0.1,0.1,0.3,0.1c2.3,1.6,5.7,1.3,7.7-0.8l35.2-38.2v24.3c0,2.6,1.3,4.7,3.9,5.5v8.3
		c0,1,0.9,1.9,1.9,1.9s1.9-0.9,1.9-1.9v-8.3c2.6-0.8,3.9-3,3.9-5.5V10.5C171.9,7.2,169.1,4.6,166,4.6z"/>
	<g>
		<path class="st1" d="M0.7,79.8h4.9l10.7,18.8l10.8-18.8H32v26.9h-4V85.3l-11.3,21.4H16L4.6,85.5v21.2h-4L0.7,79.8L0.7,79.8z"/>
		<path class="st1" d="M43,92.2c0-7.8,6-13,15.7-13s15.8,5.2,15.8,13s-6,15-15.8,15C49,107.2,43,100,43,92.2z M70.5,92.2
			c0-6-4.7-9.7-11.8-9.7c-7,0-11.7,3.7-11.7,9.7s4.7,11.7,11.7,11.7C65.8,103.9,70.5,98.2,70.5,92.2z"/>
		<path class="st1" d="M86.5,79.8h4.1l19.9,22.1V79.8h4v26.9h-4.1l-19.8-22v22h-4L86.5,79.8L86.5,79.8z"/>
		<path class="st1" d="M126.6,92.2c0-7.8,6-13,15.7-13s15.8,5.2,15.8,13s-6,15-15.8,15C132.6,107.2,126.6,100,126.6,92.2z M154,92.2
			c0-6-4.7-9.7-11.8-9.7c-7,0-11.7,3.7-11.7,9.7s4.7,11.7,11.7,11.7C149.3,103.9,154,98.2,154,92.2z"/>
		<path class="st1" d="M180.1,79.8h5.3l15.3,26.9h-4.5l-3.4-5.8h-20.1l-3.4,5.8h-4.5L180.1,79.8z M190.8,95.5l-8-13.7l-8.1,13.7
			H190.8z"/>
		<path class="st1" d="M210.6,79.8h11.6c9,0,14.5,4.3,14.5,12.4c0,8.2-5.5,14.4-14.5,14.4h-11.6V79.8z M222.2,103.3
			c6.5,0,10.9-5.5,10.9-11.1s-4.4-9.1-10.9-9.1h-7.6v20.3L222.2,103.3L222.2,103.3z"/>
	</g>
</g>
<g>
	<path class="st1" d="M59.5,130.2h-3.9v4.1h-1.6v-9.6h6.1v1.3h-4.5v2.9h3.9V130.2z"/>
	<path class="st1" d="M63.1,130.3v4h-1.6v-9.6h3.3c1.1,0,1.9,0.2,2.5,0.7c0.6,0.5,0.9,1.2,0.9,2.1c0,0.5-0.1,0.9-0.4,1.3
		c-0.3,0.4-0.6,0.6-1.1,0.9c0.5,0.2,0.9,0.5,1.2,0.8c0.2,0.4,0.4,0.9,0.4,1.4v0.8c0,0.3,0,0.6,0.1,0.8c0.1,0.3,0.2,0.5,0.3,0.6v0.2
		H67c-0.2-0.1-0.3-0.4-0.3-0.7c0-0.3-0.1-0.6-0.1-0.9v-0.8c0-0.5-0.1-0.9-0.4-1.2c-0.3-0.3-0.7-0.4-1.2-0.4H63.1z M63.1,129h1.6
		c0.6,0,1.1-0.1,1.4-0.4c0.3-0.2,0.4-0.6,0.4-1.1c0-0.5-0.1-0.9-0.4-1.1s-0.7-0.4-1.3-0.4h-1.7V129z"/>
	<path class="st1" d="M77.7,130.3c0,1.2-0.4,2.1-1.1,2.9s-1.7,1.2-2.9,1.2c-1.1,0-2.1-0.4-2.8-1.2s-1.1-1.7-1.1-2.9v-1.7
		c0-1.2,0.4-2.1,1.1-2.9c0.7-0.8,1.7-1.2,2.8-1.2c1.2,0,2.1,0.4,2.9,1.2s1.1,1.7,1.1,2.9V130.3z M76.1,128.6c0-0.8-0.2-1.5-0.6-2
		c-0.4-0.5-1-0.8-1.7-0.8c-0.7,0-1.3,0.3-1.7,0.8c-0.4,0.5-0.6,1.2-0.6,2v1.7c0,0.8,0.2,1.5,0.6,2c0.4,0.5,1,0.8,1.7,0.8
		c0.7,0,1.3-0.3,1.7-0.8c0.4-0.5,0.6-1.2,0.6-2V128.6z"/>
	<path class="st1" d="M84.2,132.1L84.2,132.1l2.8-7.4h2v9.6h-1.6v-6.9l0,0l-2.6,6.9h-1.1l-2.7-7l0,0v7h-1.6v-9.6h2.1L84.2,132.1z"/>
	<path class="st1" d="M99.9,130.2h-3.9v4.1h-1.6v-9.6h6.1v1.3h-4.5v2.9h3.9V130.2z"/>
	<path class="st1" d="M106.6,132h-3.4l-0.7,2.2h-1.7l3.3-9.6h1.5l3.3,9.6h-1.7L106.6,132z M103.6,130.7h2.5l-1.2-3.8h0L103.6,130.7z
		"/>
	<path class="st1" d="M117.6,134.3H116l-4.3-6.9l0,0v6.9h-1.6v-9.6h1.6l4.3,6.9l0,0v-6.9h1.6V134.3z"/>
	<path class="st1" d="M124.7,131.8c0-0.4-0.1-0.7-0.4-1c-0.3-0.3-0.8-0.5-1.5-0.7c-1-0.3-1.8-0.7-2.4-1.1c-0.6-0.5-0.8-1.1-0.8-1.8
		c0-0.8,0.3-1.4,0.9-1.9s1.4-0.8,2.4-0.8c1,0,1.9,0.3,2.5,0.8s0.9,1.2,0.9,2.1l0,0h-1.5c0-0.5-0.2-0.9-0.5-1.2s-0.8-0.4-1.3-0.4
		c-0.5,0-1,0.1-1.2,0.4s-0.4,0.6-0.4,1c0,0.4,0.2,0.7,0.5,0.9c0.3,0.2,0.9,0.5,1.6,0.7c1,0.3,1.8,0.7,2.3,1.2s0.8,1.1,0.8,1.9
		c0,0.8-0.3,1.4-0.9,1.9s-1.4,0.7-2.5,0.7c-1,0-1.8-0.3-2.6-0.8c-0.7-0.5-1.1-1.3-1.1-2.2l0,0h1.5c0,0.6,0.2,1,0.6,1.3
		c0.4,0.3,0.9,0.4,1.5,0.4c0.6,0,1-0.1,1.3-0.4C124.5,132.6,124.7,132.2,124.7,131.8z"/>
	<path class="st1" d="M138,126h-3v8.3h-1.6V126h-2.9v-1.3h7.5V126z"/>
	<path class="st1" d="M146.6,130.3c0,1.2-0.4,2.1-1.1,2.9s-1.7,1.2-2.9,1.2c-1.1,0-2.1-0.4-2.8-1.2s-1.1-1.7-1.1-2.9v-1.7
		c0-1.2,0.4-2.1,1.1-2.9c0.7-0.8,1.7-1.2,2.8-1.2c1.2,0,2.1,0.4,2.9,1.2s1.1,1.7,1.1,2.9V130.3z M145,128.6c0-0.8-0.2-1.5-0.6-2
		c-0.4-0.5-1-0.8-1.7-0.8c-0.7,0-1.3,0.3-1.7,0.8c-0.4,0.5-0.6,1.2-0.6,2v1.7c0,0.8,0.2,1.5,0.6,2c0.4,0.5,1,0.8,1.7,0.8
		c0.7,0,1.3-0.3,1.7-0.8c0.4-0.5,0.6-1.2,0.6-2V128.6z"/>
	<path class="st1" d="M157.1,130.2h-3.9v4.1h-1.6v-9.6h6.1v1.3h-4.5v2.9h3.9V130.2z"/>
	<path class="st1" d="M163.7,132h-3.4l-0.7,2.2h-1.7l3.3-9.6h1.5l3.3,9.6h-1.7L163.7,132z M160.8,130.7h2.5l-1.2-3.8h0L160.8,130.7z
		"/>
	<path class="st1" d="M174.8,134.3h-1.6l-4.3-6.9l0,0v6.9h-1.6v-9.6h1.6l4.3,6.9l0,0v-6.9h1.6V134.3z"/>
	<path class="st1" d="M181.9,131.8c0-0.4-0.1-0.7-0.4-1c-0.3-0.3-0.8-0.5-1.5-0.7c-1-0.3-1.8-0.7-2.4-1.1c-0.6-0.5-0.8-1.1-0.8-1.8
		c0-0.8,0.3-1.4,0.9-1.9s1.4-0.8,2.4-0.8c1,0,1.9,0.3,2.5,0.8s0.9,1.2,0.9,2.1l0,0h-1.5c0-0.5-0.2-0.9-0.5-1.2s-0.8-0.4-1.3-0.4
		c-0.5,0-1,0.1-1.2,0.4s-0.4,0.6-0.4,1c0,0.4,0.2,0.7,0.5,0.9c0.3,0.2,0.9,0.5,1.6,0.7c1,0.3,1.8,0.7,2.3,1.2s0.8,1.1,0.8,1.9
		c0,0.8-0.3,1.4-0.9,1.9s-1.4,0.7-2.5,0.7c-1,0-1.8-0.3-2.6-0.8c-0.7-0.5-1.1-1.3-1.1-2.2l0,0h1.5c0,0.6,0.2,1,0.6,1.3
		c0.4,0.3,0.9,0.4,1.5,0.4c0.6,0,1-0.1,1.3-0.4C181.7,132.6,181.9,132.2,181.9,131.8z"/>
</g>
</svg>
