<svg width="246" height="100" viewBox="0 0 246 100" fill="none" xmlns="http://www.w3.org/2000/svg">
<path d="M242.062 0H2.0625V100H242.062V0Z" fill="#353434"/>
<path fill-rule="evenodd" clip-rule="evenodd" d="M242.062 0V100H2.0625V54L172.062 0H242.062Z" fill="#FBC644"/>
<path fill-rule="evenodd" clip-rule="evenodd" d="M241.062 3H245.062V10C245.062 10 245.375 8.66 244.571 8.25C243.433 7.91379 242.236 7.8285 241.062 8C241.062 8 239.062 6.70005 239.062 5.43005C239.062 4.20005 241.062 3 241.062 3ZM241.062 18H245.062V11C245.062 11 245.375 12.34 244.571 12.75C243.433 13.0862 242.236 13.1715 241.062 13C241.062 13 239.062 14.2999 239.062 15.5699C239.062 16.7999 241.062 18 241.062 18ZM241.062 23H245.062V30C245.062 30 245.375 28.66 244.571 28.25C243.433 27.9138 242.236 27.8285 241.062 28C241.062 28 239.062 26.7001 239.062 25.4301C239.062 24.2001 241.062 23 241.062 23ZM241.062 38H245.062V31C245.062 31 245.375 32.34 244.571 32.75C243.433 33.0862 242.236 33.1715 241.062 33C241.062 33 239.062 34.2999 239.062 35.5699C239.062 36.7999 241.062 38 241.062 38ZM241.062 43H245.062V50C245.062 50 245.375 48.66 244.571 48.25C243.433 47.9138 242.236 47.8285 241.062 48C241.062 48 239.062 46.7001 239.062 45.4301C239.062 44.2001 241.062 43 241.062 43ZM241.062 58H245.062V51C245.062 51 245.375 52.34 244.571 52.75C243.433 53.0862 242.236 53.1715 241.062 53C241.062 53 239.062 54.2999 239.062 55.5699C239.062 56.7999 241.062 58 241.062 58ZM241.062 63H245.062V70C245.062 70 245.375 68.66 244.571 68.25C243.433 67.9138 242.236 67.8285 241.062 68C241.062 68 239.062 66.7001 239.062 65.4301C239.062 64.2001 241.062 63 241.062 63ZM241.062 78H245.062V71C245.062 71 245.375 72.34 244.571 72.75C243.433 73.0862 242.236 73.1715 241.062 73C241.062 73 239.062 74.2999 239.062 75.5699C239.062 76.7999 241.062 78 241.062 78ZM241.062 83H245.062V90C245.062 90 245.375 88.66 244.571 88.25C243.433 87.9138 242.236 87.8285 241.062 88C241.062 88 239.062 86.7001 239.062 85.4301C239.062 84.2001 241.062 83 241.062 83ZM241.062 98H245.062V91C245.062 91 245.375 92.34 244.571 92.75C243.433 93.0862 242.236 93.1715 241.062 93C241.062 93 239.062 94.2999 239.062 95.5699C239.062 96.7999 241.062 98 241.062 98ZM4.06194 3H0.0619362V10C0.0619362 10 -0.251067 8.66 0.552934 8.25C1.69074 7.91379 2.88796 7.8285 4.06194 8C4.06194 8 6.06194 6.70005 6.06194 5.43005C6.06194 4.20005 4.06194 3 4.06194 3ZM4.06194 18H0.0619362V11C0.0619362 11 -0.251067 12.34 0.552934 12.75C1.69074 13.0862 2.88796 13.1715 4.06194 13C4.06194 13 6.06194 14.2999 6.06194 15.5699C6.06194 16.7999 4.06194 18 4.06194 18ZM4.06194 23H0.0619362V30C0.0619362 30 -0.251067 28.66 0.552934 28.25C1.69074 27.9138 2.88796 27.8285 4.06194 28C4.06194 28 6.06194 26.7001 6.06194 25.4301C6.06194 24.2001 4.06194 23 4.06194 23ZM4.06194 38H0.0619362V31C0.0619362 31 -0.251067 32.34 0.552934 32.75C1.69074 33.0862 2.88796 33.1715 4.06194 33C4.06194 33 6.06194 34.2999 6.06194 35.5699C6.06194 36.7999 4.06194 38 4.06194 38ZM4.06194 43H0.0619362V50C0.0619362 50 -0.251067 48.66 0.552934 48.25C1.69074 47.9138 2.88796 47.8285 4.06194 48C4.06194 48 6.06194 46.7001 6.06194 45.4301C6.06194 44.2001 4.06194 43 4.06194 43ZM4.06194 58H0.0619362V51C0.0619362 51 -0.251067 52.34 0.552934 52.75C1.69074 53.0862 2.88796 53.1715 4.06194 53C4.06194 53 6.06194 54.2999 6.06194 55.5699C6.06194 56.7999 4.06194 58 4.06194 58ZM4.06194 63H0.0619362V70C0.0619362 70 -0.251067 68.66 0.552934 68.25C1.69074 67.9138 2.88796 67.8285 4.06194 68C4.06194 68 6.06194 66.7001 6.06194 65.4301C6.06194 64.2001 4.06194 63 4.06194 63ZM4.06194 78H0.0619362V71C0.0619362 71 -0.251067 72.34 0.552934 72.75C1.69074 73.0862 2.88796 73.1715 4.06194 73C4.06194 73 6.06194 74.2999 6.06194 75.5699C6.06194 76.7999 4.06194 78 4.06194 78ZM4.06194 83H0.0619362V90C0.0619362 90 -0.251067 88.66 0.552934 88.25C1.69074 87.9138 2.88796 87.8285 4.06194 88C4.06194 88 6.06194 86.7001 6.06194 85.4301C6.06194 84.2001 4.06194 83 4.06194 83ZM4.06194 98H0.0619362V91C0.0619362 91 -0.251067 92.34 0.552934 92.75C1.69074 93.0862 2.88796 93.1715 4.06194 93C4.06194 93 6.06194 94.2999 6.06194 95.5699C6.06194 96.7999 4.06194 98 4.06194 98Z" fill="white"/>
</svg>
