<?xml version="1.0" encoding="UTF-8"?>
<svg id="SVGDoc" width="21" height="21" xmlns="http://www.w3.org/2000/svg" version="1.1" xmlns:xlink="http://www.w3.org/1999/xlink" xmlns:avocode="https://avocode.com/" viewBox="0 0 21 21"><defs></defs><desc>Generated with Avocode.</desc><g><g><title>Forma 1</title><path d="M20.43373,18.70152l-1.81595,1.81601l-5.10281,-5.10293v-0.96827l-0.36324,-0.36322c-1.33163,1.21053 -3.14747,1.93698 -5.08438,1.93698c-4.35802,0 -7.86873,-3.51074 -7.86873,-7.869c0,-4.35793 3.5107,-7.86856 7.86873,-7.86856c4.35814,0 7.86873,3.51063 7.86873,7.86856c0,1.93698 -0.72636,3.75289 -1.93691,5.08449l0.36324,0.36312h0.9684zM13.64738,8.1499c0,-3.10017 -2.48005,-5.58003 -5.58014,-5.58003c-3.09998,0 -5.58002,2.47985 -5.58002,5.58003c0,3.10006 2.48005,5.58003 5.58002,5.58003c3.10009,0 5.58014,-2.47996 5.58014,-5.58003z" fill="#131313" fill-opacity="1"></path></g></g></svg>