<svg width="58" height="61" viewBox="0 0 58 61" fill="none" xmlns="http://www.w3.org/2000/svg">
<g clip-path="url(#clip0_11_321)">
<path d="M28.657 60.3079C44.4838 60.3079 57.314 46.8866 57.314 30.3307C57.314 13.7748 44.4838 0.353516 28.657 0.353516C12.8302 0.353516 0 13.7748 0 30.3307C0 46.8866 12.8302 60.3079 28.657 60.3079Z" fill="#2787F5"/>
<path fill-rule="evenodd" clip-rule="evenodd" d="M41.756 34.7894C39.213 32.3222 39.094 32.2595 41.284 29.2905C44.002 25.6002 47.555 20.8853 44.412 20.8853H38.412C37.248 20.8853 37.164 21.565 36.75 22.5895C35.25 26.2903 32.398 31.0782 31.314 30.3464C30.181 29.5832 30.7 26.5516 30.787 22.0563C30.81 20.8646 30.804 20.0491 29.066 19.6309C28.1717 19.415 27.2568 19.3062 26.339 19.3068C22.911 19.3068 20.547 20.8121 21.89 21.0735C24.259 21.5334 24.032 26.886 23.479 29.2068C22.517 33.2316 18.901 26.0078 17.394 22.4221C17.031 21.5544 16.921 20.8853 15.622 20.8853H10.709C9.96798 20.8853 9.52301 21.1363 9.52301 21.6903C9.52301 22.6417 13.987 32.2908 18.248 37.0997C22.404 41.7831 26.512 41.3651 29.371 41.3651C29.5513 41.3788 29.7323 41.35 29.9006 41.2808C30.0689 41.2117 30.2201 41.1039 30.3432 40.9654C30.4663 40.8269 30.558 40.6612 30.6116 40.4807C30.6652 40.3002 30.6794 40.1093 30.653 39.9223C30.606 36.901 31.731 35.2703 33.758 37.3924C36.003 39.7446 36.467 41.3651 39.191 41.3651H44.019C45.237 41.3651 45.719 40.9573 45.719 40.3092C45.719 38.9502 43.572 36.5457 41.756 34.7894Z" fill="white"/>
</g>
<defs>
<clipPath id="clip0_11_321">
<rect width="57.313" height="59.9543" fill="white" transform="translate(0 0.353516)"/>
</clipPath>
</defs>
</svg>
