<svg width="58" height="61" viewBox="0 0 58 61" fill="none" xmlns="http://www.w3.org/2000/svg">
<g clip-path="url(#clip0_11_318)">
<path d="M28.672 60.287C44.5071 60.287 57.344 46.867 57.344 30.3126C57.344 13.7582 44.5071 0.338257 28.672 0.338257C12.8369 0.338257 0 13.7582 0 30.3126C0 46.867 12.8369 60.287 28.672 60.287Z" fill="#FC3540"/>
<path fill-rule="evenodd" clip-rule="evenodd" d="M39.282 19.7695C32.2276 19.0308 25.1203 19.0308 18.066 19.7695C15.944 20.4595 15.414 25.3208 15.414 30.3075C15.414 35.2941 15.944 40.145 18.066 40.8454C25.1203 41.5842 32.2276 41.5842 39.282 40.8454C41.403 40.145 41.934 35.2941 41.934 30.3075C41.934 25.3208 41.403 20.4595 39.282 19.7695ZM26.022 36.5486V24.0663L33.978 30.3075L26.022 36.5486Z" fill="white"/>
</g>
<defs>
<clipPath id="clip0_11_318">
<rect width="57.344" height="59.9551" fill="white" transform="translate(0 0.335205)"/>
</clipPath>
</defs>
</svg>
