<svg width="57" height="57" viewBox="0 0 57 57" fill="none" xmlns="http://www.w3.org/2000/svg">
<path d="M28.5 57C44.2401 57 57 44.2401 57 28.5C57 12.7599 44.2401 0 28.5 0C12.7599 0 0 12.7599 0 28.5C0 44.2401 12.7599 57 28.5 57Z" fill="#FBC644"/>
<path d="M40 20.3H16V35.5H40V20.3Z" fill="white"/>
<path d="M36.4 18.4H20.3C16.7 18.4 13.8 21.2 13.8 24.8V31.6C13.8 35.2 16.7 38.3 20.3 38.3H36.4C40 38.3 42.9 35.2 42.9 31.6V24.8C42.9 21.2 40 18.4 36.4 18.4ZM39.3 31.2C39.3 31.8 39 32.2 38.5 32.4V34.2C38.5 34.4 38.3 34.6 38.1 34.6C37.9 34.6 37.7 34.4 37.7 34.2V32.4C37.1 32.2 36.9 31.8 36.9 31.2V26L29.3 34.2C28.9 34.7 28.2 34.7 27.7 34.4C27.7 34.4 27.7 34.4 27.6 34.4L27.5 34.3C27.1 34 27 33.6 27 33.3V26L19.4 34.2C19 34.7 18.3 34.7 17.8 34.4C17.8 34.4 17.8 34.4 17.7 34.4L17.6 34.3C17.4 34.1 17.2 33.7 17.2 33.4V24.9C17.2 24.3 17.5 23.9 18 23.7V21.9C18 21.7 18.2 21.5 18.4 21.5C18.6 21.5 18.8 21.7 18.8 21.9V23.7C19.4 23.9 19.6 24.3 19.6 24.9V30.2L27.2 21.9C27.4 21.7 27.8 21.5 28.1 21.5C28.8 21.5 29.4 22.1 29.4 22.8V30.2L36.9 22C37.1 21.7 37.5 21.5 37.9 21.5C38.6 21.5 39.2 22.1 39.2 22.8L39.3 31.2Z" fill="#FBC644"/>
</svg>
