<?xml version="1.0" encoding="UTF-8"?>
<svg id="SVGDoc" width="26" height="20" xmlns="http://www.w3.org/2000/svg" version="1.1" xmlns:xlink="http://www.w3.org/1999/xlink" xmlns:avocode="https://avocode.com/" viewBox="0 0 26 20"><defs></defs><desc>Generated with Avocode.</desc><g><g><title>shopping-cart-2</title><path d="M14.76485,16.79027c-0.886,0 -1.60492,0.71838 -1.60492,1.60441c0,0.88657 0.71892,1.60495 1.60492,1.60495c0.88612,0 1.60503,-0.71838 1.60503,-1.60495c0,-0.88603 -0.71892,-1.60441 -1.60503,-1.60441zM9.41485,16.79027c-0.88612,0 -1.60492,0.71838 -1.60492,1.60441c0,0.88657 0.7188,1.60495 1.60492,1.60495c0.88612,0 1.60503,-0.71838 1.60503,-1.60495c0,-0.88603 -0.71892,-1.60441 -1.60503,-1.60441zM21.51091,0.73977l-3.67184,12.83994h-11.15822l-3.14266,-7.48996h12.16713l0.6039,-2.13997h-15.98934l4.93835,11.7699h14.16595l3.71681,-12.84005h2.06371l0.79514,-2.13986z" fill="#131313" fill-opacity="1"></path></g></g></svg>