<svg width="8" height="13" viewBox="0 0 8 13" fill="none" xmlns="http://www.w3.org/2000/svg">
<g clip-path="url(#clip0_92_993)">
<path fill-rule="evenodd" clip-rule="evenodd" d="M1.20107 5.07766L7.20807 11.0837C7.48407 11.3597 6.61407 11.8077 6.33807 12.0837C6.27241 12.1493 6.19446 12.2014 6.10867 12.237C6.02288 12.2725 5.93093 12.2908 5.83807 12.2908C5.7452 12.2908 5.65325 12.2725 5.56746 12.237C5.48167 12.2014 5.40372 12.1493 5.33807 12.0837L0.201065 6.94966C0.067958 6.75068 -0.00209296 6.5162 4.76337e-05 6.27681C0.00218822 6.03742 0.0764221 5.80423 0.213066 5.60766C0.490066 5.32866 0.926065 4.80166 1.20107 5.07766Z" fill="#B7B7B7"/>
<path fill-rule="evenodd" clip-rule="evenodd" d="M1.17494 7.17802L7.18194 1.17102C7.45794 0.895017 6.58794 0.447017 6.31194 0.171017C6.24629 0.105343 6.16834 0.0532474 6.08255 0.017704C5.99676 -0.0178394 5.90481 -0.0361328 5.81194 -0.0361328C5.71908 -0.0361328 5.62713 -0.0178394 5.54134 0.017704C5.45554 0.0532474 5.3776 0.105343 5.31194 0.171017L0.174942 5.30602C0.041835 5.505 -0.028216 5.73948 -0.0260754 5.97887C-0.0239348 6.21826 0.050299 6.45145 0.186943 6.64802C0.463943 6.92602 0.899942 7.45402 1.17494 7.17802Z" fill="#B7B7B7"/>
</g>
<defs>
<clipPath id="clip0_92_993">
<rect width="8" height="13" fill="white"/>
</clipPath>
</defs>
</svg>
