<?xml version="1.0" encoding="utf-8"?><svg xmlns="http://www.w3.org/2000/svg" xmlns:xlink="http://www.w3.org/1999/xlink"><symbol viewBox="0 0 12 9" id="arrow-down" xmlns="http://www.w3.org/2000/svg">
    <g clip-path="url(#aaa)" fill-rule="evenodd" clip-rule="evenodd">
        <path d="M.342.32a1.225 1.225 0 0 1 1.73.031L6.774 6.49A1.22 1.22 0 0 1 5.02 8.182L.317 2.044A1.232 1.232 0 0 1 .342.321Z"/>
        <path d="M11.623.32a1.226 1.226 0 0 0-1.73.031L5.19 6.49a1.22 1.22 0 0 0 1.755 1.693l4.702-6.138a1.232 1.232 0 0 0-.024-1.723Z"/>
    </g>
    <defs>
        <clipPath id="aaa">
            <path d="M0 0h12v8.571H0z"/>
        </clipPath>
    </defs>
</symbol><symbol viewBox="0 0 291.49 492" id="arrow-left" xmlns="http://www.w3.org/2000/svg">
    <path d="M198.608 246.104 382.664 62.04c5.068-5.056 7.856-11.816 7.856-19.024 0-7.212-2.788-13.968-7.856-19.032l-16.128-16.12C361.476 2.792 354.712 0 347.504 0s-13.964 2.792-19.028 7.864L109.328 227.008c-5.084 5.08-7.868 11.868-7.848 19.084-.02 7.248 2.76 14.028 7.848 19.112l218.944 218.932c5.064 5.072 11.82 7.864 19.032 7.864 7.208 0 13.964-2.792 19.032-7.864l16.124-16.12c10.492-10.492 10.492-27.572 0-38.06L198.608 246.104z"/>
</symbol><symbol viewBox="0 0 35.14 31.42" id="back" xmlns="http://www.w3.org/2000/svg">
    <path d="M2.476 14.143H34c.842 0 1.524.682 1.524 1.524v.667c0 .842-.682 1.524-1.524 1.524H2.476a1.524 1.524 0 0 1-1.524-1.524v-.667c0-.842.682-1.524 1.524-1.524z"/>
    <path d="M.868 15.3c.482-.482 2.787-.482 3.269 0l14.186 14.186c.482.482-1.042 1.264-1.524 1.746s-1.263.482-1.745 0L.868 17.046a1.234 1.234 0 0 1 0-1.745z"/>
    <path d="M.868 16.709c.482.482 2.787.482 3.269 0L18.323 2.523c.482-.482-1.042-1.263-1.524-1.746s-1.263-.482-1.745 0L.868 14.963a1.234 1.234 0 0 0 0 1.745z"/>
</symbol><symbol viewBox="0 0 10 12" id="book" xmlns="http://www.w3.org/2000/svg">
    <g clip-path="url(#ada)">
        <path fill-rule="evenodd" clip-rule="evenodd" d="M10 0H1.5C1.102 0 .72.156.44.433.157.71 0 1.085 0 1.477v8.864c0 .392.158.768.44 1.045.28.277.662.432 1.06.432H10V1.97H8v3.94l-1-.986-1 .985V1.97H1.75a.504.504 0 0 1-.354-.144.489.489 0 0 1 0-.696.504.504 0 0 1 .354-.144H10V0Z"/>
    </g>
    <defs>
        <clipPath id="ada">
            <path d="M0 0h10v11.818H0z"/>
        </clipPath>
    </defs>
</symbol><symbol viewBox="0 0 34 29.9" id="burger" xmlns="http://www.w3.org/2000/svg">
    <path d="M2.4 1.05h29.2a2.4 2.4 0 0 1 2.4 2.4v.65a2.4 2.4 0 0 1-2.4 2.4H2.4A2.4 2.4 0 0 1 0 4.1v-.65a2.4 2.4 0 0 1 2.4-2.4zm0 24.45h29.2a2.4 2.4 0 0 1 2.4 2.4v.65a2.4 2.4 0 0 1-2.4 2.4H2.4a2.4 2.4 0 0 1-2.4-2.4v-.65a2.4 2.4 0 0 1 2.4-2.4zm0-12.2h29.2a2.4 2.4 0 0 1 2.4 2.4v.6a2.4 2.4 0 0 1-2.4 2.4H2.4A2.4 2.4 0 0 1 0 16.3v-.6a2.4 2.4 0 0 1 2.4-2.4z"/>
</symbol><symbol viewBox="0 0 12 12" id="c-plus" xmlns="http://www.w3.org/2000/svg">
    <path d="M12 5H0v2h12V5Z"/>
    <path d="M7 0H5v12h2V0Z"/>
</symbol><symbol viewBox="0 0 20 18" id="calculator" xmlns="http://www.w3.org/2000/svg">
    <g clip-path="url(#aga)">
        <path d="M15.456 0H4.8C2.699 0 .995 1.68.995 3.75v10.5C.995 16.32 2.7 18 4.801 18h10.655c2.102 0 3.805-1.68 3.805-3.75V3.75c0-2.07-1.703-3.75-3.805-3.75ZM2.517 3.75c0-1.24 1.025-2.25 2.284-2.25h4.566v6.75h-6.85v-4.5Zm0 10.5v-4.5h6.85v6.75H4.801c-1.26 0-2.284-1.01-2.284-2.25Zm15.222 0c0 1.24-1.024 2.25-2.283 2.25h-4.567V9.75h6.85v4.5Zm0-6h-6.85V1.5h4.567c1.259 0 2.283 1.01 2.283 2.25v4.5Zm-1.522 4.5H12.41V12h3.806v.75ZM12.41 4.5h3.806v.75H12.41V4.5Zm0 9.75v-.75h3.806v.75H12.41Zm-4.566-1.5v.75H6.323V15h-.761v-1.5H4.039v-.75h1.523v-1.5h.76v1.5h1.523ZM6.48 4.875l1.076 1.06-.538.53-1.076-1.06-1.076 1.06-.539-.53 1.076-1.06-1.076-1.06.538-.53 1.077 1.06L7.02 3.284l.539.53L6.48 4.875Zm7.454-1.5c0-.207.17-.375.38-.375s.38.168.38.375-.17.375-.38.375a.378.378 0 0 1-.38-.375Zm.76 3c0 .207-.17.375-.38.375a.378.378 0 0 1-.38-.375c0-.207.17-.375.38-.375s.38.168.38.375Z"/>
    </g>
    <defs>
        <clipPath id="aga">
            <path transform="translate(.995)" d="M0 0h18.266v18H0z"/>
        </clipPath>
    </defs>
</symbol><symbol viewBox="0 0 13 13" id="calendar" xmlns="http://www.w3.org/2000/svg">
    <g clip-path="url(#aha)">
        <path d="M2.786.813c0-.45.415-.813.928-.813.514 0 .929.364.929.813v.812h3.714V.812c0-.448.415-.812.929-.812.513 0 .928.364.928.813v.812h1.393c.77 0 1.393.546 1.393 1.219v1.219H0v-1.22c0-.672.624-1.218 1.393-1.218h1.393V.812ZM13 11.78c0 .673-.624 1.219-1.393 1.219H1.393C.623 13 0 12.454 0 11.781V4.875h13v6.906Z"/>
    </g>
    <defs>
        <clipPath id="aha">
            <path d="M0 0h13v13H0z"/>
        </clipPath>
    </defs>
</symbol><symbol viewBox="0 0 19 18" id="camera" xmlns="http://www.w3.org/2000/svg">
    <path d="M7.221.596h4.557c.769 0 1.448.49 1.689 1.218l.386 1.157h2.772A2.377 2.377 0 0 1 19 5.346v9.5a2.377 2.377 0 0 1-2.375 2.375H2.375A2.376 2.376 0 0 1 0 14.846v-9.5A2.376 2.376 0 0 1 2.375 2.97h2.772l.386-1.157A1.777 1.777 0 0 1 7.221.596ZM9.5 13.658a3.563 3.563 0 0 0 3.563-3.562c0-2-1.596-3.563-3.563-3.563-2 0-3.563 1.563-3.563 3.563A3.542 3.542 0 0 0 9.5 13.658Z" fill-opacity=".6"/>
</symbol><symbol class="ajicon" viewBox="0 0 491.996 491.996" xml:space="preserve" id="caret" xmlns="http://www.w3.org/2000/svg">
    <path d="m484.132 124.986-16.116-16.228c-5.072-5.068-11.82-7.86-19.032-7.86-7.208 0-13.964 2.792-19.036 7.86l-183.84 183.848L62.056 108.554c-5.064-5.068-11.82-7.856-19.028-7.856s-13.968 2.788-19.036 7.856l-16.12 16.128c-10.496 10.488-10.496 27.572 0 38.06l219.136 219.924c5.064 5.064 11.812 8.632 19.084 8.632h.084c7.212 0 13.96-3.572 19.024-8.632l218.932-219.328c5.072-5.064 7.856-12.016 7.864-19.224 0-7.212-2.792-14.068-7.864-19.128z"/>
</symbol><symbol viewBox="0 0 8 6" id="check" xmlns="http://www.w3.org/2000/svg">
    <g clip-path="url(#aka)" fill-rule="evenodd" clip-rule="evenodd">
        <path d="M1.292 2.236a.867.867 0 0 1 .615-.27.851.851 0 0 1 .62.258l2.15 2.138a.903.903 0 0 1-.002 1.249.863.863 0 0 1-1.222.024l-2.15-2.138a.901.901 0 0 1-.01-1.26Z"/>
        <path d="M7.583.459a.867.867 0 0 0-.614-.27.851.851 0 0 0-.62.258L3.618 4.362a.903.903 0 0 0 .001 1.249.863.863 0 0 0 1.222.024L7.573 1.72a.901.901 0 0 0 .01-1.261Z"/>
    </g>
    <defs>
        <clipPath id="aka">
            <path transform="translate(.454 .188)" d="M0 0h7.382v5.704H0z"/>
        </clipPath>
    </defs>
</symbol><symbol viewBox="0 0 9 10" id="check2" xmlns="http://www.w3.org/2000/svg">
    <g clip-path="url(#ala)">
        <path d="M8.811 2.058a.611.611 0 0 1 0 .883l-5.143 5a.654.654 0 0 1-.908 0l-2.572-2.5a.612.612 0 0 1 0-.883.656.656 0 0 1 .91 0l2.098 2.057 4.707-4.557a.654.654 0 0 1 .908 0Z"/>
    </g>
    <defs>
        <clipPath id="ala">
            <path d="M0 0h9v10H0z"/>
        </clipPath>
    </defs>
</symbol><symbol viewBox="0 0 32 24.62" id="checked" xmlns="http://www.w3.org/2000/svg">
    <path d="M.369 17.231C.123 16.985 0 16.616 0 16.369s.123-.615.369-.862l1.723-1.723a1.19 1.19 0 0 1 1.723 0l.123.123 6.769 7.262a.596.596 0 0 0 .862 0L28.061 4.061h.123a1.19 1.19 0 0 1 1.723 0l1.723 1.723a1.19 1.19 0 0 1 0 1.723L11.938 27.938c-.246.246-.492.369-.862.369s-.615-.123-.862-.369L.614 17.6l-.246-.369z"/>
</symbol><symbol viewBox="0 0 8 8" id="circle" xmlns="http://www.w3.org/2000/svg">
    <circle cx="4" cy="4" r="4"/>
</symbol><symbol viewBox="0 0 24 24" id="close" xmlns="http://www.w3.org/2000/svg">
    <path d="m13 12 5-5-1-1-5 5-5-5-1 1 5 5-5 5 1 1 5-5 5 5 1-1z"/>
</symbol><symbol viewBox="0 0 17 17" id="close-2" xmlns="http://www.w3.org/2000/svg">
    <path fill-rule="evenodd" clip-rule="evenodd" d="M.52.269a1.03 1.03 0 0 1 1.46 0l14.35 14.347a1.035 1.035 0 0 1-1.46 1.464L.52 1.733a1.043 1.043 0 0 1 0-1.464Z"/>
    <path fill-rule="evenodd" clip-rule="evenodd" d="M16.1.269a1.03 1.03 0 0 0-1.46 0L.29 14.616a1.034 1.034 0 0 0 1.46 1.464L16.1 1.733a1.043 1.043 0 0 0 0-1.464Z"/>
</symbol><symbol viewBox="0 0 32 29.33" id="comment" xmlns="http://www.w3.org/2000/svg">
    <path d="M16 4c7.352 0 13.333 4.789 13.333 10.676 0 6.556-6.86 10.615-13.213 10.615-2.583 0-4.511-.529-5.859-.859-1.333.817-2.127 1.383-5.696 2.427.713-1.831.964-3.664.803-5.687-1.117-1.333-2.7-3.2-2.7-6.496C2.667 8.789 8.648 4 16 4zm0-2.667c-8.451 0-16 5.635-16 13.343 0 2.733.984 5.417 2.729 7.5.073 2.44-1.364 5.941-2.657 8.491 3.469-.627 8.401-2.011 10.637-3.381 1.891.46 3.7.671 5.412.671 9.445 0 15.88-6.449 15.88-13.281C32 6.928 24.398 1.335 16 1.335zm-4.667 13.334a2 2 0 1 1-3.999.001 2 2 0 0 1 3.999-.001zm4.667-2a2 2 0 1 0 0 4 2 2 0 0 0 0-4zm6.667 0a2 2 0 1 0 0 4 2 2 0 0 0 0-4z"/>
</symbol><symbol viewBox="0 0 166 166" id="comment-pen" xmlns="http://www.w3.org/2000/svg">
    <path d="M83 10.082C37.155 10.082.292 40.264.292 77.52c0 16.078 6.931 30.509 18.47 42.375-4.052 16.337-17.608 30.898-17.77 31.06-.71.745-.902 1.849-.486 2.822a2.553 2.553 0 0 0 2.37 1.555c21.5 0 37.61-10.31 45.585-16.668 10.609 3.991 22.375 6.293 34.822 6.293 45.844 0 82.708-30.181 82.708-67.146 0-36.964-37.147-67.729-82.991-67.729Zm-13.26 99.146a4.534 4.534 0 0 1-2.32 1.241l-18.011 3.602a2.268 2.268 0 0 1-2.67-2.669l3.602-18.007a4.536 4.536 0 0 1 1.243-2.32L83.23 59.427l18.156 18.16-31.648 31.641Zm46.914-46.914-7.937 7.937-18.156-18.16 7.937-7.937a9.082 9.082 0 0 1 12.839 0l5.32 5.32c3.531 3.567 3.531 9.306-.003 12.84Z"/>
</symbol><symbol viewBox="0 0 20 20" id="copy" xmlns="http://www.w3.org/2000/svg">
    <path d="M13.333.833h-10c-.921 0-1.667.746-1.667 1.667v11.667h1.667V2.5h10V.833Zm2.5 3.334H6.666c-.92 0-1.667.745-1.667 1.666V17.5c0 .92.746 1.667 1.667 1.667h9.167c.92 0 1.666-.746 1.666-1.667V5.833c0-.92-.745-1.666-1.666-1.666Zm0 13.333H6.666V5.833h9.167V17.5Z"/>
</symbol><symbol viewBox="0 0 58 42" id="delivery" xmlns="http://www.w3.org/2000/svg">
    <path d="M47.563 12.75h-6.188V6.562A6.187 6.187 0 0 0 35.187.375H6.314A6.187 6.187 0 0 0 .125 6.563v28.875A2.063 2.063 0 0 0 2.188 37.5h6.558a6.187 6.187 0 0 0 11.633 0h21.367a6.187 6.187 0 0 0 11.633 0h2.434a2.062 2.062 0 0 0 2.062-2.063V23.063A10.312 10.312 0 0 0 47.562 12.75Zm-33 24.75a2.063 2.063 0 1 1 0-4.126 2.063 2.063 0 0 1 0 4.126Zm22.687-4.125H20.379a6.187 6.187 0 0 0-11.633 0H4.25v-6.188h33v6.188Zm0-10.313h-33v-16.5A2.063 2.063 0 0 1 6.313 4.5h28.875a2.063 2.063 0 0 1 2.062 2.063v16.5ZM47.563 37.5a2.063 2.063 0 1 1 0-4.126 2.063 2.063 0 0 1 0 4.126Zm6.187-4.125h-.371a6.187 6.187 0 0 0-11.633 0h-.371v-16.5h2.063v8.25a2.062 2.062 0 0 0 2.062 2.063h8.25v6.187Zm-6.188-10.313v-6.187a6.187 6.187 0 0 1 6.188 6.188h-6.188Z"/>
</symbol><symbol viewBox="0 0 15 15" id="dislike" xmlns="http://www.w3.org/2000/svg">
    <path d="M2.813.939H.937c-.517 0-.937.42-.937.91v6.537c0 .518.42.911.938.911h1.875c.517 0 .937-.42.937-.911v-6.51a.937.937 0 0 0-.938-.937ZM13.69 7.037c.229-.249.373-.58.373-.946 0-.688-.495-1.258-1.147-1.38.13-.211.209-.46.209-.753a1.4 1.4 0 0 0-.974-1.331c.022-.075.037-.177.037-.284 0-.776-.63-1.405-1.407-1.405h-1.72c-1.013 0-2 .328-2.81.936l-1.001.75a1.395 1.395 0 0 0-.563 1.1l.004 4.687s-.001 0 0 0c.002.41.179.819.524 1.095l.478.381c2.399 1.946 1.32 4.175 3.17 4.175.906 0 1.449-.718 1.449-1.409 0-.444-.345-1.703-1.012-2.813h4.294a1.403 1.403 0 0 0 .097-2.803Z"/>
</symbol><symbol viewBox="0 0 41 19" id="equals" xmlns="http://www.w3.org/2000/svg">
    <path d="m.55 18.062-.012-4 39.915-.124.013 4zM.55 5.062l-.012-4L40.453.938l.013 4z"/>
</symbol><symbol viewBox="0 0 29.95 29.95" id="facebook" xmlns="http://www.w3.org/2000/svg">
    <path d="M31.013 3.989V27.95a3.004 3.004 0 0 1-2.995 2.995H4.058a3.004 3.004 0 0 1-2.995-2.995V3.989A3.004 3.004 0 0 1 4.058.994h23.96a3.004 3.004 0 0 1 2.995 2.995zm-8.237 0c-2.845 0-5.241 2.396-5.241 5.241v3.744H14.54v4.493h2.995V27.95h4.493V17.467h4.492v-4.493h-4.492V9.979c0-.899.599-1.498 1.497-1.498h2.995V3.989z"/>
</symbol><symbol viewBox="0 0 29.54 31.88" id="filter" xmlns="http://www.w3.org/2000/svg">
    <path d="M20.923 14.769c-2.462 2.954-2.708 3.692-2.462 3.692h-3.692c-.246 0-2.215-.246-3.692-2.462L1.231 3.691c0-2.092 1.6-3.692 3.692-3.692h22.154c2.092 0 3.692 1.6 3.692 3.692l-9.846 11.077zM4.677 3.077l11.2 13.415L27.323 3.077H4.677z"/>
    <path d="M13.538 15.877s1.354 2.462 2.585 2.462c1.108 0 2.338-2.462 2.338-2.462v12.308l-4.923 3.692v-16z"/>
</symbol><symbol viewBox="0 0 11 12" id="filter-alt" xmlns="http://www.w3.org/2000/svg">
    <g clip-path="url(#aya)">
        <path fill-rule="evenodd" clip-rule="evenodd" d="m.014-.01 4.437 7.441v2.912l1.972 1.479V7.431L10.86-.01H.014Z"/>
    </g>
    <defs>
        <clipPath id="aya">
            <path d="M0 0h10.875v11.812H0z"/>
        </clipPath>
    </defs>
</symbol><symbol viewBox="0 0 25 25" id="gift" xmlns="http://www.w3.org/2000/svg">
    <path d="M21.6 5.333h-.519c.16-.426.245-.877.253-1.333a4.11 4.11 0 0 0-1.266-2.863A4.093 4.093 0 0 0 17.156 0a5.925 5.925 0 0 0-5.136 3.2A5.925 5.925 0 0 0 6.884 0a4.093 4.093 0 0 0-2.911 1.137A4.11 4.11 0 0 0 2.707 4c.008.456.093.907.253 1.333h-.52A2.657 2.657 0 0 0 .144 7.224c-.101.338-.134.692-.097 1.043v4.8A2.778 2.778 0 0 0 2.042 16v5.827A2.326 2.326 0 0 0 4.45 24H19.59c.613.022 1.21-.2 1.661-.617.451-.417.72-.995.747-1.61V16a2.768 2.768 0 0 0 1.996-2.933v-4.8A2.672 2.672 0 0 0 22.6 5.635a2.657 2.657 0 0 0-1-.302Zm-.266 2.934v4.8a.746.746 0 0 1 0 .266H13.35V8h7.983a.747.747 0 0 1 0 .267Zm-4.178-5.6A1.435 1.435 0 0 1 18.673 4a1.441 1.441 0 0 1-1.517 1.333h-3.273a3.906 3.906 0 0 1 3.273-2.666ZM5.368 4a1.441 1.441 0 0 1 1.517-1.333 3.894 3.894 0 0 1 3.26 2.666h-3.26A1.435 1.435 0 0 1 5.368 4ZM2.707 8.267a.748.748 0 0 1 0-.267h7.983v5.333H2.707a.748.748 0 0 1 0-.266v-4.8ZM4.703 16h5.987v5.333H4.703V16Zm8.648 5.333V16h5.987v5.333h-5.987Z"/>
</symbol><symbol viewBox="0 0 19 19" id="gift-circle" xmlns="http://www.w3.org/2000/svg">
    <path fill-rule="evenodd" clip-rule="evenodd" d="M9.28 0a9.28 9.28 0 1 1 0 18.56A9.28 9.28 0 0 1 9.28 0Zm2.988 13.494H9.644v-2.999h3v2.624a.375.375 0 0 1-.376.375Zm-6.373-.375v-2.624h3v3H6.27a.375.375 0 0 1-.375-.376Zm.375-6.373h2.624v2.999H5.895V7.121a.375.375 0 0 1 .375-.375Zm.641-1.436a.918.918 0 0 1 1.294-1.297c.454.457.88 1.63.608 1.905a.405.405 0 0 1-.293.079h-.098a2.94 2.94 0 0 1-1.51-.684V5.31Zm3.42-1.297a.918.918 0 1 1 1.293 1.297 2.94 2.94 0 0 1-1.525.684h-.08c-.1.01-.2-.019-.28-.08-.29-.27.138-1.444.591-1.901Zm2.312 3.108v2.624H9.644V6.746h2.625a.375.375 0 0 1 .374.375Zm-.375-1.125h-.293a1.665 1.665 0 1 0-2.174-2.511 3.145 3.145 0 0 0-.533.78 3.146 3.146 0 0 0-.532-.78 1.665 1.665 0 1 0-2.175 2.51h-.293a1.124 1.124 0 0 0-1.123 1.126v5.998a1.124 1.124 0 0 0 1.124 1.124h6a1.124 1.124 0 0 0 1.123-1.124V7.121a1.126 1.126 0 0 0-1.124-1.125Z"/>
</symbol><symbol viewBox="0 0 27 35" id="gift2" xmlns="http://www.w3.org/2000/svg">
    <path d="M22.75 9.312h-.902c.195-.15.38-.312.555-.485a5.134 5.134 0 1 0-7.261-7.262A9.7 9.7 0 0 0 13.5 3.982a9.7 9.7 0 0 0-1.642-2.417 5.134 5.134 0 1 0-7.261 7.262c.175.173.36.335.555.485H4.25a3.469 3.469 0 0 0-3.469 3.47v18.5A3.469 3.469 0 0 0 4.25 34.75h18.5a3.468 3.468 0 0 0 3.469-3.469v-18.5a3.469 3.469 0 0 0-3.469-3.469Zm1.156 3.47v8.093h-9.25v-9.25h8.094a1.156 1.156 0 0 1 1.156 1.156Zm-7.134-9.586a2.833 2.833 0 1 1 4 4 9.065 9.065 0 0 1-4.705 2.116h-.255c-.309.03-.618-.057-.867-.242-.89-.845.428-4.464 1.827-5.874Zm-10.545 4a2.833 2.833 0 0 1 4-4c1.4 1.41 2.718 5.03 1.874 5.873-.261.198-.589.285-.914.243h-.3a9.065 9.065 0 0 1-4.66-2.116ZM4.25 11.625h8.094v9.25h-9.25V12.78a1.156 1.156 0 0 1 1.156-1.156ZM3.094 31.28v-8.094h9.25v9.25H4.25a1.156 1.156 0 0 1-1.156-1.156Zm19.656 1.156h-8.094v-9.25h9.25v8.094a1.157 1.157 0 0 1-1.156 1.156Z"/>
</symbol><symbol viewBox="0 0 14 13" id="grid" xmlns="http://www.w3.org/2000/svg">
    <path d="M6 7H0v6h6V7ZM6 0H0v6h6V0ZM14 7H8v6h6V7ZM14 0H8v6h6V0Z"/>
</symbol><symbol viewBox="0 0 32 17.32" id="icon-arrow-down" xmlns="http://www.w3.org/2000/svg">
    <path d="M30.685 7.344 32 8.659l-15.999 16L0 8.656l1.315-1.315 14.687 14.687L30.685 7.344z"/>
</symbol><symbol viewBox="0 0 19 19" id="info" xmlns="http://www.w3.org/2000/svg">
    <path d="M9.28.371a8.909 8.909 0 1 0 0 17.819A8.91 8.91 0 0 0 9.28.37Zm.832 3.217c.869 0 1.124.504 1.124 1.08 0 .719-.575 1.384-1.558 1.384-.822 0-1.214-.413-1.19-1.096 0-.577.482-1.368 1.624-1.368ZM7.887 14.616c-.594 0-1.027-.361-.613-1.943l.68-2.807c.119-.45.138-.63 0-.63-.177 0-.948.31-1.402.617l-.296-.486c1.443-1.205 3.102-1.912 3.812-1.912.594 0 .692.701.396 1.781l-.78 2.951c-.138.522-.078.702.06.702.178 0 .76-.215 1.334-.667l.336.45c-1.404 1.404-2.934 1.944-3.527 1.944Z"/>
</symbol><symbol viewBox="0 0 29.93 29.93" id="instagram" xmlns="http://www.w3.org/2000/svg">
    <path d="M26.997 8.598c0 .635-.515 1.151-1.152 1.151h-2.711a1.15 1.15 0 0 1-1.151-1.151V5.886a1.15 1.15 0 0 1 1.151-1.151h2.711a1.15 1.15 0 0 1 1.152 1.151zm0 17.436a1.15 1.15 0 0 1-1.152 1.15H5.7a1.15 1.15 0 0 1-1.152-1.15V13.465h2.366a9.45 9.45 0 0 0-.25 1.211c-.062.42-.101.846-.101 1.282a9.21 9.21 0 1 0 18.418 0c0-.436-.039-.863-.101-1.282a9.45 9.45 0 0 0-.25-1.211h2.366zm-11.225-15.83a5.756 5.756 0 1 1-5.756 5.755 5.755 5.755 0 0 1 5.756-5.755zM27.285.994H4.259A3.454 3.454 0 0 0 .806 4.447V27.47a3.455 3.455 0 0 0 3.453 3.455h23.026a3.454 3.454 0 0 0 3.453-3.455V4.447A3.452 3.452 0 0 0 27.285.994z"/>
</symbol><symbol viewBox="0 0 15 15" id="like" xmlns="http://www.w3.org/2000/svg">
    <path d="M3.75 13.099V6.536c0-.518-.42-.911-.938-.911H.938c-.518 0-.938.42-.938.911v6.536c0 .518.42.911.938.911h1.875c.518.053.937-.342.937-.884ZM15 6.565c0-.776-.63-1.405-1.406-1.405H9.302c.667-1.11 1.011-2.37 1.011-2.813 0-.691-.542-1.41-1.45-1.41-1.85 0-.773 2.231-3.17 4.149l-.478.38a1.412 1.412 0 0 0-.525 1.096c0 .001 0 0 0 0l-.003 4.688c0 .442.209.86.563 1.125l1 .75c.81.61 1.798.938 2.812.938h1.72a1.406 1.406 0 0 0 1.369-1.715 1.4 1.4 0 0 0 .974-1.332c0-.268-.079-.516-.21-.73a1.396 1.396 0 0 0 .774-2.324C14.42 7.913 15 7.31 15 6.565Z"/>
</symbol><symbol viewBox="0 0 28.38 28.38" id="list" xmlns="http://www.w3.org/2000/svg">
    <path d="M14.188 0c7.836 0 14.188 6.352 14.188 14.188s-6.352 14.188-14.188 14.188S0 22.024 0 14.188 6.352 0 14.188 0z"/>
</symbol><symbol viewBox="0 0 31.41 23.89" id="list-table" xmlns="http://www.w3.org/2000/svg">
    <path d="M29.76 8.907H24.8c-.913 0-1.653-.74-1.653-1.653 0-.914.74-3.307 1.653-3.307h4.96c.914 0 1.653 2.393 1.653 3.307s-.74 1.653-1.653 1.653zM18.187 27.84h-4.96c-.913 0-1.653-.74-1.653-1.653 0-.914.74-3.307 1.653-3.307h4.96c.914 0 1.653 2.393 1.653 3.307s-.74 1.653-1.653 1.653zm0-8.889h-4.96c-.913 0-1.653-.74-1.653-1.653 0-.914.74-3.307 1.653-3.307h4.96c.914 0 1.653 2.393 1.653 3.307s-.74 1.653-1.653 1.653zm0-10.044h-4.96c-.913 0-1.653-.74-1.653-1.653 0-.914.74-3.307 1.653-3.307h4.96c.914 0 1.653 2.393 1.653 3.307s-.74 1.653-1.653 1.653zM6.613 27.84h-4.96C.74 27.84 0 27.1 0 26.187c0-.914.74-3.307 1.653-3.307h4.96c.914 0 1.653 2.393 1.653 3.307s-.74 1.653-1.653 1.653zm0-8.889h-4.96C.74 18.951 0 18.211 0 17.298c0-.914.74-3.307 1.653-3.307h4.96c.914 0 1.653 2.393 1.653 3.307s-.74 1.653-1.653 1.653zm0-10.044h-4.96C.74 8.907 0 8.167 0 7.254c0-.914.74-3.307 1.653-3.307h4.96c.914 0 1.653 2.393 1.653 3.307s-.74 1.653-1.653 1.653zM24.8 13.991h4.96c.914 0 1.653 2.393 1.653 3.307s-.74 1.653-1.653 1.653H24.8c-.913 0-1.653-.74-1.653-1.653 0-.914.74-3.307 1.653-3.307z"/>
</symbol><symbol viewBox="0 0 16 12" id="menu" xmlns="http://www.w3.org/2000/svg">
    <g clip-path="url(#bja)">
        <path fill-rule="evenodd" clip-rule="evenodd" d="M.813 4.999H14.25a.813.813 0 0 1 0 1.625H.813a.813.813 0 0 1 0-1.625Zm.016-5h13.405a.828.828 0 0 1 0 1.656H.828a.828.828 0 1 1 0-1.656h.001Zm0 9.969h13.405a.828.828 0 0 1 0 1.656H.828a.828.828 0 1 1 0-1.656h.001Z"/>
    </g>
    <defs>
        <clipPath id="bja">
            <path d="M0 0h15.063v11.625H0z"/>
        </clipPath>
    </defs>
</symbol><symbol viewBox="0 0 38.37 30.69" id="message" xmlns="http://www.w3.org/2000/svg">
    <path d="M38.384 3.829v23.02a3.849 3.849 0 0 1-3.837 3.837H3.853a3.849 3.849 0 0 1-3.837-3.837V3.829A3.849 3.849 0 0 1 3.853-.008h30.694a3.849 3.849 0 0 1 3.837 3.837zm-3.837 0L19.2 13.421 3.853 3.829v3.837L19.2 17.258l15.347-9.592z"/>
</symbol><symbol viewBox="0 0 32 32" id="messenger" xmlns="http://www.w3.org/2000/svg">
    <path d="M32 14.815c0 8.182-7.163 14.815-16 14.815-1.595 0-3.135-.217-4.589-.619l-5.448 2.99v-5.649C2.327 23.636 0 19.478 0 14.815 0 6.633 7.163 0 16 0s16 6.633 16 14.815zm-5.665-4.148-7.851 4.346-4.174-4.346-8.745 9.284 7.95-4.346 4.075 4.346z"/>
</symbol><symbol viewBox="0 0 17 8" id="messenger2" xmlns="http://www.w3.org/2000/svg">
    <path fill-rule="evenodd" clip-rule="evenodd" d="M9.842 7.65 6.507 4.069 0 7.65 7.158 0l3.416 3.581L17 0 9.842 7.65Z"/>
</symbol><symbol viewBox="0 0 12 12" id="minus" xmlns="http://www.w3.org/2000/svg">
    <path d="M12 5H0v2h12V5Z"/>
</symbol><symbol viewBox="0 0 28.11 16.65" id="monoad1" xmlns="http://www.w3.org/2000/svg">
    <path d="M25.475 14.269c.081.081.194.125.3.125s.219-.044.3-.125a.426.426 0 0 0 0-.606l-.606-.606c-.169-.169-.438-.169-.606 0s-.169.438 0 .606l.613.606zM23.369 12.156c.081.081.194.125.3.125s.219-.044.3-.125a.426.426 0 0 0 0-.606l-.606-.606c-.169-.169-.438-.169-.606 0s-.169.438 0 .606l.613.606zM25.175 12.281a.433.433 0 0 0 .3-.125l.606-.606c.169-.169.169-.438 0-.606s-.438-.169-.606 0l-.606.606a.427.427 0 0 0 .306.731zM23.063 14.394a.433.433 0 0 0 .3-.125l.606-.606c.169-.169.169-.438 0-.606s-.438-.169-.606 0l-.606.606a.427.427 0 0 0 .306.731zM19.656 14.831c.244 0 .438-.194.438-.438s-.194-.438-.438-.438-.438.194-.438.438.2.438.438.438zM26.819 18.344c.706 0 1.281-.575 1.281-1.281s-.575-1.281-1.281-1.281-1.281.575-1.281 1.281.575 1.281 1.281 1.281zm0-1.707a.425.425 0 1 1 0 .85.425.425 0 0 1 0-.85zM30.925 22.688a1.608 1.608 0 0 0-.762-.5c-.825-1.994-2.394-2.55-3.631-2.381-.925.125-1.7.15-2.363.094h-.012c-2.063-.169-3.075-1.106-4.363-2.294-.825-.762-1.769-1.631-3.119-2.412-.663-.381-1.519-.7-2.256-.338-.563.275-.925.85-1.35 1.275-.412.431-.988.962-1.675 1.387a.552.552 0 0 0-.181.756.553.553 0 0 0 .756.181c.625-.381 1.162-.85 1.588-1.262 2.362 1.275 3.487 2.319 4.4 3.163.394.363.75.694 1.144.994-1.85-.05-3.844.181-5.137 2.094-.012 0-.031-.006-.05-.006-3.325-.419-5.637-.606-9.031-.5a1.735 1.735 0 0 0-.362.05c-.106-1.188-.106-3.231.319-4.738.094-.325.175-.425.2-.45.169 0 .694.337.919.488.15.094.325.206.513.313.263.15.6.056.744-.206a.544.544 0 0 0-.206-.744c-.169-.094-.325-.194-.463-.281-.656-.425-1.281-.831-1.906-.594-.537.2-.75.769-.869 1.175-.538 1.906-.469 4.625-.275 5.794a1.615 1.615 0 0 0-.225.869v2.262c0 .3.244.55.55.55h9.75c.3 0 .55-.244.55-.55v-.106c2.7.337 5.425.656 7.956.656 3.387 0 6.438-.569 8.644-2.425.337-.281.544-.681.575-1.119a1.575 1.575 0 0 0-.369-1.194zm-16.6-6.325c.175-.2.381-.481.656-.556.381-.106.819.15 1.137.331 1.25.719 2.1 1.506 2.925 2.269 1.225 1.131 2.331 2.156 4.325 2.494-.281.413-.806.55-1.681.556-1.438-.462-2.094-1.075-3-1.913-.919-.85-2.05-1.9-4.363-3.181zm15.887 7.431a.535.535 0 0 1-.194.369c-3.619 3.038-10.106 2.231-16.375 1.444a.565.565 0 0 0-.431.131.555.555 0 0 0-.188.413v.175H4.38v-1.743c-.006-.144.05-.281.15-.387s.237-.169.388-.169a50.958 50.958 0 0 1 6.831.256c2.406.256 4.8.613 7.206.813 1.363.113 2.738.175 4.106.125a.545.545 0 0 0 .525-.569.545.545 0 0 0-.569-.525c-2.369.087-5.088-.194-7.787-.525 1.25-1.331 3.144-1.212 4.981-1.1.481.031.95.056 1.394.056h.024c.462 0 .894-.038 1.288-.137.806-.206 1.35-.681 1.613-1.406.106.006.212.006.325.006.55 0 1.15-.044 1.819-.131.481-.063 1.587-.031 2.313 1.369a1.677 1.677 0 0 0-.381.244 5.541 5.541 0 0 1-1 .656.55.55 0 0 0 .5.976c.444-.225.85-.494 1.206-.794a.551.551 0 0 1 .775.069.512.512 0 0 1 .125.387z"/>
    <path d="M25.381 23.875a.548.548 0 0 0 .119 1.081c.038 0 .075-.006.113-.012a.546.546 0 1 0-.231-1.069zM9.25 19.294h.037a.543.543 0 0 0 .506-.587.543.543 0 0 0-.588-.506.543.543 0 0 0-.506.587.55.55 0 0 0 .55.506z"/>
</symbol><symbol viewBox="0 0 32.77 32.74" id="monoad2" xmlns="http://www.w3.org/2000/svg">
    <path d="M31.676 6.921 19.213.078a.625.625 0 0 0-.602 0l-4.697 2.579a.626.626 0 0 0-.268.147L6.149 6.921c-.2.11-.324.32-.324.548v8.277a8.26 8.26 0 0 0-3.387 2.057 8.317 8.317 0 0 0-1.593 9.532.625.625 0 1 0 1.123-.549 7.069 7.069 0 0 1 1.354-8.099c1.335-1.335 3.109-2.07 4.997-2.07s3.662.735 4.997 2.07c1.334 1.334 2.07 3.109 2.07 4.996s-.735 3.662-2.07 4.997a7.069 7.069 0 0 1-8.099 1.354.625.625 0 1 0-.549 1.123 8.323 8.323 0 0 0 9.532-1.593 8.31 8.31 0 0 0 1.72-2.495l2.693 1.479a.619.619 0 0 0 .602 0l12.463-6.843c.2-.11.324-.32.324-.548v-4.343a.625.625 0 0 0-1.25 0v3.974l-11.211 6.156V14.683l3.7-2.032v3.221a.625.625 0 0 0 .926.548l2.671-1.47c.2-.11.323-.32.323-.547v-3.904l3.591-1.971v3.287a.625.625 0 0 0 1.25 0V7.472a.625.625 0 0 0-.324-.548zM18.912 1.338l11.164 6.131-3.522 1.934L15.39 3.272zm0 12.261L7.748 7.469l3.651-2.005 11.165 6.13zm4.95-2.718-11.164-6.13 1.395-.766 11.165 6.13zm-9.664 6.921a8.26 8.26 0 0 0-5.88-2.436c-.42 0-.835.031-1.243.092V8.524l11.215 6.158v12.261l-1.947-1.069a8.341 8.341 0 0 0 .291-2.192 8.26 8.26 0 0 0-2.436-5.88zm11.712-3.771-1.421.782v-2.85l1.421-.78z"/>
    <path d="M31.375 13.684c-.164 0-.326.067-.442.183a.63.63 0 0 0 0 .884.627.627 0 0 0 .884 0 .63.63 0 0 0 0-.884.631.631 0 0 0-.442-.183zM6.216 24.307a.625.625 0 0 0 .442-1.067l-.433-.433h3.694c.896 0 1.625.729 1.625 1.625s-.729 1.625-1.625 1.625H7.73a.625.625 0 0 0 0 1.25h2.189c1.585 0 2.875-1.29 2.875-2.875s-1.29-2.875-2.875-2.875H6.225l.433-.433a.625.625 0 0 0-.884-.884l-1.5 1.5a.625.625 0 0 0 0 .884l1.5 1.5a.623.623 0 0 0 .442.183zM2.88 29.747a.626.626 0 0 1-.478-.222l-.001-.001a.625.625 0 1 1 .479.224z"/>
</symbol><symbol viewBox="0 0 29.89 32" id="monoad3" xmlns="http://www.w3.org/2000/svg">
    <path d="M29.774 21.463a2.519 2.519 0 0 0-2.424-.124l-5.46 2.65v-.288c0-1.384-1.06-2.475-2.445-2.475h-5.289c-1.079 0-2.182-.18-3.213-.498l-3.445-1.074v-1.389c0-.444-.293-.817-.737-.817H1.937c-.444 0-.871.373-.871.817v12.784c0 .444.427.791.871.791h4.824c.444 0 .737-.347.737-.791v-1.287l.575.428C9.53 31.362 11.396 32 13.266 32h4.647a8.187 8.187 0 0 0 4.641-1.426l7.304-4.982a2.465 2.465 0 0 0-.084-4.129zM5.889 30.231H2.673V19.055h3.216v11.176zm23.062-5.963-7.304 4.978a6.592 6.592 0 0 1-3.734 1.146h-4.647c-1.505 0-3.013-.512-4.185-1.455l-1.583-1.239v-6.361l2.97.927a12.58 12.58 0 0 0 3.689.57h5.289c.498 0 .837.369.837.867v.972c-.965.264-3.223.73-5.508.363-.438-.07-.835.228-.905.666s.236.851.674.922c.699.113 1.394.158 2.052.158 2.587 0 4.676-.697 4.812-.743h.002a.598.598 0 0 0 .089-.037l.006-.003 6.584-3.215c.273-.133.576-.117.834.043s.405.427.405.73a.86.86 0 0 1-.375.711zM2.293 10.564c.727.454 1.6.501 2.37.125l5.407-2.65v.288c0 1.384 1.168 2.528 2.552 2.528h5.289c1.079 0 2.129.153 3.16.472l3.392 1.047v1.389c0 .444.4.79.844.79h4.824c.444 0 .764-.345.764-.79V.979c0-.444-.32-.819-.764-.819h-4.824c-.444 0-.844.374-.844.819v1.287l-.522-.442A8.21 8.21 0 0 0 18.802 0h-4.647a8.2 8.2 0 0 0-4.641 1.44L2.21 6.429A2.47 2.47 0 0 0 1.133 8.47c0 .857.434 1.641 1.161 2.095zM26.07 1.769h3.216v11.176H26.07V1.769zM3.116 7.76l7.304-4.992a6.608 6.608 0 0 1 3.734-1.16h4.647a6.6 6.6 0 0 1 4.132 1.469l1.529 1.253v6.361l-2.916-.9a12.204 12.204 0 0 0-3.635-.544h-5.289c-.498 0-.944-.422-.944-.92v-.972c1.045-.264 3.276-.73 5.562-.363.438.07.861-.228.932-.666s-.223-.851-.661-.922c-3.442-.554-6.678.525-6.855.585 0 0 .001 0 0 0l-.002.001a.38.38 0 0 0-.045.019l-.046.019-6.584 3.215c-.273.133-.576.117-.833-.043s-.405-.427-.405-.73c0-.285.14-.55.376-.711z"/>
    <path d="M16.357 13.3a2.524 2.524 0 0 0-3.79 2.18c0 .825.57 1.767 1.744 2.879a16.203 16.203 0 0 0 1.58 1.311.806.806 0 0 0 .932 0c.032-.023.801-.573 1.58-1.311 1.173-1.112 1.744-2.054 1.744-2.879a2.524 2.524 0 0 0-3.789-2.18zm2.182 2.18c0 .512-1.073 1.653-2.182 2.529-1.108-.875-2.181-2.016-2.181-2.529a.915.915 0 0 1 1.589-.617.804.804 0 0 0 1.186 0 .915.915 0 0 1 1.588.617z"/>
</symbol><symbol viewBox="0 0 32 28.35" id="monoad4" xmlns="http://www.w3.org/2000/svg">
    <path d="M29.665 4.642c-1.578-1.791-3.768-2.777-6.165-2.777-3.372 0-5.506 2.014-6.703 3.703-.311.438-.575.878-.797 1.292a12.265 12.265 0 0 0-.797-1.292C14.006 3.879 11.871 1.865 8.5 1.865c-2.397 0-4.587.986-6.165 2.777C.829 6.35 0 8.638 0 11.084c0 2.663 1.04 5.139 3.272 7.794 1.995 2.372 4.865 4.818 8.188 7.65 1.238 1.055 2.519 2.146 3.882 3.339l.041.036a.934.934 0 0 0 1.234 0l.041-.036c1.363-1.193 2.644-2.284 3.882-3.339 3.323-2.832 6.193-5.277 8.188-7.65C30.96 16.223 32 13.747 32 11.084c0-2.446-.829-4.734-2.335-6.443zm-10.34 20.459c-1.067.91-2.166 1.846-3.325 2.853-1.158-1.007-2.257-1.943-3.325-2.853-6.504-5.542-10.8-9.203-10.8-14.016 0-1.989.663-3.837 1.866-5.203A6.258 6.258 0 0 1 8.5 3.74c2.571 0 4.232 1.584 5.174 2.912a11.125 11.125 0 0 1 1.435 2.854.938.938 0 0 0 1.782 0c.15-.461.591-1.662 1.435-2.854.941-1.328 2.603-2.912 5.174-2.912 1.851 0 3.541.761 4.759 2.142 1.204 1.366 1.866 3.213 1.866 5.203 0 4.813-4.297 8.474-10.8 14.016z"/>
</symbol><symbol viewBox="0 0 30 30.01" id="monoad5" xmlns="http://www.w3.org/2000/svg">
    <path d="M8.5 27h-.569a3.457 3.457 0 0 0 .569-1.908v-1.26c0-.29-.05-.569-.141-.828l.005.017-1.546-4.497a1.51 1.51 0 0 0-1.007-1.047l-.011-.003.942-3.521a1.483 1.483 0 0 0-.59-1.618l-.005-.003a1.382 1.382 0 0 0-.44-.212l-.01-.002a1.395 1.395 0 0 0-.392-.056h-.022c-.678 0-1.25.455-1.427 1.077l-.003.01-2.668 8.2a2.53 2.53 0 0 0-.065 1.307l-.003-.017.771 2.996c.07.261.11.561.111.87v.494h-.5a.5.5 0 0 0-.5.5v3a.5.5 0 0 0 .5.5h7a.5.5 0 0 0 .5-.5v-3a.5.5 0 0 0-.5-.5zm-5.642-1.615-.765-2.97a1.492 1.492 0 0 1 .048-.769l-.003.011 2.677-8.227a.495.495 0 0 1 .614-.346l-.003-.001c.058.015.11.04.154.074l-.001-.001a.492.492 0 0 1 .199.543l.001-.003-1.032 3.855a1.49 1.49 0 0 0-.875 1.355V18.932c0 .131.018.258.053.378l-.002-.01.905 3.381a.5.5 0 1 0 .965-.262l.001.003-.907-3.392a.424.424 0 0 1-.015-.11V18.906c0-.213.137-.394.328-.459l.003-.001a.97.97 0 0 1 .066-.021.506.506 0 0 1 .593.39l.001.003 1.556 4.529c.052.145.082.312.082.486v1.261c0 .516-.157.996-.426 1.394l.006-.009-.348.521H3.001v-.494c0-.399-.052-.785-.149-1.153l.007.031zM8 30H2v-2h6zM23 27.5v3a.5.5 0 0 0 .5.5h7a.5.5 0 0 0 .5-.5v-3a.5.5 0 0 0-.5-.5H30v-.495c0-.31.04-.61.116-.896l-.005.024.771-2.996a2.492 2.492 0 0 0-.074-1.308l.005.018-2.668-8.197a1.486 1.486 0 0 0-1.429-1.085h-.013.001-.008a1.4 1.4 0 0 0-.402.058l.01-.003a1.384 1.384 0 0 0-.454.217l.004-.003a1.484 1.484 0 0 0-.593 1.631l-.003-.01.94 3.522c-.498.154-.88.546-1.016 1.039l-.002.011-1.547 4.497a2.44 2.44 0 0 0-.136.81v1.258c0 .71.213 1.37.577 1.921L24.066 27h-.569a.5.5 0 0 0-.5.5zm6-.994V27h-3.733l-.348-.521a2.473 2.473 0 0 1-.42-1.385v-1.261c0-.174.03-.341.085-.497l-.003.01 1.556-4.529a.508.508 0 0 1 .597-.394l-.003-.001c.008 0 .055.017.067.021a.486.486 0 0 1 .332.46V18.916a.41.41 0 0 1-.015.112l.001-.003-.909 3.392a.5.5 0 0 0 .965.263l.001-.003.905-3.381c.032-.11.05-.237.05-.368v-.021.001-.006c0-.599-.354-1.114-.864-1.35l-.009-.004-1.032-3.855a.494.494 0 0 1 .198-.538l.002-.001a.418.418 0 0 1 .15-.072l.003-.001a.494.494 0 0 1 .61.344l.001.003 2.677 8.227a1.46 1.46 0 0 1 .043.768l.002-.01-.765 2.97c-.09.337-.142.723-.142 1.122zM24 28h6v2h-6zM24.2 4.542l-8-3.5a.5.5 0 0 0-.403.001l.003-.001-8 3.5A.5.5 0 0 0 7.5 5v10a.5.5 0 0 0 .27.444l.003.001 8 4.07a.506.506 0 0 0 .454.001l-.003.001 8-4.02a.5.5 0 0 0 .276-.447V5a.5.5 0 0 0-.297-.457l-.003-.001zM16 2.046 22.753 5 16 7.954l-1.755-.768 2.671-1.168a.5.5 0 0 0 .003-.915l-.003-.001-2.146-.936a.5.5 0 0 0-.403.001l.003-.001-3.515 1.537L9.251 5zm-4.5 5.031 1 .438v2.176l-1-.5zm.6-.828 2.468-1.079.895.391L13 6.64zm-3.6-.485 2 .875V9.5a.5.5 0 0 0 .274.446l.003.001 2 1a.5.5 0 0 0 .723-.447V7.95l2 .875v9.43l-7-3.561zm8 12.495V8.827l7-3.063v8.977z"/>
    <path d="m19.279 14.617-2.003 1.007a.5.5 0 1 0 .453.892l-.003.001 2.003-1.007a.5.5 0 1 0-.453-.892l.003-.001zM17.5 14.57c.082 0 .159-.02.227-.054l-.003.001 1.975-.992a.5.5 0 1 0-.453-.892l.003-.001-1.974.992a.501.501 0 0 0 .225.947z"/>
</symbol><symbol viewBox="0 0 32.21 30.61" id="monoad6" xmlns="http://www.w3.org/2000/svg">
    <path d="M31.961 12.339c-.058-.18-.269-.596-.959-.596H20.201L16.864 1.47c-.214-.657-.676-.728-.865-.728s-.652.071-.863.728l-3.339 10.273H.997c-.711 0-.913.457-.957.592-.047.14-.156.63.422 1.051l8.739 6.349-3.339 10.276c-.144.454-.027.75.096.915.275.38.856.426 1.303.098L16 24.676l8.737 6.348c.216.157.427.236.646.236a.81.81 0 0 0 .661-.332c.122-.169.238-.467.093-.918l-3.339-10.273 8.742-6.35c.554-.405.479-.866.422-1.046zM21.535 18.88a.719.719 0 0 0-.262.802l2.999 9.23-7.855-5.707a.738.738 0 0 0-.84.002l-7.851 5.705 2.999-9.232a.716.716 0 0 0-.26-.8l-7.852-5.704h9.705a.71.71 0 0 0 .681-.496l2.999-9.229 2.999 9.231a.718.718 0 0 0 .682.494h9.704l-7.849 5.704z"/>
</symbol><symbol viewBox="0 0 32 32" id="more" xmlns="http://www.w3.org/2000/svg">
    <path d="m16.625 21.275 4.831-6.644a.8.8 0 0 0-.643-1.276h-9.662c-.3 0-.581.169-.713.438a.823.823 0 0 0-.088.363c0 .162.05.331.156.469l4.825 6.644a.798.798 0 0 0 .644.331.75.75 0 0 0 .65-.325z"/>
    <path d="M32 16c0-8.838-7.163-16-16-16S0 7.162 0 16s7.162 16 16 16 16-7.163 16-16zM2.669 16c0-7.363 5.963-13.325 13.325-13.325 7.356 0 13.331 5.969 13.331 13.325s-5.969 13.325-13.331 13.325C8.638 29.325 2.669 23.362 2.669 16z"/>
</symbol><symbol viewBox="0 0 15 15" id="pencil" xmlns="http://www.w3.org/2000/svg">
    <path d="M13.901 1.099A3.736 3.736 0 0 0 11.25 0c-.96 0-1.92.366-2.651 1.099L.015 9.682 0 15h5.303L13.9 6.401a3.748 3.748 0 0 0 0-5.302ZM4.526 13.125h-.02a1.893 1.893 0 0 0 0-2.666c-.701-.701-1.809-.71-2.545-.07l7.947-7.946 2.651 2.65-8.033 8.032Z"/>
</symbol><symbol viewBox="0 0 30.72 23.04" id="photo" xmlns="http://www.w3.org/2000/svg">
    <path d="M29.44 12.83H8.96v12.8h20.48v-12.8zM32 10.27v17.92H6.4V10.27H32zm-3.84-2.56V5.15H1.28v19.2h2.56V7.71h24.32zm-6.633 8.004-2.502 3.828-1.914-2.356-4.71 5.888h14.72l-5.594-7.36zm-8.727.956a1.28 1.28 0 1 1 2.56 0 1.28 1.28 0 1 1-2.56 0z"/>
</symbol><symbol viewBox="0 0 52 60" id="pin" xmlns="http://www.w3.org/2000/svg">
    <g clip-path="url(#bxa)" stroke-width="5" stroke-linecap="round" stroke-linejoin="round">
        <path clip-rule="evenodd" d="M49.4 24.621C49.4 41.856 26 56.63 26 56.63S2.6 41.856 2.6 24.62c0-5.877 2.465-11.513 6.853-15.669 4.389-4.155 10.34-6.49 16.547-6.49 6.206 0 12.158 2.335 16.546 6.49 4.388 4.156 6.854 9.792 6.854 15.67v0Z"/>
        <path d="M26 32.008c4.307 0 7.8-3.308 7.8-7.387 0-4.08-3.493-7.386-7.8-7.386-4.309 0-7.8 3.307-7.8 7.386 0 4.08 3.491 7.387 7.8 7.387Z"/>
    </g>
    <defs>
        <clipPath id="bxa">
            <path d="M0 0h52v59.091H0z"/>
        </clipPath>
    </defs>
</symbol><symbol viewBox="0 0 32 32" id="play" xmlns="http://www.w3.org/2000/svg">
    <path d="m21.278 15.374-6.645-4.83a.801.801 0 0 0-1.273.646v9.659a.8.8 0 0 0 1.275.642l-.002.002 6.645-4.826a.795.795 0 0 0 .003-1.291l-.002-.002z"/>
    <path d="M16.001.002C7.163.002 0 7.164 0 16.003c0 8.835 7.162 15.995 16.001 15.995C24.837 31.998 32 24.837 32 16.003 32.001 7.165 24.837.002 16.001.002zm0 29.326c-7.36 0-13.328-5.964-13.328-13.326 0-7.358 5.967-13.33 13.328-13.33 7.359 0 13.326 5.971 13.326 13.33.001 7.361-5.966 13.326-13.326 13.326z"/>
</symbol><symbol viewBox="0 0 20 20" id="play-alt" xmlns="http://www.w3.org/2000/svg">
    <path d="M10 .834a9.164 9.164 0 0 0-9.167 9.167A9.164 9.164 0 0 0 10 19.167a9.164 9.164 0 0 0 9.166-9.166A9.164 9.164 0 0 0 10 .834ZM8.166 14.126v-8.25l5.5 4.125-5.5 4.125Z"/>
</symbol><symbol viewBox="0 0 41 40" id="plus" xmlns="http://www.w3.org/2000/svg">
    <path d="M18.576 0h3.992v40h-3.992z"/>
    <path d="m.62 22.062-.013-4 39.915-.124.013 4z"/>
</symbol><symbol viewBox="0 0 29 51" id="question-mark" xmlns="http://www.w3.org/2000/svg">
    <path d="M28.256 14.954A14.704 14.704 0 0 0 .818 7.602a4.202 4.202 0 0 0 7.278 4.201 6.312 6.312 0 0 1 5.456-3.15 6.302 6.302 0 0 1 0 12.603h-.01c-.27.026-.537.081-.795.162-.283.03-.563.087-.835.17-.231.127-.45.274-.653.441a4.23 4.23 0 0 0-.68.461c-.19.226-.354.47-.492.73-.153.19-.29.392-.407.606-.09.29-.151.588-.18.89-.073.242-.123.49-.149.74v4.202l.01.047.004 2.063a4.202 4.202 0 0 0 4.201 4.191h.01a4.201 4.201 0 0 0 4.191-4.211l-.006-2.779a14.677 14.677 0 0 0 10.495-14.015ZM10.6 43.479a4.201 4.201 0 0 0 2.94 7.184 4.352 4.352 0 0 0 2.984-1.218 4.265 4.265 0 0 0 0-5.965 4.345 4.345 0 0 0-5.924 0Z"/>
</symbol><symbol viewBox="0 0 18 18" id="reload" xmlns="http://www.w3.org/2000/svg">
    <path d="M15.591 11.925h-3.775a.833.833 0 1 0 0 1.667h2A6.666 6.666 0 0 1 2.333 9 .833.833 0 1 0 .666 9a8.333 8.333 0 0 0 14.067 6.025V16.5a.833.833 0 0 0 1.666 0v-3.75a.833.833 0 0 0-.808-.825ZM8.999.667a8.333 8.333 0 0 0-5.733 2.308V1.5a.833.833 0 0 0-1.667 0v3.75a.833.833 0 0 0 .834.833h3.75a.833.833 0 1 0 0-1.666h-2A6.667 6.667 0 0 1 15.666 9a.833.833 0 1 0 1.667 0A8.333 8.333 0 0 0 8.999.667Z"/>
</symbol><symbol viewBox="0 0 14 14" id="reply" xmlns="http://www.w3.org/2000/svg">
    <path d="M13.773 5.192 8.96 1.06a.657.657 0 0 0-1.085.497v2.189C3.484 3.77 0 4.65 0 8.812c0 1.68 1.083 3.344 2.279 4.214.373.272.905-.07.767-.51-1.24-3.964.588-5.017 4.829-5.08V9.84c0 .566.665.86 1.085.497l4.813-4.132c.302-.283.303-.753 0-1.013Z"/>
</symbol><symbol viewBox="0 0 18 18" id="roulette" xmlns="http://www.w3.org/2000/svg">
    <g clip-path="url(#cea)">
        <path fill-rule="evenodd" clip-rule="evenodd" d="M18 5.949V17.89H8.34c-3.386 0-6.33-.078-7.726-2.02-.936-1.3-.527-5.42-.527-7.639v-5.18C1.066-.421 7.54-.778 10.448 1.207c.827.564 2.113 1.689 1.493 3.337-.215.571-.736.936-1.053 1.405H18ZM4.566 8.934h1.492v7.463h1.493V11.92h1.493v4.478h1.492V8.934h1.493v7.463h1.493V11.92h1.493v4.478h1.492V7.441h-7.99c-1.298 0-3.05.063-4.039-.088-1.343-.204-2.017-.695-2.898-1.141v8.341h.088c.302 1.1 1.731 1.52 2.898 1.756V8.934Zm1.449-7.638c2.545 0 4.61 1.06 4.61 2.37 0 1.308-2.064 2.37-4.61 2.37-2.547 0-4.61-1.062-4.61-2.37 0-1.31 2.064-2.37 4.61-2.37Zm0 1.228c1.673 0 3.029.53 3.029 1.185s-1.356 1.186-3.03 1.186c-1.672 0-3.029-.53-3.029-1.186 0-.654 1.357-1.185 3.03-1.185Z"/>
    </g>
    <defs>
        <clipPath id="cea">
            <path d="M0 0h18v17.89H0z"/>
        </clipPath>
    </defs>
</symbol><symbol viewBox="0 0 30.83 30.83" id="search" xmlns="http://www.w3.org/2000/svg">
    <path d="m31.137 28.498-2.767 2.767-7.776-7.776v-1.475l-.553-.553c-2.029 1.845-4.796 2.952-7.748 2.952-6.641 0-11.99-5.35-11.99-11.991S5.653.432 12.293.432c6.641 0 11.99 5.35 11.99 11.99 0 2.952-1.107 5.719-2.951 7.748l.553.553h1.476zM20.796 12.419c0-4.724-3.779-8.503-8.503-8.503S3.79 7.695 3.79 12.419s3.779 8.503 8.503 8.503 8.503-3.779 8.503-8.503z"/>
</symbol><symbol viewBox="0 0 27.2 30.24" id="share" xmlns="http://www.w3.org/2000/svg">
    <path d="M24.897 12.022c-1.215 0-2.279.455-3.039 1.215L11.071 7.009c.153-.304.153-.761.153-1.065 0-2.582-1.975-4.557-4.557-4.557-2.583 0-4.559 1.975-4.559 4.557 0 2.583 1.975 4.559 4.559 4.559 1.215 0 2.278-.455 3.037-1.216l10.787 6.23c-.151.304-.151.759-.151 1.063s0 .761.151 1.065L9.704 24.026c-.759-.761-1.823-1.216-3.037-1.216a4.41 4.41 0 0 0-4.407 4.406 4.41 4.41 0 0 0 4.407 4.407 4.407 4.407 0 0 0 4.404-4.407c0-.304 0-.607-.151-1.063l10.787-6.381c.759.759 1.823 1.216 3.039 1.216 2.582 0 4.557-1.975 4.557-4.559s-1.823-4.406-4.406-4.406z"/>
</symbol><symbol viewBox="0 0 41.09 30.82" id="shopping-cart" xmlns="http://www.w3.org/2000/svg">
    <path d="M23.624 26.864a2.567 2.567 0 1 0-.001 5.135 2.567 2.567 0 0 0 .001-5.135zm-8.56 0a2.567 2.567 0 1 0-.001 5.135 2.567 2.567 0 0 0 .001-5.135zm19.353-25.68-5.875 20.544H10.689L5.661 9.744h19.467l.966-3.424H.511l7.901 18.832h22.666l5.947-20.544h3.302l1.272-3.424z"/>
</symbol><symbol viewBox="0 0 19 19" id="size" xmlns="http://www.w3.org/2000/svg">
    <path d="M9.28 0a9.3 9.3 0 1 0 9.28 9.3A9.278 9.278 0 0 0 9.28 0Zm6.31 9.65a.58.58 0 0 1-.05.26.598.598 0 0 1-.14.21l-2.28 2.94a.66.66 0 0 1-.93 0 .66.66 0 0 1 0-.93l1.49-1.92H4.9l1.48 1.91a.62.62 0 0 1 .15.21.7.7 0 0 1 0 .25.74.74 0 0 1 0 .25.64.64 0 0 1-.35.35.74.74 0 0 1-.25.05.53.53 0 0 1-.25-.05.739.739 0 0 1-.22-.18l-2.29-2.9A.69.69 0 0 1 3 9.64v-.06a.68.68 0 0 1 .19-.47l2.29-2.93a.65.65 0 0 1 .91 0 .65.65 0 0 1 0 .91L4.76 9.21h9.05l-1.62-2.09a.601.601 0 0 1-.14-.21.75.75 0 0 1-.05-.26.74.74 0 0 1 .05-.25.601.601 0 0 1 .14-.21.641.641 0 0 1 .22-.14.7.7 0 0 1 .25 0 .74.74 0 0 1 .25 0 .6.6 0 0 1 .21.14l2.28 2.94a.798.798 0 0 1 .15.21.739.739 0 0 1 0 .25v.06h.04Z"/>
</symbol><symbol viewBox="0 0 81 60" id="sole" xmlns="http://www.w3.org/2000/svg">
    <g clip-path="url(#cja)">
        <path fill-rule="evenodd" clip-rule="evenodd" d="m65.246 30.917-2.136 1.472-.19-.425c.184-.957-.353-2.721-.685-3.778-.6-.043-.632-.133-1.46.147l.191.425c-.262 1.363 1.248 3.768.432 4.913-.282.459-1.158.96-1.712 1.282l-.096-.213-.211.096c-.09-1.422-.435-3.188-1.182-4.32l-1.058.476.096.212-.212.095.97 4.416-1.268.57c-2.061-.246-5.647 2.476-7.67 2.177-.37-.229-.608-.769-.88-1.39.157-.726-.182-1.56-.629-2.527a3.628 3.628 0 0 0-1.153.264l.096.212-.212.096c.347.997.884 2.877.684 3.778-.248.403-.935.693-1.597.974-.621-1.39-.57-2.107-1.01-3.375-.55-.04-.525-.13-1.25.051-.065 1.179.283 2.759.568 4.086l-1.903.857c-.377-1.184-.438-2.029-1.011-3.375-.432.033-.224.051-.519-.022-.31.3-.187.133-.327.403-.442.88.002 2.511.376 3.66-2.222 1.021-4.074 2.28-6.133 2.763-1.29-.955-2.633-2.674-3.564-4.525l.423-.19c1.324-2.05 4.656-2.702 6.925-4.395 7.661-5.719 18.416-5.833 23.25-12.768 1.282-1.838 2.987-3.979 2.127-6.576.02-.676-.848-1.305-1.379-1.933-1.575-.108-3.264-.564-4.974-.314-6.989 1.024-10.971 7.287-14.026 10.657-2.323 2.563-5.204 4.154-7.948 6.643-1.995 1.811-4.229 3.99-6.965 5.435l-.096-.212-.211.095c-.773-1.56-1.589-2.442-2.43-4.268a35.528 35.528 0 0 1 4.87-5.003c.694.83 1.884 1.582 2.955 1.479.04-.601.131-.634-.15-1.465a4.424 4.424 0 0 1-1.823-1.222l1.617-1.494c.768.938 2.103 1.976 3.473 1.5a4.278 4.278 0 0 0-.362-1.369 4.348 4.348 0 0 1-2.13-1.34l.212-.095c.207-.501.686-.916.887-1.42l.211-.096.096.213c1.197.45 2.323 1.425 3.453 2.02.311-.301.187-.134.328-.403.393-.55.267-.44-.055-1.252-.602-.2-2.797-1.453-2.628-1.881.843-2.03 3.585-4.514 5.123-6.137.483-.511 1.529-1.316 1.712-1.282 1.2.538 1.85 2.014 3.474 1.5l-.076-.732c-.228-.725-1.48-1.223-2.204-2.072l.846-.38c.256-.448 1.207-.902 1.385-.88 1.133.495 2.135 2.067 3.453 2.02l.096.213c.308.114.114-.303.116-.308.538-.555.442-.295.252-1.135a4.677 4.677 0 0 1-2.11-1.86c.437-.413 1.209-.809 2.02-1.164.875 1.073 2.844 2.882 4.375 2.371a4.28 4.28 0 0 0-.362-1.369c-.809-.3-1.534-.958-2.226-1.552l1.692-.761c.358.062.608-.046 1.154-.264.924 1.21 3.447 3.374 5.084 2.818a3.667 3.667 0 0 0-.266-1.157c-.692-.253-2.458-1.457-2.417-1.977l-.095-.212.211-.095c1.295.289 2.756-.33 4.17-.345l4.244.387c-.257 1.456-1.45 2.486-.892 4.232a3.629 3.629 0 0 0 1.153-.263c.172-1.103.89-2.544 1.486-3.479.682.753 2.23 1.583 3.147 1.903l.382.85-3.193 1.948c-.037.55-.128.526.055 1.252.636.046.772.112 1.672-.242.424-.665 1.785-1.392 2.463-1.875l.19.425c1.139.702 1.175 3.335 1.183 4.32-1.514-.029-2.715-.444-4.476.228.025.397.115.788.266 1.156 1.155-.029 3.339-.29 4.129.695-.633 1.012-.515 2.275-1.064 3.288-.825 1.52-1.567 3.043-2.564 4.475l-.956-2.124c.08-.467-.243-1.142-.553-1.794a3.629 3.629 0 0 0-1.153.264l.075.733c-.178 1.44 1.39 3.42 1.162 4.84-.306.752-1.129 1.538-1.849 2.109l-.382-.85c.202-.964-.247-2.249-.8-3.47a3.629 3.629 0 0 0-1.153.264l.075.732c-.207 1.264.539 3.6.95 4.935ZM32.33 35.779c7.566-4.509 11.919-11.331 17.783-16.436 2.915-2.536 8.464-4.51 11.033-3.18.495.264.709.529.69.967.543 3.62-2.923 6.528-5.954 8.81l-2.961 1.333c-1.556 1.09-4.611 1.645-6.537 2.432-4.979 2.037-9.365 4.658-13.365 7.04a3.67 3.67 0 0 1-.69-.966Zm27.91-17.675c-.645-.312-.43-.575-.902-.871-.538-.253-.464-.218-1.248.051-.3.779-.787.386-1.29 1.091-.056.327-.002.431.171.945.69.358.456.29.785 1.179.55.039.525.13 1.25-.052.342-1.215 1.59-.686 1.233-2.343Zm-2.756 4.05c-.31-.192-.425-.439-.69-.967a3.632 3.632 0 0 0-1.153.264c-.253.784-.467.6-1.385.88.001.28-.045.56-.136.826.307.384 1.044 1.357 1.495 1.626.326.057.43.004.942-.169.259-1.029.62-.471 1.194-1.303.061-.359-.047-.61-.267-1.157Zm-1.953-3.207c-.843-.319-.437-1.25-1.938-.915-.254.784-.467.6-1.385.879-.041.601-.131.634.15 1.464.844.319.438 1.25 1.939.915.274-1.068.763-.473 1.405-1.399.057-.326.003-.43-.17-.944Zm-2.66 4.262c-.893-.34-.462-1.377-2.15-.82-.263.737-.258.48-1.173.784-.037.55-.128.526.055 1.252.973.405.43 1.487 2.034 1.127.343-1.215 1.59-.686 1.234-2.343Zm-3.847 2.754c-.667-.32-.605-.576-1.092-1.296-.432.033-.224.052-.52-.022-.382.307-1.541 1.12-1.827 1.59-.057.326-.003.43.17.944.677.264.307.613.997 1.084.326.057.43.004.942-.169.236-.748.861-.859 1.5-1.186l-.17-.945ZM9.762 52.325a18.47 18.47 0 0 1-1.489-4.437 3.27 3.27 0 0 1 .75-.593c1.22.315 3.276.167 4.688-.324a4.284 4.284 0 0 0-.362-1.369l-4.476.228-.096-.212.212-.096c.58-3.491 7.929-9.265 13.084-10.488 2.286 4.367 7.735 8.678 8.944 13.083-1.326.862-2.106 2.188-3.138 3.2-3.106 3.05-6.944 4.797-11.23 5.568l-.096-.212.212-.096c.27-1.565 1.5-2.694 1.008-4.54-.22-.028-.43-.109-.614-.234-.31.301-.187.134-.327.403-1.312 1.273-.722 3.203-2.046 4.496l-.095-.212c-.977-.161-3.92-1.819-3.837-2.87.699-1.104 2.875-2.26 3.964-3.061a3.298 3.298 0 0 0-.17-.945c-.637-.045-.772-.112-1.673.242-.508.863-2.256 1.891-3.213 2.469Zm15.119-9.361c-1.122-.421-.71-1.355-2.362-.725-.096.743-.682.79-1.29 1.091.035.433.053.225-.02.52.6.752 1.326 1.751 2.437 1.457.19-.775 1.098-1.056 1.214-1.824.072-.293.05-.092.02-.52Zm.431 4.913c-.282-.175-.324-.284-.594-.754-.55-.04-.524-.13-1.249.051-.27.784-.916.654-1.289 1.092-.237.507-.21.32-.04 1.04.57.192.784.87 1.303 1.2.326.057.43.004.942-.169.137-.938.492-.81 1.405-1.399l-.478-1.061Zm-5.325-7.307c-.968-.336-.69-1.03-2.054-.607-.259 1.029-.621.471-1.194 1.303-.062.359.047.61.267 1.157.643.081.603.475 1.112.776.326.058.43.004.942-.168.167-.765.695-.851 1.098-1.516.056-.327.003-.43-.171-.945Zm.2 5.529c-.867-.308-.415-1.247-2.054-.608-.19.572-.866.784-1.194 1.304-.056.3-.037.258.075.732.944.334.49.66 1.304 1.2.326.058.43.005.942-.168.194-.924.559-.895 1.405-1.399l-.478-1.061Z"/>
    </g>
    <defs>
        <clipPath id="cja">
            <path transform="rotate(65.759 33.635 52.797)" d="M0 0h31.239v74.494H0z"/>
        </clipPath>
    </defs>
</symbol><symbol viewBox="0 0 18 14" id="sort" xmlns="http://www.w3.org/2000/svg">
    <g clip-path="url(#cka)">
        <path d="M5 .469H4a1 1 0 0 0-1 1v8a1 1 0 0 0 1 1h1a1 1 0 0 0 1-1v-8a1 1 0 0 0-1-1Z"/>
        <path fill-rule="evenodd" clip-rule="evenodd" d="M0 8.469h9.13l-4.57 5.477L0 8.469Z"/>
        <path d="M13 3.469h-1a1 1 0 0 0-1 1v8a1 1 0 0 0 1 1h1a1 1 0 0 0 1-1v-8a1 1 0 0 0-1-1Z"/>
        <path fill-rule="evenodd" clip-rule="evenodd" d="M8 5.469h9.13L12.56-.008 8 5.469Z"/>
    </g>
    <defs>
        <clipPath id="cka">
            <path d="M0 0h17.12v13.938H0z"/>
        </clipPath>
    </defs>
</symbol><symbol viewBox="0 0 31.71 30.11" id="star" xmlns="http://www.w3.org/2000/svg">
    <path d="m15.855.727-4.8 10.036L0 12.218l8 7.709-1.891 10.909 9.745-5.236 9.745 5.236-1.891-10.909 8-7.709-11.055-1.455-4.8-10.036zm0 6.109 3.055 6.4 6.982 1.018-5.091 4.945 1.309 6.982-6.255-3.345L9.6 26.181l1.309-6.982-5.091-5.091L12.8 13.09l3.055-6.255z"/>
</symbol><symbol viewBox="0 0 31.71 30.26" id="star-filled" xmlns="http://www.w3.org/2000/svg">
    <path d="m15.855.727-4.8 10.036L0 12.218l8 7.709-1.891 11.055 9.745-5.236 9.891 5.236-2.036-11.055 8-7.709L20.8 10.763 15.855.727z"/>
</symbol><symbol viewBox="0 0 20 35" id="swiper-arrow" xmlns="http://www.w3.org/2000/svg">
    <g clip-path="url(#cna)" fill-rule="evenodd" clip-rule="evenodd">
        <path d="M.379 16.38a4.212 4.212 0 0 1 3.6 0l15.64 15.64c.532.53-1.149 1.39-1.68 1.92a1.363 1.363 0 0 1-1.924 0L.375 18.3a1.354 1.354 0 0 1 .004-1.92Z"/>
        <path d="M.379 17.93a4.284 4.284 0 0 0 3.6 0l15.64-15.64c.532-.53-1.149-1.39-1.68-1.92a1.345 1.345 0 0 0-1.924 0L.375 16.01a1.354 1.354 0 0 0 .004 1.92Z"/>
    </g>
    <defs>
        <clipPath id="cna">
            <path d="M0 0h19.719v34.35H0z"/>
        </clipPath>
    </defs>
</symbol><symbol viewBox="0 0 19 18" id="table-size" xmlns="http://www.w3.org/2000/svg">
    <g clip-path="url(#coa)">
        <path d="M15.107 0H4.452C2.35 0 .646 1.68.646 3.75v10.5C.646 16.32 2.35 18 4.452 18h10.655c2.102 0 3.806-1.68 3.806-3.75V3.75c0-2.07-1.704-3.75-3.806-3.75Zm2.283 14.25c0 .976-.638 1.8-1.522 2.112V14.25h-.76v2.25h-1.523v-2.25h-.761v2.25h-1.522v-2.25h-.761v2.25H9.018v-2.25h-.76v2.25H6.734v-2.25h-.76v2.25H4.451v-2.25H3.69v2.111c-.884-.31-1.522-1.135-1.522-2.111V3.75c0-.977.638-1.8 1.522-2.112V3.75h.76V1.5h1.523V6h.761V1.5h1.522v2.25h.761V1.5h1.523v2.25h.76V1.5h1.523V6h.76V1.5h1.523v2.25h.761V1.638c.884.311 1.522 1.135 1.522 2.112v10.5ZM6.628 7.5h.868V12h-1.03V9.083H5.333v-.75c.68-.03 1.295-.15 1.295-.833Zm6.328 3.5h1.39v.98h-2.985v-.719c1.164-1.118 1.81-1.683 1.818-2.263 0-.347-.204-.538-.574-.538-.344 0-.62.184-.889.393l-.322-.861a2.182 2.182 0 0 1 1.395-.492c.897 0 1.477.555 1.477 1.414 0 .866-.684 1.532-1.31 2.086Z"/>
    </g>
    <defs>
        <clipPath id="coa">
            <path transform="translate(.646)" d="M0 0h18.266v18H0z"/>
        </clipPath>
    </defs>
</symbol><symbol viewBox="0 0 11 14" id="tel" xmlns="http://www.w3.org/2000/svg">
    <path fill-rule="evenodd" clip-rule="evenodd" d="M8.9 13.7C4.66 15.64-1.92 2.86 2.22.7 2.24.69 3.43.1 3.44.1l2 3.92-1.19.59c-1.26.67 1.36 5.8 2.65 5.17.05-.02 1.18-.58 1.19-.58l2.02 3.91s-1.14.56-1.21.59Z"/>
</symbol><symbol viewBox="0 0 37.43 31.3" id="telegram" xmlns="http://www.w3.org/2000/svg">
    <path d="m20.714 25.522-4.816 4.548c-.336.317-.814.439-1.263.322s-.791-.46-.939-.896c-1.178-3.47-3.437-10.294-3.437-10.294s-4.835-1.533-8.519-2.635c-.533-.159-.904-.637-.922-1.188s.321-1.051.843-1.244c8.214-3.04 28.308-10.579 34.833-12.994.423-.156.898-.073 1.24.218s.497.743.404 1.18c-1.23 5.78-4.511 21.866-5.864 28.22-.127.597-.551 1.089-1.127 1.308s-1.221.13-1.722-.226c-3.153-2.245-8.712-6.32-8.712-6.32zm-8.421-7.182 2.613 8.618.581-5.458L31.335 7.206c.168-.152.191-.407.052-.586s-.394-.222-.586-.1L12.292 18.34z"/>
</symbol><symbol viewBox="0 0 15 17" id="tiktok" xmlns="http://www.w3.org/2000/svg">
    <path d="M12.686 3.94a3.628 3.628 0 0 1-.314-.183 4.415 4.415 0 0 1-.806-.684 3.8 3.8 0 0 1-.908-1.874h.004c-.07-.405-.04-.668-.037-.668H7.888v10.585c0 .142 0 .282-.006.421l-.002.052c0 .008 0 .015-.002.024v.005a2.324 2.324 0 0 1-1.17 1.845c-.345.197-.735.3-1.132.299a2.316 2.316 0 0 1-2.309-2.324 2.316 2.316 0 0 1 2.309-2.324c.241 0 .481.037.71.112L6.29 6.44a5.085 5.085 0 0 0-3.918 1.146c-.472.41-.868.9-1.172 1.446-.115.199-.551 1-.604 2.299-.033.737.188 1.501.294 1.817v.006c.066.186.323.82.743 1.356.338.429.737.806 1.185 1.118v-.006l.007.006c1.325.9 2.794.842 2.794.842.255-.01 1.107 0 2.074-.459a5.204 5.204 0 0 0 1.684-1.266c.39-.452.701-.968.918-1.524.248-.652.33-1.433.33-1.745V5.86c.034.02.476.312.476.312s.637.409 1.631.675c.713.19 1.674.229 1.674.229V4.359c-.336.036-1.02-.07-1.72-.42Z"/>
</symbol><symbol class="csicon" viewBox="0 0 448.051 448.051" xml:space="preserve" id="track" xmlns="http://www.w3.org/2000/svg">
    <path d="M447.875 316.825v-75.2c0-11.2-3.195-22.4-8-32L392 128.025c-4.801-9.6-16-16-27.199-16h-72c-11.199 0-20.801 9.6-20.801 20.8v171.2h-16v-224c0-17.6-14.398-32-32-32H0v288h48c8-27.2 32-48 62.398-48 30.402 0 56 20.8 62.402 48h116.801c8-27.2 32-48 62.398-48 25.602 0 46.398 14.4 56 35.2 4.801 8 12.68 12.8 20.68 12.8 11.196 0 20.798-9.6 19.196-19.2zM304 224.025v-80h64l46.398 80H304z"/>
    <path d="M352 304.025c-27.199 0-48 20.8-48 48s20.801 48 48 48 48-20.8 48-48-20.801-48-48-48zm0 70.4c-12.801 0-22.398-9.6-22.398-22.4s9.598-22.4 22.398-22.4c12.801 0 22.398 9.6 22.398 22.4s-9.597 22.4-22.398 22.4zM112 304.025c-27.199 0-48 20.8-48 48s20.801 48 48 48 48-20.8 48-48-20.801-48-48-48zm0 70.4c-12.801 0-22.398-9.6-22.398-22.4s9.598-22.4 22.398-22.4 22.398 9.6 22.398 22.4-9.597 22.4-22.398 22.4z"/>
    <circle cx="112" cy="352.025" r="8"/>
    <circle cx="352" cy="352.025" r="8"/>
</symbol><symbol viewBox="0 0 33.68 32.1" id="user" xmlns="http://www.w3.org/2000/svg">
    <path d="M16.842 3.643c2.829 0 4.952 2.228 4.952 5.199s-2.122 5.199-4.952 5.199-4.952-2.228-4.952-5.199c0-2.971 2.122-5.199 4.952-5.199zm0 18.767c10.246 0 14.526 8.368 14.526 9.695h2.316c0-5.968-5.965-12.211-16.842-12.211C6.386 19.894 0 26.136 0 32.105h2.316c0-1.326 4.842-9.695 14.526-9.695 6.316 0 0 0 0 0zM8.421 8.842c0 4.863 3.789 8.842 8.421 8.842s8.421-3.979 8.421-8.842S21.473 0 16.842 0 8.421 3.979 8.421 8.842z"/>
</symbol><symbol viewBox="0 0 31.61 33.18" id="viber" xmlns="http://www.w3.org/2000/svg">
    <path d="M17.205 18.358c-4.214-1.075-5.34-5.34-5.34-5.34s-.051-.577.334-.887l.761-.605c.378-.291.618-.997.234-1.687-.654-1.16-1.585-2.392-2.081-2.904-.377-.447-.93-.55-1.514-.246l-.012.003a6.319 6.319 0 0 0-1.551 1.26c-.003.006-.006.006-.009.011-.494.592-.784 1.276-.546 2.01l.02.014c.647 2.291 2.981 6.566 6.266 9.157 2.008 1.602 5.158 3.208 6.471 3.579l.014.02c.731.237 1.415-.05 2.01-.546.006-.003.006-.006.011-.009a6.291 6.291 0 0 0 1.259-1.551l.003-.012c.304-.584.201-1.138-.246-1.515-.809-.755-1.99-1.565-2.903-2.081-.69-.384-1.396-.144-1.687.234l-.605.761c-.31.384-.887.334-.887.334zm6.629-3.536h.003a.41.41 0 0 0 .407-.413c-.021-2.7-.847-4.865-2.455-6.435-1.606-1.565-3.627-2.367-6.008-2.384h-.003a.41.41 0 0 0-.003.82c2.161.015 3.992.739 5.441 2.151 1.446 1.412 2.189 3.381 2.208 5.854a.41.41 0 0 0 .41.407zm-2.154-.842a.41.41 0 0 0 .41-.401c.036-1.601-.448-2.961-1.439-4.042-.985-1.078-2.371-1.689-4.119-1.817a.41.41 0 0 0-.06.818c1.554.114 2.723.622 3.574 1.553.855.933 1.256 2.068 1.224 3.47a.41.41 0 0 0 .401.419h.009zm-2.105-.706h.021a.41.41 0 0 0 .389-.43c-.091-1.818-1.072-2.829-2.839-2.924a.41.41 0 1 0-.045.82c1.339.072 1.994.754 2.064 2.145a.41.41 0 0 0 .409.39zm2.684 11.978c-.378.121-3.893.996-8.312.707 0 0-3.293 3.973-4.321 5.006-.161.162-.35.227-.476.196-.177-.043-.226-.253-.224-.559l.028-5.426-.003-.001c-6.432-1.788-6.057-8.505-5.985-12.022S3.7 6.754 5.663 4.816C9.19 1.622 16.454 2.099 16.454 2.099c6.135.027 9.075 1.874 9.757 2.493 2.263 1.938 3.417 6.575 2.573 13.369-.818 6.589-5.637 7.005-6.526 7.291zm-13.307-.077h.001-.001zM16.589-.19S8.036-.706 3.866 3.119C1.545 5.44.729 8.835.643 13.048s-.198 12.103 7.41 14.244l.007.002-.005 3.265s-.048 1.322.822 1.592c1.053.327 1.671-.678 2.676-1.761a85.233 85.233 0 0 0 1.888-2.136c5.203.436 9.205-.563 9.659-.711 1.051-.342 6.995-1.102 7.962-8.994.997-8.136-.484-13.281-3.159-15.602-.806-.741-4.062-3.105-11.315-3.137z"/>
</symbol><symbol viewBox="0 0 55.74 31.52" id="vk" xmlns="http://www.w3.org/2000/svg">
    <path d="M48.98 21.848c-3.727-3.46-3.901-3.541-.692-7.705 3.984-5.168 9.191-11.791 4.584-11.791h-8.8c-1.707 0-1.83.961-2.437 2.393-2.198 5.187-6.378 11.906-7.967 10.879-1.661-1.073-.9-5.317-.772-11.627.033-1.666.024-2.81-2.522-3.402a17.684 17.684 0 0 0-3.997-.454c-5.025 0-8.488 2.107-6.52 2.474 3.472.647 3.139 8.16 2.329 11.405-1.409 5.648-6.709-4.474-8.918-9.514-.532-1.213-.694-2.154-2.596-2.154H3.478c-1.086 0-1.738.354-1.738 1.14 0 1.33 6.543 14.852 12.787 21.592 6.092 6.575 12.113 5.985 16.302 5.985 1.346 0 1.897-.898 1.88-2.022-.069-4.237 1.579-6.517 4.551-3.544 3.289 3.289 3.97 5.566 7.962 5.566h7.073c1.786 0 2.489-.575 2.489-1.477 0-1.907-3.141-5.274-5.803-7.744z"/>
</symbol><symbol viewBox="0 0 32 32" id="wall-clock" xmlns="http://www.w3.org/2000/svg">
    <path d="M16 0C7.178 0 0 7.178 0 16s7.178 16 16 16c8.823 0 16-7.178 16-16S24.823 0 16 0zm0 29.364C8.631 29.364 2.636 23.369 2.636 16S8.631 2.636 16 2.636 29.363 8.631 29.363 16c0 7.369-5.995 13.364-13.363 13.364z"/>
    <path d="M17.318 15.476V6.415a1.318 1.318 0 1 0-2.636 0V16c0 .409.19.77.482 1.012.012.015.021.032.034.046l4.943 5.613a1.318 1.318 0 1 0 1.978-1.743l-4.801-5.451z"/>
</symbol><symbol viewBox="0 0 31.97 31.97" id="wall-clock2" xmlns="http://www.w3.org/2000/svg">
    <path d="M16.008 27.384C9.724 27.38 4.631 22.285 4.631 16c0-6.287 5.097-11.383 11.384-11.383S27.398 9.714 27.398 16c-.019 6.281-5.108 11.368-11.388 11.383h-.001zm0-27.378C7.178.006.021 7.164.021 15.993S7.179 31.98 16.008 31.98c8.83 0 15.987-7.158 15.987-15.987C31.97 7.173 24.827.03 16.01.006h-.002zM17.074 8.7h-2.675v10.658l6.917 3.358 1.421-2.299-5.664-2.47V8.706z"/>
</symbol><symbol class="cyicon" viewBox="0 0 512 512" xml:space="preserve" id="warning" xmlns="http://www.w3.org/2000/svg">
    <path d="M507.494 426.066 282.864 53.537a31.372 31.372 0 0 0-53.73 0L4.506 426.066a31.37 31.37 0 0 0 26.864 47.569h449.259a31.372 31.372 0 0 0 26.865-47.569zM256.167 167.227c12.901 0 23.817 7.278 23.817 20.178 0 39.363-4.631 95.929-4.631 135.292 0 10.255-11.247 14.554-19.186 14.554-10.584 0-19.516-4.3-19.516-14.554 0-39.363-4.63-95.929-4.63-135.292 0-12.9 10.584-20.178 24.146-20.178zm.331 243.791c-14.554 0-25.471-11.908-25.471-25.47 0-13.893 10.916-25.47 25.471-25.47 13.562 0 25.14 11.577 25.14 25.47 0 13.562-11.578 25.47-25.14 25.47z"/>
</symbol><symbol viewBox="0 0 21 21" id="watch" xmlns="http://www.w3.org/2000/svg">
    <path d="M17.276 3.725 15.92 5.08a7.625 7.625 0 0 1 2.247 5.419 7.665 7.665 0 0 1-7.667 7.667A7.665 7.665 0 0 1 2.834 10.5a7.66 7.66 0 0 1 6.708-7.6v1.936A5.748 5.748 0 0 0 4.75 10.5a5.748 5.748 0 0 0 5.75 5.75 5.748 5.748 0 0 0 5.75-5.75 5.75 5.75 0 0 0-1.681-4.068l-1.357 1.356a3.84 3.84 0 0 1 1.122 2.712 3.832 3.832 0 0 1-3.834 3.833A3.832 3.832 0 0 1 6.667 10.5a3.829 3.829 0 0 1 2.875-3.7v2.047a1.91 1.91 0 0 0-.958 1.653 1.916 1.916 0 1 0 3.833 0c0-.71-.388-1.318-.958-1.653V.917H10.5A9.58 9.58 0 0 0 .917 10.5c0 5.29 4.289 9.583 9.583 9.583 5.29 0 9.584-4.293 9.584-9.583a9.553 9.553 0 0 0-2.808-6.775Z"/>
</symbol><symbol viewBox="0 0 31.47 31.62" id="whatsapp" xmlns="http://www.w3.org/2000/svg">
    <path d="M24.396 19.231c-.098-.163-.359-.261-.75-.457s-2.317-1.143-2.675-1.274c-.359-.131-.62-.196-.881.196s-1.011 1.274-1.24 1.535c-.228.261-.457.294-.848.098s-1.653-.609-3.149-1.943c-1.164-1.038-1.95-2.32-2.178-2.712s-.024-.604.172-.799c.176-.176.392-.457.587-.686s.261-.392.392-.653.065-.49-.033-.686c-.098-.196-.881-2.123-1.207-2.908-.318-.763-.64-.66-.881-.672-.228-.011-.489-.014-.751-.014s-.685.098-1.044.49-1.37 1.339-1.37 3.267c0 1.927 1.403 3.789 1.599 4.05s2.761 4.216 6.689 5.912c.934.403 1.663.644 2.232.825.938.298 1.791.256 2.466.155.752-.112 2.317-.947 2.643-1.862s.326-1.699.228-1.862zM4.461 27.724l1.316-4.806c-1.443-2.297-2.302-4.493-2.301-7.424C3.479 8.313 9.322 2.47 16.506 2.47c7.202.002 13.022 5.837 13.019 13.034-.003 7.182-5.851 13.025-13.03 13.025-2.788-.001-4.896-.787-7.105-2.098zm4.545 1.544a15.687 15.687 0 0 0 7.495 1.907c8.636 0 15.667-7.03 15.67-15.67.002-4.187-1.627-8.124-4.585-11.086S20.693-.175 16.501-.177C7.864-.177.834 6.852.831 15.492a15.635 15.635 0 0 0 2.092 7.834L.7 31.446z"/>
</symbol><symbol viewBox="0 0 18 16" id="youtube" xmlns="http://www.w3.org/2000/svg">
    <path d="M16.2 1.16C15.66.98 12.33.8 9 .8s-6.66.18-7.2.36C.36 1.61 0 4.76 0 8c0 3.24.36 6.39 1.8 6.84.54.18 3.87.36 7.2.36s6.66-.18 7.2-.36c1.44-.45 1.8-3.6 1.8-6.84 0-3.24-.36-6.39-1.8-6.84Zm-9 10.89v-8.1L12.6 8l-5.4 4.05Z"/>
</symbol><symbol viewBox="0 0 27 27" id="zoom" xmlns="http://www.w3.org/2000/svg">
    <g clip-path="url(#dca)">
        <path fill-rule="evenodd" clip-rule="evenodd" d="M20.17 17.777h-1.284l-.486-.485a10.14 10.14 0 0 0 2.58-6.783A10.5 10.5 0 0 0 8.437.213a10.495 10.495 0 0 0-7.65 14.314 10.497 10.497 0 0 0 9.697 6.48 10.096 10.096 0 0 0 6.781-2.584l.486.484v1.291l6.806 6.809 2.419-2.423-6.806-6.807Zm-9.686.174A7.443 7.443 0 0 1 5.22 5.243a7.443 7.443 0 0 1 12.706 5.265 7.41 7.41 0 0 1-7.442 7.444Z"/>
        <path d="M9 5.727h3.273v9.818H9z"/>
        <path d="M5.726 12.273V9h9.818v3.273z"/>
    </g>
    <defs>
        <clipPath id="dca">
            <path d="M0 0h27v27H0z"/>
        </clipPath>
    </defs>
</symbol></svg>