<?xml version="1.0" encoding="UTF-8"?>
<svg id="SVGDoc" width="17" height="14" xmlns="http://www.w3.org/2000/svg" version="1.1" xmlns:xlink="http://www.w3.org/1999/xlink" xmlns:avocode="https://avocode.com/" viewBox="0 0 17 14"><defs></defs><desc>Generated with Avocode.</desc><g><g><title>telegram-1</title><path d="M9.06251,11.16594c0,0 -1.27956,1.20813 -2.1072,1.98977c-0.14694,0.13875 -0.35614,0.19208 -0.55252,0.14082c-0.19638,-0.05116 -0.34607,-0.20136 -0.41073,-0.3918c-0.51544,-1.51802 -1.50352,-4.50366 -1.50352,-4.50366c0,0 -2.11533,-0.67071 -3.72688,-1.15272c-0.23323,-0.06959 -0.39551,-0.2788 -0.40329,-0.51964c-0.0079,-0.24084 0.14042,-0.45987 0.36861,-0.54429c3.59367,-1.32986 12.38468,-4.62833 15.2393,-5.68474c0.18494,-0.06839 0.39288,-0.03174 0.54256,0.09544c0.14969,0.12751 0.21744,0.32527 0.17681,0.51637c-0.53822,2.52883 -1.97365,9.56645 -2.56531,12.34626c-0.0555,0.26124 -0.24113,0.47656 -0.49301,0.57222c-0.25177,0.09555 -0.53432,0.05694 -0.75325,-0.09893c-1.37947,-0.98212 -3.81157,-2.76509 -3.81157,-2.76509zM5.37797,8.02388l1.14338,3.77056l0.25417,-2.3879c0,0 4.41593,-3.98293 6.93363,-6.25368c0.0737,-0.06665 0.08366,-0.17801 0.02266,-0.25633c-0.06088,-0.07832 -0.17246,-0.0973 -0.25635,-0.04374c-2.91744,1.86314 -8.0975,5.1711 -8.0975,5.1711z" fill="#ffffff" fill-opacity="1"></path></g></g></svg>