<?xml version="1.0" encoding="UTF-8"?>
<svg id="SVGDoc" width="20" height="19" xmlns="http://www.w3.org/2000/svg" version="1.1" xmlns:xlink="http://www.w3.org/1999/xlink" xmlns:avocode="https://avocode.com/" viewBox="0 0 20 19"><defs></defs><desc>Generated with Avocode.</desc><g><g><title>Forma 1</title><path d="M9.9999,2.16278c1.67999,0 2.93999,1.32299 2.93999,3.08708c0,1.76399 -1.25999,3.08708 -2.93999,3.08708c-1.67999,0 -2.93999,-1.3231 -2.93999,-3.08708c0,-1.76409 1.25999,-3.08708 2.93999,-3.08708c1.67999,0 0,0 0,0zM9.9999,13.30604c6.08334,0 8.62507,4.96876 8.62507,5.75629h1.37501c0,-3.54379 -3.54172,-7.2501 -10.00008,-7.2501c-6.20831,0 -9.99996,3.70631 -9.99996,7.2501h1.37501c0,-0.78753 2.87498,-5.75629 8.62495,-5.75629c3.75,0 0,0 0,0zM4.99998,5.24987c0,2.88747 2.24991,5.24996 4.99992,5.24996c2.75002,0 5.00004,-2.36249 5.00004,-5.24996c0,-2.88769 -2.25002,-5.25007 -5.00004,-5.25007c-2.75002,0 -4.99992,2.36238 -4.99992,5.25007z" fill="#000000" fill-opacity="1"></path></g></g></svg>