<?xml version="1.0" encoding="UTF-8"?>
<svg id="SVGDoc" width="21" height="12" xmlns="http://www.w3.org/2000/svg" version="1.1" xmlns:xlink="http://www.w3.org/1999/xlink" xmlns:avocode="https://avocode.com/" viewBox="0 0 21 12"><defs></defs><desc>Generated with Avocode.</desc><g><g><title>vk-1</title><path d="M18.36766,8.19287c-1.39744,-1.29736 -1.46301,-1.32779 -0.25944,-2.88933c1.49414,-1.93818 3.44673,-4.42163 1.71913,-4.42163c-0.33829,0 -0.09716,0 -3.2999,0c-0.64018,0 -0.6863,0.3605 -0.9137,0.89748c-0.82443,1.94494 -2.39182,4.46461 -2.98748,4.07968c-0.62279,-0.40227 -0.33749,-1.99392 -0.28965,-4.36001c0.01247,-0.62479 0.00916,-1.0539 -0.94585,-1.27565c-0.52116,-0.12097 -1.02825,-0.17038 -1.49895,-0.17038c-1.88427,0 -3.18317,0.79004 -2.44514,0.92759c1.30188,0.2428 1.17725,3.06014 0.8733,4.27678c-0.52849,2.11805 -2.51587,-1.67792 -3.34431,-3.56778c-0.19947,-0.45485 -0.26012,-0.80771 -0.97366,-0.80771c-0.39093,0 -2.11773,0 -2.69772,0c-0.40741,0 -0.65186,0.13264 -0.65186,0.42769c0,0.49859 2.45361,5.56934 4.79507,8.09697c2.28447,2.46578 4.54227,2.24447 6.11332,2.24447c0.50457,0 0.71136,-0.33672 0.70484,-0.75841c-0.02586,-1.58892 0.59212,-2.44386 1.70666,-1.32899c1.23344,1.23344 1.48888,2.0874 2.98576,2.0874c0.5698,0 2.09953,0 2.65228,0c0.66982,0 0.93327,-0.21564 0.93327,-0.554c0,-0.71511 -1.17771,-1.97778 -2.17598,-2.90416z" fill="#ffffff" fill-opacity="1"></path></g></g></svg>