<svg width="35" height="51" viewBox="0 0 35 51" fill="none" xmlns="http://www.w3.org/2000/svg">
<circle cx="17.5" cy="33.5" r="17.5" fill="white"/>
<path d="M23.3333 37.6249H20.6667V18.8124C20.6667 17.3267 19.4725 16.1249 18 16.1249H12.6667C11.1942 16.1249 10 17.3267 10 18.8124C10 20.2981 11.1942 21.4243 12.6667 21.4243H15.3333V37.5493H12.6667C11.1942 37.5493 10 38.7511 10 40.2368C10 41.7225 11.1942 42.9243 12.6667 42.9243H23.3333C24.8058 42.9243 26 41.7225 26 40.2368C26 38.7511 24.8083 37.6249 23.3333 37.6249ZM18 10.7499C20.2092 10.7499 22 8.94507 22 6.71864C22 4.49222 20.2083 2.68823 18 2.68823C15.7917 2.68823 14 4.49306 14 6.71948C14 8.94591 15.7908 10.7499 18 10.7499Z" fill="black"/>
</svg>
