<svg width="45" height="39" viewBox="0 0 45 39" fill="none" xmlns="http://www.w3.org/2000/svg">
<g clip-path="url(#clip0_1_15205)">
<path d="M28.018 5.7957L32.6878 2.48438L39.0558 5.38178L39.4803 19.4549C40.4708 23.1801 42.3671 30.7134 42.0275 31.0445C41.6878 31.3756 38.7727 34.7697 37.3576 36.4254L28.018 35.1837L24.1973 28.9749L26.7444 21.9384L28.018 5.7957Z" fill="white"/>
<path d="M42.5009 21.2139V8.53125C42.5009 3.8185 38.5845 0 33.8212 0C29.0579 0 25.1415 3.8185 25.1415 8.53125V21.2139C23.5985 23.0892 22.7118 25.4414 22.7118 28.0312C22.7118 34.0869 27.7509 38.9314 33.8915 38.9314C39.9618 39 45.0009 34.0869 45.0009 28.0312C45.0009 25.4414 44.0399 23.0877 42.5009 21.2139ZM33.7509 34.125C30.304 34.125 27.5017 31.3927 27.5017 28.0998C27.5017 26.1574 28.4587 24.3765 29.9314 23.2438V8.60361C29.9314 6.58506 31.611 4.94736 33.611 4.94736C35.6814 4.94736 37.2907 6.58506 37.2907 8.60361V23.2438C38.8337 24.3674 39.7204 26.1574 39.7204 28.0998C40.0009 31.3904 37.1962 34.125 33.7509 34.125ZM35.0009 24.5959V23.1562C35.0009 22.4897 34.4344 21.9375 33.7509 21.9375C33.0674 21.9375 32.5712 22.4897 32.5712 23.1562V24.5944C31.1165 25.099 30.0712 26.4415 30.0712 28.032C30.0712 30.0506 31.7509 31.6883 33.7509 31.6883C35.8212 31.6883 37.5009 30.0506 37.5009 28.032C37.5009 26.4393 36.454 25.0986 35.0009 24.5959ZM20.9618 23.2629C21.3603 22.265 21.8524 21.3053 22.5009 20.4064L22.5014 19.9192L17.4306 16.9939L22.4993 14.1405L22.4991 9.92443L15.5556 13.8937V9.46816L17.9103 7.17311C18.5206 6.57805 18.5206 5.61158 17.9103 5.01668C17.2999 4.42178 16.311 4.42163 15.7009 5.01668L15.5556 5.1576V4.26562C15.5556 3.25635 14.7157 2.4375 13.6806 2.4375C12.6454 2.4375 11.8056 3.25635 11.8056 4.26562V5.1576L11.6649 5.01516C11.0546 4.4201 10.0657 4.4201 9.45557 5.01516C8.84542 5.61021 8.84526 6.57668 9.45557 7.17158L11.8103 9.46664V13.896L7.87589 11.6848L7.0126 8.54648C6.78917 7.73145 5.93604 7.2508 5.1001 7.46713C4.26651 7.68376 3.77198 8.51906 3.99542 9.33334L4.04897 9.52826L3.25401 9.07969C2.36026 8.57695 1.20948 8.87402 0.692994 9.75C0.175416 10.626 0.481822 11.7457 1.37901 12.2484L2.17432 12.6959L1.97354 12.7436C1.14073 12.9602 0.646979 13.7955 0.870416 14.6098C1.05721 15.2906 1.68838 15.7379 2.37823 15.7379C2.51253 15.7379 2.64924 15.7212 2.78471 15.6855L5.99932 14.8459L9.93057 16.9939L6.13448 19.2029L2.91963 18.3574C2.09463 18.1441 1.22901 18.624 1.00557 19.4391C0.782135 20.2465 1.27667 21.0844 2.1087 21.3053L2.30917 21.3576L1.51495 21.8004C0.617369 22.3031 0.310963 23.4229 0.828229 24.2988C1.17495 24.8844 1.80635 25.2129 2.45323 25.2129C2.77182 25.2129 3.09409 25.1344 3.38917 24.9677L4.1837 24.5205L4.13014 24.7154C3.90714 25.5328 4.40167 26.3631 5.23526 26.5154C5.37073 26.5511 5.50628 26.5678 5.64057 26.5678C6.33026 26.5678 6.96167 26.1203 7.14839 25.4397L8.01089 22.3006L11.8093 20.1625V23.9825L9.45401 26.3402C8.8437 26.9353 8.8437 27.9018 9.45401 28.4967C10.0643 29.0916 11.0532 29.0917 11.6634 28.4967L11.8086 28.3549V29.8594C11.8086 30.8687 12.6485 31.6875 13.6836 31.6875C14.7188 31.6875 15.5586 30.8687 15.5586 29.8594V28.358L15.704 28.5035C16.0087 28.8006 16.4071 28.9453 16.8056 28.9453C17.204 28.9453 17.6048 28.7977 17.9103 28.5002C18.5206 27.9051 18.5206 26.9386 17.9103 26.3437L15.5556 24.0475V20.2313L20.9618 23.2629Z" fill="black"/>
</g>
<defs>
<clipPath id="clip0_1_15205">
<rect width="45" height="39" fill="white"/>
</clipPath>
</defs>
</svg>
